<?xml version="1.0" encoding="UTF-8" standalone="no"?>
<!-- Created with Inkscape (http://www.inkscape.org/) -->

<svg
   width="50.695972mm"
   height="30mm"
   viewBox="0 0 50.695972 30"
   version="1.1"
   id="svg2763"
   inkscape:version="1.1.1 (1:1.1+202109281949+c3084ef5ed)"
   sodipodi:docname="soul_02.svg"
   xmlns:inkscape="http://www.inkscape.org/namespaces/inkscape"
   xmlns:sodipodi="http://sodipodi.sourceforge.net/DTD/sodipodi-0.dtd"
   xmlns="http://www.w3.org/2000/svg"
   xmlns:svg="http://www.w3.org/2000/svg">
  <sodipodi:namedview
     id="namedview2765"
     pagecolor="#ffffff"
     bordercolor="#666666"
     borderopacity="1.0"
     inkscape:pageshadow="2"
     inkscape:pageopacity="0.0"
     inkscape:pagecheckerboard="0"
     inkscape:document-units="mm"
     showgrid="false"
     width="30mm"
     fit-margin-top="0"
     fit-margin-left="0"
     fit-margin-right="0"
     fit-margin-bottom="0"
     inkscape:zoom="0.64052329"
     inkscape:cx="138.16828"
     inkscape:cy="226.37741"
     inkscape:window-width="1920"
     inkscape:window-height="1151"
     inkscape:window-x="0"
     inkscape:window-y="25"
     inkscape:window-maximized="1"
     inkscape:current-layer="layer1" />
  <defs
     id="defs2760" />
  <g
     inkscape:label="Layer 1"
     inkscape:groupmode="layer"
     id="layer1"
     transform="translate(10.347989)">
    <g
       id="g1145"
       transform="matrix(1.1904962,0,0,1.1904962,170.54688,271.7794)"
       style="display:inline">
      <path
         style="fill:#333333;stroke:#000000;stroke-width:0.264583px;stroke-linecap:butt;stroke-linejoin:miter;stroke-opacity:1"
         d="m -144.99092,-213.89819 c -0.0534,0.73037 0.11801,1.63708 0.6991,2.08275 0.56351,0.43218 1.54737,0.54218 2.12644,0.13108 0.71561,-0.50804 0.69111,-1.65694 0.71367,-2.53426 0.0429,-1.66715 -0.27136,-3.43585 -1.10692,-4.87914 -0.50265,-0.86825 -1.21766,-1.9199 -2.21382,-2.03905 -1.62047,-0.19383 -3.44964,0.97022 -4.282,2.37403 -1.27272,2.1465 -0.95381,5.16266 -0.0437,7.48623 0.8368,2.1364 2.57509,4.17007 4.70437,5.0248 1.6888,0.67791 3.8228,0.51313 5.45113,-0.29937 1.17823,-0.58791 1.97984,-1.83196 2.54486,-3.02134 0.49627,-1.04466 0.62332,-2.25282 0.64498,-3.40916 0.03,-1.59967 -0.054,-3.2893 -0.71501,-4.7463 -0.43411,-0.95682 -1.10228,-1.77248 -2.03624,-2.4061 0.0438,-0.93101 -0.002,-2.43082 -0.60276,-3.42049 -0.47616,-0.78441 -1.33147,-1.33723 -2.18469,-1.67493 -0.99807,-0.39503 -2.1649,-0.58877 -3.20422,-0.32042 -1.14876,0.29661 -2.31822,1.00643 -2.92749,2.02448 -0.50934,0.85108 -0.63912,1.93161 -0.33496,2.95662 l 1.06322,-0.43694 c -0.20237,-0.5074 -0.40967,-1.6256 -0.10193,-2.3449 0.32479,-0.75917 1.08371,-1.3619 1.86427,-1.63124 1.26853,-0.43772 2.86236,-0.4605 4.01984,0.21847 0.97123,0.56972 1.47106,1.77965 1.80601,2.85467 0.14453,0.46388 0.20715,0.99395 0.0583,1.45646 -0.15471,0.48072 -0.45156,1.03913 -0.93213,1.1943 -0.49564,0.16004 -1.17212,-0.0324 -1.50016,-0.43694 -0.48758,-0.60128 -0.5172,-1.62151 -0.17478,-2.31578 0.13342,-0.27052 0.84691,-0.20717 0.75736,-0.4952 -0.12111,-0.38953 -0.8947,-0.21241 -1.22342,0.0291 -0.45035,0.3309 -0.58062,1.03027 -0.5389,1.58755 0.0498,0.66475 0.38026,1.38236 0.91758,1.77689 0.43298,0.31791 1.05486,0.34592 1.58754,0.27672 0.461,-0.0599 0.80379,-0.54472 1.26712,-0.58258 0.25591,-0.0209 0.55172,0.0324 0.7428,0.2039 1.12243,1.00749 1.45707,2.71467 1.66037,4.20918 0.23031,1.69308 0.23022,3.57183 -0.53889,5.09762 -0.71765,1.42371 -1.97626,2.85324 -3.52464,3.23335 -2.00492,0.49219 -4.42649,-0.24211 -5.98382,-1.59736 -1.84424,-1.60494 -2.72227,-4.31579 -2.8521,-6.75713 -0.0809,-1.52117 0.19444,-3.34917 1.32057,-4.375 1.08396,-0.98741 2.98811,-1.506 4.31112,-0.87388 0.99728,0.47649 1.24827,1.87312 1.52929,2.94206 0.3903,1.48462 0.7229,3.1742 0.16022,4.60243 -0.11577,0.29384 -0.36618,0.58365 -0.66998,0.66997 -0.42705,0.12134 -0.98568,0.0114 -1.29625,-0.30587 -0.3577,-0.36539 -0.22559,-0.99769 -0.32046,-1.50014 -0.0612,-0.32393 0.16552,-0.92549 -0.16026,-0.97589 -0.34976,-0.0541 -0.45483,0.59377 -0.48063,0.94675 z"
         id="path1137"
         inkscape:connector-curvature="0"
         sodipodi:nodetypes="aaaaaaaaaaaaacaaaaccaaaaaaaaaaaaaaaaaaaaaaaaaaaaa" />
      <path
         style="fill:#333333;fill-opacity:1;stroke:#000000;stroke-width:1px;stroke-linecap:butt;stroke-linejoin:miter;stroke-opacity:1"
         d="m -510.5332,-853.12695 c -4.23939,-0.0155 -10.45059,1.96397 -11.13086,6.14843 -0.14147,0.87009 0.90839,1.98658 1.78906,1.94727 1.83035,-0.0815 1.72261,-3.51321 3.34766,-4.35937 4.17002,-2.17134 9.72342,-2.36114 14.09179,-0.62305 6.34311,2.52382 11.04854,8.68129 14.2461,14.71289 3.74967,7.07304 4.81925,15.50668 4.90429,23.51172 0.0874,8.20902 0.49717,17.70962 -4.51562,24.21094 -3.04071,3.94363 -8.56379,6.99434 -13.50586,6.38281 -5.88265,-0.7279 -10.84255,-6.80628 -13.74024,-11.28907 l -1.32421,2.95899 c 2.86945,5.43001 8.96966,10.40955 15.17968,10.89844 6.10855,0.4809 12.90922,-3.23539 16.42774,-8.25196 5.56694,-7.93712 4.30672,-19.22635 3.42383,-28.88086 -0.80655,-8.81949 -2.29534,-18.49026 -7.86133,-25.3789 -5.12602,-6.34417 -13.17581,-11.95805 -21.33203,-11.98828 z m 4.37109,16.96289 c -0.59546,0.0249 -0.99738,0.75729 -0.63281,1.64258 l 6.30469,19.15039 -3.58008,24.28906 c -0.3885,2.45291 2.14138,3.50711 2.49023,1.71289 l 3.34766,-24.13281 3.1914,5.13672 c 1.24748,1.78144 3.23066,-0.19357 1.40235,-2.41211 l -4.51563,-6.38477 c 0,0 2.95783,-12.76669 3.19141,-13.07812 1.11205,-4.19883 -2.35395,-5.11775 -2.64649,-2.41407 l -2.49218,10.50977 -4.5918,-12.5332 c -0.42529,-1.09774 -1.00561,-1.50572 -1.46875,-1.48633 z"
         transform="scale(0.26458333)"
         id="path1139"
         inkscape:connector-curvature="0" />
      <path
         style="fill:#333333;fill-opacity:1;stroke:#000000;stroke-width:0.264583px;stroke-linecap:butt;stroke-linejoin:miter;stroke-opacity:1"
         d="m -127.91048,-208.64805 c 0.41309,1.27137 1.68736,2.20449 2.92484,2.30691 1.80373,0.14929 3.69964,-1.1477 4.75803,-2.61588 1.15921,-1.60804 1.0124,-3.86824 1.07107,-5.84969 0.0819,-2.76565 -0.27111,-5.57242 -1.00928,-8.239 -0.16236,-0.58653 -0.21601,-1.36144 -0.74151,-1.66839 -0.93502,-0.54616 -2.50545,-0.49231 -3.23381,0.30896 -0.88208,0.97038 -0.0666,2.62444 0,3.93412 0.14781,2.90863 0.79062,6.37002 0.88569,8.69214 0.0331,0.80925 -0.78387,1.09388 -0.8033,0.24717 -0.0703,-3.06508 0.0267,-8.0024 -1.05047,-11.80236 -0.11723,-0.41358 -0.20167,-0.94341 -0.57673,-1.15346 -0.83576,-0.46806 -2.02857,-0.22317 -2.86305,0.24717 -0.27396,0.15441 -0.26273,0.64891 -0.55614,0.7621 -0.1897,0.0732 -0.48662,0.047 -0.59732,-0.12358 -0.12244,-0.18865 0.003,-0.48421 0.14418,-0.65912 0.31289,-0.38712 0.87557,-0.5011 1.35943,-0.61793 0.84855,-0.20489 1.75879,-0.28912 2.61589,-0.12358 0.25943,0.0501 0.4569,0.34023 0.72091,0.32956 0.2672,-0.0108 0.44588,-0.30904 0.70031,-0.39135 0.78922,-0.25531 1.65934,-0.45606 2.4717,-0.28837 0.60551,0.12499 1.23429,0.43329 1.60661,0.92689 0.69894,0.9266 0.67252,2.23015 0.84449,3.37799 0.42685,2.84895 0.78172,5.7684 0.45316,8.63035 -0.1948,1.69681 -0.37004,3.57667 -1.42123,4.92281 -0.69869,0.89473 -1.83778,1.46105 -2.94545,1.70959 -1.27069,0.28511 -2.75656,0.30653 -3.89293,-0.32956 -0.67702,-0.37897 -1.12035,-1.12021 -1.38003,-1.87438 z"
         id="path1141"
         inkscape:connector-curvature="0"
         sodipodi:nodetypes="caaaaaaassaaaaaaaaaaaaaaaaacc" />
      <path
         style="fill:#333333;fill-opacity:1;stroke:#000000;stroke-width:0.264583px;stroke-linecap:butt;stroke-linejoin:miter;stroke-opacity:1"
         d="m -119.60476,-208.48014 c 0.63675,0.98051 1.2922,1.76445 2.27208,2.03904 1.47433,0.41315 3.33874,0.1354 4.51504,-0.84474 0.68713,-0.57254 1.02884,-1.61327 0.96126,-2.50512 -0.0608,-0.80221 -0.47462,-1.73775 -1.1943,-2.09731 -0.7776,-0.38849 -1.63565,0.20995 -2.5869,0.32895 -0.32229,0.0403 -0.60393,-0.2034 -0.58819,-0.47459 0.17838,-3.07379 0.6158,-5.74562 0.84183,-8.7929 0.0977,-1.31653 0.46628,-2.97106 -0.43402,-3.93659 -0.44945,-0.48201 -1.31317,-0.53984 -1.94529,-0.35339 -0.52201,0.15396 -0.68727,0.58816 -1.19092,1.11691 -0.15183,0.15939 -0.58607,-0.15287 -0.31527,-0.51711 0.28588,-0.38452 0.73038,-0.91251 1.25255,-1.10692 0.64325,-0.23949 1.45489,-0.30327 2.05905,0.0225 0.58211,0.31389 1.00915,1.04903 1.10822,1.64568 0.47269,2.84686 -0.39605,5.07337 -0.58613,7.61066 -0.10109,1.34945 -0.18494,2.97473 -0.29482,4.04896 0.83144,-0.26766 2.07801,-0.6372 2.97118,-0.2039 0.66635,0.32327 1.10373,1.10963 1.25256,1.83514 0.24262,1.18266 0.005,2.5733 -0.6991,3.55377 -0.58253,0.81079 -1.61731,1.31322 -2.60068,1.48559 -1.17378,0.20575 -2.46751,-0.0572 -3.52232,-0.61171 -0.68554,-0.36039 -1.34917,-1.06805 -1.62538,-1.66037 z"
         id="path1143"
         inkscape:connector-curvature="0"
         sodipodi:nodetypes="caaaasssaassaasacaaaaacc" />
    </g>
  </g>
</svg>
