<?xml version="1.0" encoding="UTF-8"?>
<!-- Created with Inkscape (http://www.inkscape.org/) -->
<svg id="svg5" width="60mm" height="72.237854mm" version="1.1" viewBox="0 0 60 72.237854" xmlns="http://www.w3.org/2000/svg" xmlns:xlink="http://www.w3.org/1999/xlink">
 <defs id="defs11">
  <linearGradient id="linearGradient893" x1="21.480934" x2="19.845692" y1="69.303688" y2="38.332458" gradientTransform="matrix(1 0 0 1.0024733 0 -.0024114)" gradientUnits="userSpaceOnUse">
   <stop id="stop887" stop-color="#1a1a1a" offset="0"/>
   <stop id="stop889" stop-color="#808080" stop-opacity="0" offset="1"/>
  </linearGradient>
 </defs>
 <path id="path837" d="m24.242341 0.97513312c-0.272515 0.001362-0.547749 0.0100664-0.825884 0.0273382-4.903718 0.30447828-7.755508 3.19203608-9.604893 3.96692988-1.320218 0.5531657-4.2183219 0.7206433-7.2127566 3.0321463-2.0709954 1.5986909-3.4384543 3.6851735-4.3285611 5.8075055-1.2215844 2.912717-1.53262369 5.94043-1.44726269 8.731548 0.12379339 4.047367 1.40958659 7.463639 2.26736269 10.386168 0.9303213 3.1697 2.2321187 5.624891 2.8230483 7.723459 0.5187826 1.842355 0.9145873 3.644236 1.089884 5.37097 0.3520485 3.467728-0.6333658 7.922128 0.059482 13.17105 0.1124726 0.852042 0.022786 2.736988 0.2640004 4.871485 0.1205795 1.067245 0.3282396 2.252043 0.9494132 3.522108 0.6211816 1.270073 1.8146398 2.624685 3.3865858 3.334074 1.625136 0.733393 3.573691 0.605214 4.871859 0.118866 1.298167-0.486348 2.157542-1.154821 2.882537-1.73289 1.449984-1.156152 2.577428-1.956837 2.473526-1.922165 3.119163-1.04086 8.251225-0.196151 13.927261-2.559166 5.384125-2.241494 10.681913-5.573956 14.663897-10.317416 4.195944-4.998294 8.4727-11.446975 8.700923-19.083341 0.178918-5.98762-2.894906-10.932343-5.624613-14.777203-4.940487-6.95876-11.737915-12.4779148-19.005276-16.4695085-2.769761-1.5212843-6.222865-3.2228431-10.310549-3.20195599z" color="#000000" fill="url(#linearGradient893)" opacity=".243165" stroke-width="8.0048" style="-inkscape-stroke:none"/>
 <path id="path3408" d="m24.242341 0.97513265c-0.272515 0.001359-0.547749 0.0100416-0.825884 0.0272707-4.903718 0.30372715-7.755508 3.18416055-9.604893 3.95714255-1.320218 0.5518009-4.2183219 0.7188652-7.2127566 3.0246651-2.0709954 1.5947466-3.4384543 3.676081-4.3285611 5.793177-1.2215844 2.905531-1.53262369 5.925773-1.44726269 8.710005 0.12379339 4.037381 1.40958659 7.445225 2.26736269 10.360542 0.9303213 3.16188 2.2321187 5.611013 2.8230483 7.704404 0.5187826 1.837809 0.9145873 3.635244 1.089884 5.357718 0.3520485 3.459172-0.6333658 7.902582 0.059482 13.138554 0.1124726 0.84994 0.022786 2.730234 0.2640004 4.859466 0.1205795 1.064612 0.3282396 2.246486 0.9494132 3.513417 0.6211816 1.26694 1.8146398 2.61821 3.3865858 3.325849 1.625136 0.731583 3.573691 0.60372 4.871859 0.118572 1.298167-0.485148 2.157542-1.151972 2.882537-1.728614 1.449984-1.1533 2.577428-1.952009 2.473526-1.917423 3.119163-1.038292 8.251225-0.195667 13.927261-2.552851 5.384125-2.235964 10.681913-5.560205 14.663897-10.291961 4.195944-4.985962 8.4727-11.418733 8.700923-19.036257 0.178918-5.972847-2.894906-10.905371-5.624613-14.740744-4.940487-6.941591-11.737915-12.4471287-19.005276-16.428874-2.769761-1.5175309-6.222865-3.21489153-10.310549-3.19405596z" color="#000000" fill="#f2f2f2" stroke-width="7.99492" style="-inkscape-stroke:none"/>
 <path id="path3448" d="m46.545355 37.400276-18.62204 0.913948-7.523439 9.669916 2.232103 4.861018 8.270517-2.24069 7.278706-2.556009 7.719091-0.260706 3.481429-8.120068z" fill="#d5a0b7" stroke-width=".799492"/>
 <path id="path948" d="m31.910152 58.699129c-0.998742 0.183915-2.470399 0.455942-3.270348 0.604496-0.79994 0.148569-2.419024 0.3963-3.597955 0.550538-1.178947 0.154214-2.521791 0.388673-2.984113 0.521005-0.462315 0.132324-1.153364 0.321348-1.535649 0.420054-0.382285 0.0987-1.139245 0.395676-1.68214 0.659933-0.934759 0.455015-1.057321 0.462834-2.311916 0.14749-0.728665-0.183148-1.508586-0.443814-1.733188-0.579216-0.559692-0.337482-1.008184-1.242108-1.220433-2.461677-0.09793-0.562635-0.249489-1.044809-0.336794-1.071504-0.173306-0.05301-0.207652-2.058453-0.07419-4.334256 0.04653-0.794191 0.06324-1.847387 0.03702-2.340434-0.02622-0.493071-0.02087-1.0647 0.01167-1.270305 0.164136-1.034951 0.02199-4.155921-0.282308-6.198097-0.452833-3.03915-1.905055-7.699279-2.405681-7.719778-0.23342-0.0096-0.440696-0.224825-0.5918242-0.614674-0.2742898-0.707582-0.064519-1.019912 0.2998332-0.446412 0.139296 0.219245 0.204463 0.441472 0.14482 0.49383-0.05964 0.05237 7.12e-4 0.128591 0.134203 0.169389 0.133452 0.04077-0.07523-0.691785-0.463737-1.627959-0.4245907-1.023158-0.8259119-1.716662-1.0060455-1.738536-0.1648313-0.020067-0.3400241-0.249953-0.3893208-0.510979-0.0892233-0.472476-0.0883679-0.47254 0.190511-0.01559 0.4764335 0.78056 0.3813579 0.303495-0.3783117-1.898259-0.4021607-1.165604-0.6581102-2.212875-0.5687669-2.327258 0.1970429-0.252256 0.0931329-2.349588-0.1436528-2.899647-0.093509-0.217222-0.085554-0.369118 0.017669-0.337562 0.1930774 0.059 0.04709-1.117994-0.2206839-1.779894-0.1246808-0.3081-0.1166059-0.332141 0.049489-0.147346 0.1465549 0.163072 0.2003848 0.125264 0.2057733-0.144436 0.029421-1.46814 0.8081269-4.256802 1.5473376-5.541288 0.5176633-0.899523 0.9321847-1.292932 2.3356377-2.216709 0.913779-0.60145 2.963166-1.197368 3.526025-1.025282 0.159091 0.04866 0.247882-0.04073 0.234267-0.235816-0.02399-0.343733 1.274623-1.00574 1.604533-0.817965 0.104126 0.05922 0.370189-0.07987 0.591273-0.309179 0.221075-0.229306 0.71118-0.629104 1.089132-0.88843 0.377936-0.259326 0.715202-0.563228 0.749476-0.675339 0.0343-0.11211 0.282653-0.3570353 0.551946-0.5442796s0.451161-0.4127611 0.404175-0.5011554c-0.04701-0.088366 0.02135-0.077143 0.152559 0.025216 0.130925 0.1022431 0.441464 0.08734 0.690082-0.033147 0.537291-0.2603459 2.676437-0.4533002 4.023685-0.3629432 0.528121 0.035417 1.9723 0.3597692 3.209299 0.720772 3.436194 1.0028422 6.081258 2.5424282 10.383519 6.0439442 1.197079 0.974277 2.226658 1.744756 2.287955 1.712161 0.06124-0.03254-0.122083-0.266471-0.407517-0.519734-0.334652-0.29694-0.372164-0.371474-0.105613-0.209891 0.524579 0.318038 1.091195 0.990747 0.943616 1.120321-0.06196 0.05437 0.204167 0.412426 0.591329 0.795686 1.147104 1.135575 2.661534 2.739125 4.690134 4.966159 1.049142 1.151749 2.242552 2.440531 2.652044 2.863942 0.409492 0.423427 0.769464 0.832551 0.799932 0.909174 0.03046 0.07667 0.316887 0.51134 0.636492 0.966043s0.521573 0.878986 0.448835 0.942841c-0.07275 0.06388 0.159515 0.571222 0.51612 1.127444 0.479024 0.747158 0.59607 1.096168 0.448108 1.336152-0.11017 0.178647-0.141502 0.465273-0.0698 0.636892 0.07179 0.171643 0.05293 0.741225-0.04189 1.265748-0.09481 0.524523-0.11631 1.017538-0.04773 1.095608 0.06852 0.07803 0.02039 0.523764-0.107004 0.990451l-0.231573 0.848542 0.328751-0.683414c0.576978-1.199455 0.391064-0.159731-0.382117 2.136963-0.414793 1.232177-0.81641 2.783488-0.901883 3.484171-0.115823 0.949126-0.243142 1.372937-0.512291 1.70519-0.196971 0.243189-0.458613 0.70476-0.581439 1.025724-0.122786 0.320973-0.29981 0.603657-0.39331 0.628218-0.09352 0.02454-0.142742 0.148473-0.109443 0.275345 0.03334 0.126887-0.129414 0.303375-0.36169 0.392191-0.398987 0.152599-0.402017 0.160746-0.05485 0.147842 0.342118-0.01279 0.327975 0.02247-0.204918 0.510116-0.314824 0.288089-0.618871 0.675715-0.675643 0.861421-0.05684 0.18569-0.182396 0.35842-0.279143 0.383836-0.09675 0.02534-0.488442 0.528201-0.870423 1.117307-0.381974 0.589114-0.772598 1.047239-0.868057 1.018049-0.09545-0.02918-0.136721 0.01631-0.09167 0.100936 0.04501 0.08472-0.0399 0.233972-0.18868 0.331774-0.14881 0.09779-0.259667 0.333892-0.24634 0.524682 0.01327 0.190783-0.01367 0.275641-0.05988 0.188577-0.11336-0.213201-1.342299 0.789986-1.276165 1.041738 0.0287 0.109155-0.03078 0.173098-0.132052 0.142134-0.101304-0.03094-0.174434 0.101008-0.162553 0.29327 0.01839 0.297763-0.0099 0.302592-0.191455 0.03262-0.173593-0.25822-0.224433-0.273762-0.27417-0.08382-0.175416 0.669967-0.334283 0.871207-0.552961 0.700388-0.184698-0.144261-0.243949-0.0606-0.290895 0.410531-0.04205 0.422196-0.1071 0.536859-0.227016 0.400282-0.146986-0.167414-0.310059 0.0016-0.374298 0.38701-0.563114 0.2835-0.363897-0.09428-0.08674-0.349242 0.309787-0.28346 0.498947-0.535044 0.420349-0.559069-6.066396 4.540373-7.782506 5.482023-10.389323 5.846376zm-17.228781 1.525215c-0.322099-0.634757-0.445277-0.656559-0.327248-0.05788 0.04717 0.239248 0.201033 0.470213 0.341911 0.513282 0.181237 0.05541 0.176952-0.07771-0.01463-0.455343zm9.330588-2.771864c0.03014-0.09858-0.02582-0.203894-0.124425-0.234027-0.09858-0.03014-0.203887 0.02582-0.234028 0.124441-0.03006 0.09857 0.02582 0.203878 0.124433 0.234019 0.09858 0.03014 0.203887-0.02582 0.23402-0.124433zm1.809355-0.494838c0.290983-0.101183 0.355454-0.195899 0.230334-0.338409-0.18027-0.205325-0.791993-0.04261-0.876268 0.233004-0.06924 0.226385 0.180749 0.267175 0.645934 0.105405zm1.630853-0.302703c0.246131-0.09041 0.341559-0.212841 0.248514-0.318822-0.201504-0.229518-1.020041-0.0586-0.952404 0.198858 0.07076 0.269421 0.225305 0.295756 0.70389 0.119964zm1.655788-0.486268c0.04517-0.147858-0.03878-0.305829-0.186641-0.351033-0.279879-0.08557-0.420397 0.103263-0.277216 0.372532 0.143181 0.269277 0.378288 0.25838 0.463857-0.02143zm0.659693-0.179925c0.07315 0.08324 0.161106 0.05932 0.195548-0.05333 0.08129-0.265847-0.372891-0.255877-0.515465 0.01135-0.05996 0.112361-0.04237 0.133731 0.03894 0.04749 0.08141-0.08627 0.207804-0.08872 0.280925-0.0056zm0.752586 0.04773c0.01143-0.03718-0.08661-0.221507-0.217757-0.409532-0.216111-0.309851-0.224386-0.305446-0.08836 0.04693 0.142861 0.370133 0.261018 0.510076 0.306117 0.362561zm-7.265738-3.607806c0.290959-0.175345 1.276325-0.455455 2.189697-0.622461 0.913373-0.166998 1.812378-0.367151 1.997796-0.444781s1.138861-0.329199 2.118767-0.559061c0.979897-0.229862 2.30257-0.66194 2.939277-0.960183 0.636716-0.298234 1.60072-0.608541 2.142224-0.689578 0.541512-0.08104 1.531899-0.370309 2.200843-0.642848 1.290892-0.525906 2.585022-0.68351 3.084401-0.375633 0.20894 0.128838 0.452113 0.04957 0.786925-0.256469 0.266502-0.24359 0.651354-0.531599 0.855233-0.639994 0.203878-0.108419 0.338904-0.256901 0.300049-0.329974-0.03886-0.07307-0.320724 0.02127-0.62637 0.209635-0.410172 0.252807-0.612012 0.27616-0.770591 0.08915-0.171131-0.201776-0.155717-0.284811 0.07571-0.407845 0.231405-0.12305 0.275321-0.104638 0.215679 0.09045-0.04125 0.134715 7.04e-4 0.204623 0.0936 0.15535 0.09267-0.04933 0.225081-0.266007 0.294245-0.481654 0.08499-0.265848 0.217542-0.346532 0.410731-0.250729 0.156748 0.07771 0.360603 0.07491 0.45304-0.0064 0.09902-0.08694 0.03941-0.138584-0.144996-0.125696-0.238536 0.01663-0.259731-0.04869-0.08902-0.274434 0.217782-0.288025 0.210714-0.290296-0.253311-0.08115-0.466832 0.210355-0.472668 0.207549-0.265767-0.128062 0.116366-0.188712 0.269524-0.27708 0.340383-0.19638 0.07084 0.0807 0.164256 0.03086 0.207549-0.110729 0.04325-0.141614 0.230405-0.320892 0.415776-0.398395 0.204078-0.08534 0.314552-0.0674 0.280022 0.04565-0.03134 0.102583-0.05429 0.348914-0.05085 0.547388 0.0048 0.292942-0.01375 0.300513-0.09963 0.04021-0.05812-0.176352-0.187441-0.277216-0.287249-0.224146-0.0998 0.05309-0.08575 0.207788 0.03126 0.343822 0.337929 0.393014 0.520389 0.378519 0.537643-0.04269 9e-3 -0.221723 0.179278-0.477369 0.393789-0.591401 0.347708-0.184882 0.340145-0.20048-0.09494-0.195851l-0.472748 0.0048 0.468119-0.389545c0.25746-0.214248 0.435635-0.45061 0.395948-0.525259-0.03965-0.07467-0.100936-0.04157-0.136089 0.07339-0.0351 0.115007-0.134491 0.187521-0.220748 0.161146-0.203119-0.06212 0.06196-0.935598 0.303183-0.998942 0.101216-0.02662 0.08727 0.08098-0.03102 0.239064-0.169628 0.226752-0.08653 0.226576 0.393694-7.04e-4 0.334788-0.158563 0.577889-0.34626 0.540217-0.417103-0.03766-0.07084-0.177719-0.03294-0.311242 0.08431-0.205278 0.180237-0.268854 0.144796-0.411931-0.229606-0.09306-0.243502-0.175576-0.356494-0.183379-0.251097-8e-3 0.105413-0.183012 0.33398-0.389353 0.507942-0.303407 0.255797-0.413282 0.259691-0.574427 0.02031-0.164968-0.244997-0.195428-0.233964-0.176896 0.06404 0.01423 0.228991-0.0335 0.296316-0.131229 0.185026-0.08449-0.0962-0.07579-0.274537 0.01927-0.39626 0.09506-0.121715 0.09473-0.24518-7.11e-4 -0.27437-0.09548-0.02918-0.145924-0.143605-0.112105-0.254246 0.04525-0.147978 0.10897-0.128942 0.240935 0.07219 0.09873 0.150232 0.263784 0.23354 0.366799 0.185098 0.102998-0.04837 0.09845-0.0048-0.01015 0.0966-0.108571 0.101544-0.109402 0.21153-0.0024 0.244421 0.258867 0.07915 0.778585-0.597165 0.654009-0.851076-0.123978-0.252703-0.585549-0.142645-0.515769 0.122954 0.02862 0.109099-0.03334 0.172251-0.137697 0.140343-0.104397-0.03198-0.1313-0.282668-0.0598-0.557222 0.07147-0.274562 0.135922-0.585588 0.143165-0.691161 0.0072-0.105573 0.03438-0.305159 0.0602-0.443511 0.02678-0.143173-0.08236-0.242518-0.253327-0.230581-0.165223 0.01151-0.276504-0.05708-0.247307-0.152639 0.02918-0.09542-0.09212-0.217926-0.269565-0.272172-0.177423-0.05429-0.386035-0.217933-0.463553-0.363737-0.244501-0.459836-0.77534-0.282524-0.803338 0.268286-0.01983 0.389601-0.07451 0.450034-0.269773 0.297571-0.138336-0.108075-0.164416-0.294357-0.05996-0.428136 0.101743-0.130253-0.104254-0.09683-0.457733 0.07419-0.652618 0.315815-0.775404 0.728393-0.137441 0.461627 0.413042-0.172691 0.410835-0.17696 0.398843 0.770638-8e-3 0.629864-0.03798 0.700388-0.195692 0.460324-0.102463-0.155933-0.163192-0.334132-0.134954-0.395996 0.17596-0.385604 0.17652-0.765874 7.11e-4 -0.719783-0.113368 0.02974-0.232692 0.320876-0.265183 0.646893-0.04093 0.410811-0.108683 0.536227-0.220764 0.40858-0.08894-0.101295-0.08898-0.27728-1.12e-4 -0.391071 0.08886-0.113792 0.05988-0.361747-0.06452-0.55105-0.197339-0.300306-0.264672-0.308421-0.528409-0.06372-0.16623 0.154286-0.750379 0.592464-1.298095 0.97371-0.547725 0.381262-1.330116 0.943737-1.738664 1.24995-0.408541 0.306214-0.779569 0.582254-0.824485 0.613435-0.04493 0.03118-0.115766-0.0072-0.15746-0.08584-0.04165-0.07835 0.161569-0.324977 0.451657-0.547956 0.608462-0.467679 0.7178-1.11107 0.239001-1.406267-0.266591-0.164352-0.320925-0.125592-0.318934 0.227344 0.0016 0.234003 0.07419 0.512194 0.162001 0.618223 0.09869 0.119196 0.03558 0.156005-0.165447 0.0964-0.178734-0.05317-0.299873-4.88e-4 -0.269093 0.116718 0.0307 0.117197-0.03806 0.184339-0.153007 0.149193-0.114935-0.0351-0.127351-0.168389-0.02758-0.296124 0.09978-0.127719 0.125008-0.296484 0.05604-0.37501-0.06892-0.07859-0.0339-0.291127 0.07787-0.472436 0.113584-0.184227 0.114951-0.356613 0.0032-0.390816-0.18637-0.05692-0.353328 0.164544-0.399075 0.529496-0.01079 0.08556-0.08675 0.07899-0.168869-0.01455-0.102135-0.116318-0.06148-0.24793 0.128719-0.416175 1.035462-0.916954 1.364157-1.243491 1.325302-1.316564-0.02438-0.04581-0.38043-0.01687-0.79125 0.06436-0.410819 0.08127-0.776291 0.09257-0.812164 0.0251-0.109314-0.205582-0.946295 0.02478-2.953397 0.812908-2.152585 0.845239-3.881487 1.88242-4.519026 2.71099-0.235011 0.305414-0.943697 1.113997-1.574872 1.796867-0.631175 0.682855-1.241244 1.422345-1.355707 1.643309-0.114448 0.220956-0.405911 0.779529-0.647645 1.241252-0.52976 1.011901-0.740578 2.405368-0.545758 3.61177 0.07771 0.481878 0.18362 0.88906 0.235331 0.904866 0.05181 0.01583 0.332085-0.114711 0.62306-0.290056zm10.33698-8.165383c0.800668-0.983736 0.797318-0.980698 0.88942-0.807472 0.0899 0.169085-1.040036 1.495763-1.341381 1.574912-0.120795 0.03174 0.08262-0.313608 0.451961-0.76744zm6.495596 2.286044c0.08748-0.266734 0.502961-0.53231 0.549099-0.350721 0.0255 0.100136-0.09804 0.251648-0.274417 0.336706-0.176368 0.08507-0.299986 0.09137-0.274682 0.01399zm0.575906-1.252509c0.03014-0.09857 0.140207-0.153118 0.244605-0.121195 0.10439 0.03198 0.115303 0.123442 0.02422 0.203383-0.09104 0.07996-0.201137 0.134499-0.244597 0.121211-0.04349-0.01335-0.05437-0.104821-0.02423-0.203399zm-6.571491-3.184993c0.09104-0.07996 0.201136-0.134483 0.244605-0.121187 0.04349 0.01335 0.05436 0.104813 0.02422 0.203383-0.03014 0.09858-0.140207 0.153118-0.244597 0.121203-0.104397-0.03198-0.115302-0.123442-0.02422-0.203399zm5.824901 1.780853c-0.118652-0.140759-0.135066-0.231269-0.03646-0.201136 0.09857 0.03006 0.276305 0.169964 0.39495 0.31073 0.118652 0.140759 0.135074 0.231278 0.03646 0.201137-0.09857-0.03014-0.276305-0.169964-0.39495-0.310731zm2.389259 0.298075c0.0096-0.234883 0.07164-0.455879 0.137921-0.491104 0.151344-0.08047 0.314968 0.489121 0.226976 0.79009-0.110522 0.378432-0.383501 0.154838-0.364913-0.298994zm-1.11841-0.314521c-0.03278-0.125-0.0095-0.253966 0.05189-0.286578 0.06132-0.0327 0.121243 0.07971 0.133108 0.249714 0.02462 0.352872-0.09566 0.376833-0.184947 0.03686zm-0.294589-0.903298c0.538642-0.409988 0.823957-0.363681 0.750108 0.121747-0.02958 0.194772-0.127039 0.24159-0.270052 0.129869-0.123034-0.09613-0.393662-0.10658-0.601355-0.02326-0.29279 0.117413-0.265543 0.06612 0.121283-0.228311zm-6.872364-2.230736c0.02638-0.0865 0.216103-0.226951 0.421468-0.312089 0.338577-0.140391 0.341855-0.123346 0.03518 0.182748-0.34973 0.349114-0.540393 0.403112-0.456694 0.129341zm4.829797 1.007872c-0.164927-0.335019-0.177383-0.591528-0.03478-0.716712 0.155102-0.136186 0.240752-0.123858 0.284036 0.04085 0.03406 0.129701-0.04445 0.206245-0.174497 0.170076-0.13294-0.03702-0.09654 0.147882 0.08308 0.422268 0.175737 0.268413 0.269909 0.514401 0.209275 0.546636-0.0606 0.0323-0.225824-0.176176-0.367103-0.46313zm-5.642905-1.553461c0.01183-0.03878 0.161394-0.0802 0.332325-0.09213 0.178215-0.01247 0.240959 0.03957 0.147107 0.122003-0.157308 0.138128-0.523811 0.115295-0.479432-0.0299zm8.239409 1.896132c0.06052-0.197803 0.678513-0.444486 0.754689-0.301217 0.12584 0.236666-0.0086 0.478664-0.166119 0.299178-0.07996-0.09103-0.171483-0.08012-0.203399 0.02423-0.0319 0.10439-0.138688 0.165151-0.237257 0.135018-0.09858-0.03014-0.165135-0.100864-0.147914-0.15722zm-1.031969-0.926684c-0.01303-0.186146 0.07363-0.340871 0.19251-0.343853 0.142925-0.0032 0.219516-0.199865 0.226144-0.579544 0.01151-0.665474 0.297715-0.703937 0.309548-0.04157 4e-3 0.243861 0.01031 0.510268 0.01335 0.592016 0.01359 0.373955 0.0064 0.452265-0.05189 0.572093-0.130037 0.266902 0.296372 0.2209 0.581567-0.06276 0.243157-0.241839 0.241878-0.292503-0.0072-0.275138-0.167765 0.01175-0.277711-0.06796-0.244356-0.177103 0.03334-0.109123 0.262289-0.136753 0.508733-0.0614 0.569222 0.174033 0.457645 0.527113-0.243062 0.76908-0.527777 0.182268-0.991595-0.0092-0.681599-0.281414 0.08475-0.07443 0.03086-0.172994-0.119668-0.219029-0.169741-0.05189-0.265816 0.03046-0.252824 0.216671 0.01159 0.165223-0.03054 0.284651-0.09344 0.265415-0.06292-0.01927-0.125048-0.187281-0.13804-0.373419zm0.863708-0.786428c-0.08318-0.316679 0.07651-0.370965 0.309843-0.105262 0.124968 0.14235 0.115063 0.240312-0.02806 0.277936-0.121611 0.03198-0.248403-0.04565-0.281725-0.172666zm-16.417216 12.236862c0.05365 0.01647 0.06628-0.02894 0.0279-0.100952-0.07835-0.147418-1.511057-0.04133-1.558986 0.115431-0.01703 0.05556 0.298514 0.06844 0.701179 0.02838 0.402664-0.04006 0.776035-0.05932 0.829713-0.04293zm0.93172-0.348035c0.03206-0.10491-0.08714-0.122299-0.281421-0.04109-0.18537 0.07747-0.345581 0.168845-0.356014 0.202975-0.01039 0.03414 0.116214 0.05253 0.281405 0.04109 0.165223-0.01159 0.325426-0.102871 0.35603-0.202967zm1.623281-0.327848c0.440912-0.127615 1.207594-0.261698 1.703727-0.297963 0.496141-0.0363 1.124741-0.128007 1.396897-0.203886 0.787995-0.219701 0.26412-0.575427-0.608086-0.412914-1.248743 0.23266-3.762931 1.000772-3.521716 1.075925 0.125128 0.03894 0.588266-0.0335 1.029178-0.161162zm5.513508-1.126013c0.740122-0.181301 1.696115-0.394134 2.124427-0.472956 0.895071-0.164735 0.939059-0.21675 0.555831-0.657374-0.229223-0.263561-0.443639-0.302992-1.15968-0.213265-1.253228 0.157028-3.544853 1.465765-2.907698 1.660562 0.02271 0.0072 0.64699-0.135674 1.38712-0.316967zm5.027767-1.475815c1.632452-0.652194 2.068279-0.905121 1.735154-1.006969-0.599235-0.183203-1.569755-0.05596-2.468696 0.323595-0.777602 0.328343-0.996543 0.512874-1.035503 0.87275-0.05748 0.531638-0.02758 0.52844 1.769045-0.189376zm-19.748484-12.3277c-0.17421-1.330092-0.135914-6.038774 0.05876-7.228723 0.163552-0.999501-0.01895-1.36032-0.504152-0.996983-0.181764 0.136098-0.428 0.171284-0.547172 0.07819-0.119197-0.0931-0.359284-0.04525-0.533525 0.106284-0.17425 0.151544-0.442879 0.237002-0.596941 0.189904-0.253368-0.07747-0.245005-0.104318 0.08746-0.281238 0.202256-0.107539 0.397971-0.294381 0.4349-0.4152 0.03694-0.120811 0.456854-0.412546 0.933135-0.6483 0.726707-0.3597 1.006601-0.390273 1.740463-0.190064 0.606463 0.165415 1.070201 0.162153 1.512976-0.01071 0.351177-0.137089 1.236215-0.458933 1.966759-0.715186 1.064684-0.373467 1.329811-0.545198 1.336063-0.865394 0.02263-1.156154 0.04078-1.18556 0.320293-0.517304 0.192318 0.459788 0.363154 0.631143 0.574819 0.576554 1.034855-0.266902 3.733358-1.395706 4.335351-1.813504 0.63981-0.444039 0.734814-0.597669 0.896519-1.4496 0.171691-0.904554 0.1888-0.928123 0.336978-0.464257 0.209907 0.65719 0.680176 0.763147 1.827984 0.41189 0.528592-0.161753 1.018249-0.279215 1.088125-0.26101 0.06987 0.01831 0.447036-0.118285 0.838139-0.303295 0.539562-0.255254 0.7944-0.528633 1.056466-1.133329 0.523811-1.208664 0.257228-1.526271-1.807221-2.153121-0.902187-0.273602-2.084396-0.598891-2.627324-0.722221-0.892369-0.202687-0.961957-0.190487-0.724771 0.127055 0.253103 0.338825 0.262577 0.435923 0.107723 1.103643-0.03902 0.168421 0.06188 0.6182 0.224402 0.999518 0.16248 0.38131 0.216974 0.669311 0.121107 0.639993-0.187665-0.0574-0.833215-1.364445-1.190268-2.409965l-0.219717-0.6434-1.579773 0.119964c-0.868872 0.06596-1.799833 0.118589-2.06879 0.116886-0.26895-0.0016-0.857408 0.139759-1.30769 0.314336-0.743752 0.288377-0.828282 0.381206-0.923622 1.014324-0.113 0.750364 0.154079 2.26744 0.54587 3.100647 0.133187 0.283244 0.162073 0.490505 0.0642 0.46058-0.09787-0.0299-0.398195-0.703969-0.667408-1.497897-0.461003-1.359609-0.553425-1.797731-0.562963-2.669033-0.0032-0.338154-0.0706-0.347252-1.003139-0.136418-1.819309 0.411339-2.386628 0.631471-2.744625 1.064972-0.524091 0.634637-0.763235 1.662465-0.66788 2.870649 0.117653 1.490686-0.117461 1.647115-0.467919 0.311331-0.174145-0.663723-0.421708-1.157833-0.608789-1.215029-0.395749-0.120987-1.176102 0.329063-1.09644 0.632343 0.0327 0.124585-0.02334 0.201184-0.124697 0.170212-0.101304-0.03094-0.17365 0.0945-0.160778 0.278823 0.01703 0.244212-0.04197 0.284155-0.21719 0.147234-0.206757-0.161497-0.257972-0.05109-0.364345 0.785493-0.161049 1.266668-0.114983 1.945573 0.216591 3.191702 0.427113 1.605205 0.116846 1.299463-0.379231-0.373691-0.500746-1.688968-0.769432-1.670939-0.959839 0.06436-0.178039 1.622682 0.29662 3.484204 1.68521 6.609084 0.534645 1.203164 2.333958 4.643259 2.451883 4.687743 0.01879 0.0072-0.02894-0.469406-0.106172-1.058903zm18.046933 4.75227c0.03126-0.102183 0.295212-0.369038 0.586603-0.593015 0.291391-0.22397 0.44367-0.433557 0.338377-0.465745-0.105285-0.03214-0.211433 0.0072-0.23589 0.08691-0.02446 0.07999-0.240855 0.258948-0.480879 0.397668-0.431054 0.249129-0.786508 0.896958-0.442599 0.806623 0.09768-0.02574 0.203143-0.130253 0.234388-0.232436zm8.77187 2.301547c0.239968-0.152464 0.414041-0.31907 0.386826-0.370261-0.02718-0.05125-0.285746 0.05452-0.574523 0.234955-0.288769 0.180389-0.462842 0.347011-0.386826 0.370252 0.07603 0.02327 0.334547-0.08249 0.574523-0.234946zm-9.545507-3.010241c-0.0702-0.167957 0.05876-0.358788 0.377584-0.558493 0.528201-0.330886 0.591928-0.407693 0.387186-0.466616-0.115047-0.03294-1.29094 0.857072-1.338726 1.013388-9e-3 0.0295 0.140415 0.101672 0.332101 0.160275 0.239736 0.07331 0.31524 0.02694 0.241855-0.148562zm0.955257-0.277464c0.362298-0.301496 0.380743-0.350873 0.124321-0.33298-0.165567 0.01151-0.333348 0.126639-0.372819 0.255741-0.0395 0.129102-0.185018 0.244589-0.323435 0.256637-0.160993 0.01399-0.179933 0.04941-0.05253 0.09826 0.109498 0.04197 0.390528-0.08296 0.624491-0.277656zm-26.07015-8.074337c-0.06284-0.234795-0.188017-0.449443-0.27816-0.477001-0.090151-0.02758-0.06732 0.155813 0.05093 0.407533 0.118141 0.251696 0.243317 0.466336 0.278159 0.476993 0.03486 0.01063 0.01191-0.17273-0.05093-0.407525zm33.994575 10.11078c0.01327-0.04349-0.04125-0.153542-0.121203-0.244597-0.07996-0.09104-0.171476-0.08013-0.203383 0.02422-0.03198 0.10439 0.02262 0.214464 0.121195 0.244597 0.09858 0.03014 0.190103 0.01927 0.203391-0.02423zm-0.605808-0.582582c0.05253-0.171867-0.03518-0.25515-0.252759-0.23996-0.248211 0.01735-0.275673-0.03006-0.107676-0.186049 0.124057-0.115135 0.138616-0.168302 0.03246-0.118125-0.106269 0.05013-0.219413-0.166519-0.251449-0.481487-0.102199-1.005369-0.07187-1.433426 0.09803-1.381499 0.09097 0.02782 0.165175 0.309332 0.164911 0.625603l-4.63e-4 0.575035 0.536043-0.22022c0.294821-0.121107 0.49112-0.297875 0.436227-0.392815-0.05492-0.09492-0.166638-0.0828-0.248322 0.02702-0.0817 0.109763-0.267526 0.163193-0.412986 0.118709-0.145476-0.04445-0.195124-0.14175-0.110362-0.216175 0.08475-0.07443 0.09049-0.207788 0.01279-0.296356-0.07779-0.08858-0.0598-0.265535 0.04005-0.393262 0.09979-0.127727 0.09209-0.259539-0.01703-0.292894-0.10913-0.03334-0.223066 0.01999-0.253199 0.118565-0.03014 0.09858-0.13545 0.154574-0.234027 0.124433-0.09857-0.03014-0.151184-0.112369-0.116902-0.182724 0.171683-0.352457 0.192774-0.773981 0.04101-0.820383-0.09738-0.02974-0.172331 0.325993-0.174505 0.828561-0.0024 0.484397-0.04101 0.86936-0.0865 0.855465-0.04549-0.01391-0.05045 0.0948-0.01119 0.241551 0.07971 0.297699 0.06948 0.693679-0.02966 1.144545-0.0363 0.165263 0.04069 0.293046 0.171139 0.283948 0.130461-9e-3 0.264096 0.08592 0.297003 0.21105 0.08708 0.331517 0.384021 0.373499 0.477561 0.06748zm0.590961-0.0099c0.01335-0.04349-0.04125-0.153542-0.121195-0.244596-0.07996-0.09104-0.171483-0.08013-0.203391 0.02422-0.03198 0.104398 0.02263 0.214464 0.121203 0.244605 0.09857 0.03014 0.190096 0.01927 0.203383-0.02423zm1.219866 0.04317c0.45244-0.229318 0.463385-0.249586 0.09396-0.173826-0.815067 0.167142-1.081673 0.281813-0.836757 0.359868 0.126928 0.04029 0.461139-0.04325 0.742809-0.186042zm-30.986741-10.13747c0.107347-0.137449-0.0048-0.901628-0.26448-1.798354-0.384644-1.32942-0.474715-2.058205-0.439921-3.559372 0.0032-0.133779-0.07499-0.26791-0.173594-0.298051-0.09857-0.03006-0.169788 0.08039-0.158251 0.245596 0.01215 0.175001-0.08153 0.271532-0.223898 0.231477-0.156661-0.04421-0.148298 0.03534 0.02334 0.220492 0.252512 0.272499 0.24614 0.297059-0.109195 0.420637-0.317558 0.110418-0.373539 0.230677-0.35308 0.75855 0.02646 0.683774 1.13476 3.902562 1.368292 3.973965 0.07931 0.02423 0.228183-0.06348 0.33087-0.194932zm28.019784 7.41785c-0.01943-0.385523-0.110457-0.6812-0.202359-0.657063-0.0919 0.02414-0.119476 0.362666-0.06124 0.752282 0.133835 0.896063 0.310315 0.83232 0.263648-0.09522zm-33.6622177-10.270935c-0.1232977-0.229814-0.1501766-0.215519-0.1310048 0.06964 0.013352 0.197347 0.083067 0.327448 0.1551255 0.289137 0.072114-0.0383 0.061161-0.199762-0.024145-0.358789zm33.1202507 10.17817c-0.09899-0.502002-0.152799-0.530208-0.402281-0.21081-0.105501 0.135018-0.103614 0.222354 4e-3 0.194044 0.107764-0.0283 0.221516 0.04605 0.252824 0.165111 0.104981 0.399715 0.228527 0.273603 0.145316-0.148345zm3.708285 0.387658c-0.0383-0.07211-0.199761-0.06116-0.358788 0.02414-0.229814 0.123298-0.215519 0.150177 0.06964 0.131005 0.197346-0.01327 0.327448-0.08308 0.289136-0.155125zm-2.088066-1.120457c-0.123298-0.229806-0.150177-0.215519-0.131005 0.06964 0.01335 0.197346 0.08308 0.32744 0.155125 0.289136 0.07212-0.0383 0.06116-0.199761-0.02414-0.358796zm2.775677-0.01159c-0.106316-0.08621-0.347371-0.16316-0.535604-0.171163-0.18828-8e-3 -0.101279 0.0626 0.193326 0.156717 0.294693 0.0938 0.448659 0.100504 0.342326 0.01431zm0.921567 0.01831c0.03022-0.09858-0.02111-0.202432-0.11384-0.230782-0.09276-0.0283-0.243165 0.01391-0.334227 0.0938-0.09104 0.07996-0.03981 0.183803 0.113855 0.230789 0.153679 0.04693 0.304071 0.0048 0.334212-0.0938zm-38.567839-14.234174c0.0139911-0.045811-0.1094426-0.218949-0.2743299-0.38474-0.1806772-0.181653-0.3207483-0.232924-0.3525121-0.12903-0.028942 0.09482 0.077151 0.252424 0.2358822 0.35025 0.1587152 0.09786 0.3058938 0.193373 0.3270483 0.212345 0.021187 0.01895 0.049888-0.0032 0.06388-0.04877zm43.019988 12.492372c0.02518-0.08215-0.07179-0.185267-0.215295-0.229151-0.143525-0.04381-0.23996 1.2e-4 -0.214312 0.0978 0.02566 0.09767 0.122538 0.200785 0.215295 0.229143 0.09275 0.0283 0.189192-0.01567 0.214312-0.09779zm-38.032243-12.954575c-0.04133-0.07779-0.193981-0.131388-0.339193-0.119188-0.160474 0.01351-0.13098 0.06892 0.07515 0.141382 0.186553 0.06556 0.305358 0.05564 0.264024-0.02215zm26.921554 3.743607c0.912868-3.00765 1.170649-4.052411 1.011358-4.103346-0.153391-0.04909-0.13605-0.08974 0.06148-0.144133 0.40284-0.110921-2.712422-2.158006-5.313682-3.491703-0.508925-0.260938-0.548156-0.250936-0.474795 0.121123 0.144764 0.734134-0.185594 1.887682-0.56413 1.969734-0.304718 0.06612-0.311426 0.121219-0.06308 0.519006 0.22321 0.357597 1.094792 2.367105 2.826021 6.515607 0.05157 0.123554 0.305982 0.671733 0.565393 1.218194 0.259411 0.546446 0.449059 1.067435 0.421453 1.157737-0.02766 0.09032 0.02966 0.188633 0.127375 0.218494 0.11224 0.03438 0.628249-1.4301 1.402653-3.980721zm-32.2081813-5.829434c-0.03078-0.11719-0.1366252-0.237745-0.2351946-0.267886-0.098577-0.03006-0.1540382 0.04109-0.1232578 0.158299 0.030781 0.11719 0.1366333 0.237753 0.2352027 0.267894 0.098577 0.03006 0.1540382-0.04109 0.1232497-0.158307zm0.2336437-2.366746c0.013351-0.04349-0.041254-0.15355-0.1211951-0.244604-0.079957-0.09104-0.1714831-0.08013-0.2033908 0.02422-0.03198 0.10439 0.022626 0.214456 0.121195 0.244597 0.098569 0.03014 0.1901033 0.01927 0.2033909-0.02423zm42.7626796 11.833687c-0.175528-0.330119-0.202511-0.31325-0.285339 0.178414-0.05037 0.298651-0.09581 0.585788-0.101088 0.638075-0.0056 0.05229 0.123114-0.02798 0.285347-0.178423 0.225785-0.209339 0.24949-0.358964 0.10108-0.638066zm-38.398771-12.645899c0.01183-0.03877-0.08895-0.156732-0.223985-0.262209-0.140775-0.110003-0.221915-0.10192-0.190184 0.01887 0.05317 0.202487 0.369782 0.388497 0.414169 0.243333zm18.264811 4.681236c0.09104-0.07996 0.0351-0.185259-0.124425-0.234028-0.159499-0.04877-0.264816 0.0072-0.234035 0.124433 0.03078 0.117198 0.08678 0.222515 0.124441 0.234028 0.03766 0.01151 0.142957-0.04445 0.234019-0.124433zm-17.148551-6.409315c0.02518-0.08221-0.05309-0.226592-0.17369-0.320844-0.153606-0.119996-0.223962-0.0602-0.234563 0.199082-0.01431 0.348834 0.309332 0.445341 0.408229 0.12185zm28.956406 8.615602c0.322347-0.264944 0.44307-0.260771 0.847861 0.02934 0.259588 0.186042 0.69061 0.344302 0.957816 0.351721 0.549923 0.01519 0.671174 0.149945-1.097087-1.219274-1.650064-1.277733-1.586737-1.26036-1.842822-0.505639-0.38426 1.132569 0.34295 1.994222 1.134232 1.343867zm-31.279667-9.990848c0.01039-0.034-0.115599-0.270957-0.279974-0.52655l-0.298883-0.464719 0.218134 0.507652c0.205006 0.477058 0.316871 0.62705 0.360723 0.483617zm3.403799 0.814291c-0.02774-0.39762 0.145763-0.327047 0.485084 0.197266l0.276672 0.427553-0.220676-0.51305c-0.169173-0.393327-0.156421-0.547222 0.05461-0.659439 0.211042-0.112215 0.259947-0.09619 0.209587 0.0685-0.03622 0.118294 0.0072 0.237424 0.0967 0.264737 0.08934 0.02734 0.168797-0.105295 0.176552-0.294693 8e-3 -0.189398 0.24482-0.488894 0.526833-0.665556 0.43215-0.270723 0.528521-0.271162 0.613171-0.0028 0.07491 0.237445 0.102887 0.201142 0.110034-0.142817 0.0072-0.334928 0.0678-0.419824 0.222027-0.310058 0.11683 0.08312 0.473468-0.01785 0.792537-0.224454 0.319069-0.206589 0.693943-0.340821 0.833039-0.298292 0.139104 0.0425 0.279335-0.0091 0.311634-0.114724 0.0323-0.105636 0.235682-0.121878 0.451985-0.03613 0.718072 0.284791 0.852371 0.256889 0.993697-0.205385 0.07715-0.252257 0.200929-0.389499 0.275121-0.305 0.07419 0.08453 0.233564 0.0107 0.354176-0.164117 0.133907-0.19403 0.309227-0.247511 0.450282-0.137334 0.171467 0.133927 0.225017 0.08457 0.207788-0.191452-0.02047-0.327937 0.0032-0.33189 0.203982-0.03344 0.202616 0.301819 0.243094 0.286448 0.374131-0.142151 0.08081-0.264327 0.202775-0.41699 0.271036-0.339242 0.149129 0.169862 0.767576-0.493825 0.917681-0.984815 0.05884-0.192515 0.03302-0.372655-0.05748-0.400316-0.409124-0.125087-2.335773 0.34675-2.499357 0.61209-0.100232 0.162609-0.353783 0.288617-0.56341 0.280024-0.209627-0.0086-0.393102 0.09782-0.407709 0.236446-0.0383 0.363652-0.517607 0.983817-0.713939 0.923792-0.09193-0.02812-0.193269 0.03428-0.225185 0.138701-0.03198 0.104396 0.01847 0.16972 0.111961 0.145154 0.09349-0.0245 0.264792 0.06418 0.38067 0.197218 0.134235 0.154115-0.08159 0.112281-0.59499-0.115319-0.747117-0.331258-0.819296-0.328006-0.993681 0.04476-0.120595 0.25781-0.297115 0.358991-0.492159 0.282121-0.16727-0.06588-0.283093-0.03974-0.257373 0.05808 0.02574 0.09788-0.39694 0.333519-0.939212 0.523646-0.542279 0.190127-0.982823 0.443114-0.97897 0.562201 4e-3 0.131463-0.149625 0.133856-0.391703 0.0064-0.315728-0.166595-0.450922-0.123783-0.649596 0.205705-0.269341 0.446669-0.201656 1.251589 0.113344 1.347896 0.105653 0.0323 0.18266-0.07643 0.171124-0.241662zm-1.554949-0.451398c0.01143-0.03718-0.08661-0.221507-0.217758-0.409538-0.216103-0.309845-0.224377-0.305446-0.08836 0.04696 0.142854 0.370126 0.261011 0.510067 0.30611 0.36256zm-1.154971-2.042937c0.330375-0.360974 0.3284-0.367831-0.03478-0.12015-0.211801 0.144474-0.409148 0.341367-0.438545 0.437532-0.06964 0.227713 0.04429 0.151346 0.473259-0.317396zm34.436727 9.849328c0.01399-0.04581-0.12911-0.226728-0.318038-0.402016-0.329879-0.306054-0.333085-0.303416-0.08082 0.06636 0.276105 0.404759 0.356949 0.472787 0.398875 0.335626zm-4.748449-4.981253c0.01431-0.04677-0.177704-0.284107-0.426689-0.527441-0.567472-0.554648-0.654553-0.41572-0.09563 0.152639 0.469814 0.477753 0.487083 0.490137 0.522349 0.37481zm-16.272156-6.239265c0.07891-0.361448 0.185626-0.524538 0.275913-0.4217 0.08621 0.09821 0.209882-0.04129 0.29841-0.336586 0.106972-0.357156 0.08351-0.446159-0.08078-0.305134-0.127583 0.109545-0.307556 0.113073-0.399946 0.0078-0.313689-0.35729-0.783478 0.01813-0.794207 0.634693-0.01351 0.779125 0.07131 1.032686 0.341767 1.02058 0.126599-0.0057 0.288065-0.275526 0.358844-0.599694zm15.232296 5.153363c0.01183-0.03878-0.08895-0.156741-0.223986-0.262218-0.140774-0.11001-0.221915-0.101927-0.190183 0.01887 0.05317 0.20248 0.369781 0.388498 0.414169 0.243334zm-0.786557-0.632439c0.01183-0.03878-0.08893-0.156732-0.223969-0.262209-0.140783-0.110002-0.221924-0.101919-0.190192 0.01887 0.05317 0.202479 0.369782 0.388497 0.414161 0.243341zm-12.395121-4.545454c-0.01207-0.138432-0.08354-0.05008-0.158883 0.196389-0.07539 0.246441-0.06548 0.359698 0.02191 0.251669 0.0874-0.108016 0.149041-0.30964 0.136993-0.448058zm1.13017 0.149539c-0.01207-0.138418-0.08354-0.05008-0.158899 0.196396-0.07531 0.246434-0.06548 0.359699 0.02191 0.251676 0.0874-0.108023 0.149041-0.309654 0.136993-0.448072zm0.569542 0.07987c8e-3 -0.188278-0.0626-0.101272-0.156708 0.193337-0.0938 0.294686-0.100512 0.448653-0.01431 0.342323 0.08622-0.106338 0.163168-0.347381 0.171155-0.535617zm-8.824277-3.3031584c-0.08439-0.1587264-0.718495 0.1376246-1.074174 0.5020264-0.232564 0.23826-0.132747 0.228726 0.412658-0.039383 0.395701-0.1945261 0.693376-0.4027099 0.661516-0.4626079zm15.436031 4.3096984c-0.12229-0.128863-0.407637-0.349386-0.634109-0.490056l-0.411755-0.255756 0.365528 0.406952c0.201057 0.223831 0.486395 0.444353 0.63411 0.490049 0.238752 0.07374 0.243853 0.05709 0.04629-0.151189zm-2.997201-1.788429c-0.03022-0.04795-0.280398-0.215323-0.555903-0.371896-0.365831-0.207879-0.443406-0.213425-0.287689-0.02054 0.19195 0.237778 0.97602 0.60252 0.843592 0.392432zm-1.239373-0.700456c-0.03078-0.117189-0.194092-0.249119-0.362905-0.293156-0.250201-0.06524-0.24937-0.03138 4e-3 0.183575 0.416592 0.352721 0.42282 0.354627 0.358461 0.109595zm-1.02602-0.63822c-0.106333-0.08621-0.34738-0.163161-0.53562-0.171159-0.188281-0.0078-0.101272 0.06262 0.193333 0.156708 0.294701 0.09381 0.448659 0.100507 0.342319 0.01431zm-1.199798-0.562789c-0.106333-0.08621-0.347372-0.1631679-0.53562-0.1711652-0.188281-0.00784-0.101272 0.062688 0.193333 0.1567212 0.294693 0.0938 0.448659 0.1005 0.342319 0.01431zm-14.787243 51.720028c-0.380671-0.165119-0.745743-0.398899-0.811269-0.51951-0.07387-0.135954 0.660165 0.02119 1.931358 0.413553 1.476222 0.455767 1.947363 0.657071 1.682219 0.719375-0.446924 0.105006-1.858236-0.203918-2.802308-0.613418zm-6.136208-28.967639c0.027662-0.09051 0.039575-0.318086 0.026463-0.505727-0.021506-0.30874 0.0032-0.299554 0.2543745 0.09666 0.1530068 0.240831 0.2169742 0.491608 0.1421657 0.557294-0.184227 0.161753-0.4855157 0.0562-0.4230114-0.14829zm42.708274-3.512897c-0.147098-0.203223-0.186809-0.344854-0.08823-0.314713 0.09859 0.03022 0.299586 0.221076 0.446685 0.424299 0.147098 0.203231 0.186801 0.344853 0.08822 0.314712-0.09857-0.03006-0.299578-0.221076-0.446677-0.424298zm-12.310479-13.862913c-0.118645-0.140757-0.135082-0.231276-0.03646-0.201136 0.09858 0.03017 0.276305 0.169968 0.394949 0.310731 0.118645 0.140762 0.135074 0.231275 0.03646 0.201135-0.09858-0.03017-0.276305-0.169961-0.394949-0.31073z" fill="#b44134" stroke-width=".187417"/>
 <path id="path946" d="m15.271293 63.457251c0.33434 0.0586 0.818 0.207349 1.074749 0.330806 0.256813 0.12325-0.01703 0.07515-0.607878-0.10654-0.591032-0.18218-0.801259-0.282676-0.466927-0.224066zm1.852791 0.378624c0.145204-0.01215 0.297835 0.04141 0.339193 0.119188 0.04133 0.07779-0.07747 0.08775-0.264024 0.02223-0.206157-0.07243-0.235643-0.127887-0.07515-0.141382zm-2.093047-1.078587c-0.06588-0.119484-0.37768-0.383245-0.69292-0.586132-0.46851-0.301528-0.212761-0.260307 1.400823 0.225793 1.847043 0.556406 1.9343 0.600786 1.357106 0.689266-0.453344 0.06948-0.495341 0.10072-0.158419 0.117701 0.308388 0.01559 0.398427 0.07579 0.275129 0.184051-0.221052 0.194085-2.012554-0.323802-2.181711-0.630719zm0.366264-0.845455c-0.532902-0.196036-1.020856-0.453272-1.084368-0.571581-0.07003-0.130565 0.66784 0.03973 1.877824 0.433452 1.096296 0.356726 1.824777 0.658262 1.61886 0.670143-0.567751 0.0327-1.340525-0.137697-2.412316-0.532014zm-0.594079-0.941451c-0.476865-0.291287-0.914843-1.111254-1.07674-2.015808-0.07739-0.432341-0.24857-0.988964-0.380423-1.236942-0.132699-0.24957-0.216782-1.43102-0.188352-2.646192 0.0283-1.207417 0.05884-2.758952 0.06804-3.447851 0.0091-0.68889 0.06628-1.278932 0.127015-1.311215 0.161521-0.08588 0.203151 0.888436 0.112912 2.642186-0.04373 0.848965-0.04077 1.643565 0.0064 1.765783 0.04725 0.122234 0.05557 0.698029 0.01863 1.279564-0.03702 0.581534-5.75e-4 1.200709 0.08089 1.375942 0.1193 0.256613 0.155589 0.1636 0.186506-0.477993 0.02366-0.490688 0.196563-1.107249 0.450266-1.605516l0.411922-0.808903-0.247922 1.19808c-0.216063 1.044121-0.21149 1.095888 0.03558 0.402824 0.272267-0.763835 0.987565-1.461888 1.376238-1.343059 0.09534 0.0291 0.301928-0.0315 0.459069-0.134747 0.227447-0.149457 0.166694-0.583493-0.297747-2.12816-0.70919-2.358615-1.004163-4.04572-0.927851-5.306839 0.03158-0.521661-0.02263-1.199654-0.120364-1.506643-0.09777-0.306989-0.190079-0.738315-0.205141-0.958496-0.02191-0.319757-0.138113-0.221051-0.577426 0.490369-0.571437 0.925356-0.55691 0.845503-0.645054 3.545429-0.0087 0.266822-0.0574 0.415016-0.108315 0.329351-0.05085-0.0857-0.07323-0.886246-0.04981-1.779047 0.02351-0.892801-0.01151-1.90443-0.07787-2.248068-0.06628-0.34363-0.203639-1.252925-0.305223-2.020653-0.240895-1.820404-1.934235-7.370592-3.0810513-10.098532-1.0817931-2.573302-1.8527196-4.783611-1.7760483-5.092103 0.030301-0.123482 0.027423-0.497572-0.0072-0.83152-0.034538-0.33394-0.039495-0.844352-0.010793-1.134264 0.028622-0.289904-0.0048-0.591968-0.074513-0.67127-0.069636-0.07931-0.0876-0.271667-0.039975-0.427496 0.04765-0.155821-0.019108-0.442151-0.1484257-0.636292-0.2151754-0.323139-0.2001849-0.331478 0.1771355-0.09862 1.0092152 0.622828 1.2613671 0.699403 0.7208383 0.218901-0.3829648-0.340448-0.4562463-0.497804-0.2562693-0.550339 0.222115-0.05836 0.2282231-0.114048 0.029501-0.269277-0.1378485-0.107548-0.2119614-0.321988-0.1647514-0.476418 0.067877-0.222051 0.146483-0.219796 0.3757934 0.01079 0.1594588 0.16033 0.3980673 0.317406 0.5302153 0.349058 0.1321401 0.03166 0.03222-0.127215-0.2221389-0.353048-0.2543211-0.225817-0.3909384-0.392711-0.3035699-0.370861 0.2030791 0.050767-0.0591624-0.584373-0.3704607-0.897383-0.1856981-0.186713-0.2657513-0.145027-0.3687659 0.191919-0.072354 0.236721-0.047969 0.455966 0.054286 0.487226 0.102247 0.03126 0.1457634 0.235059 0.096699 0.452889-0.049009 0.217829-0.013511 0.482237 0.07899 0.587579 0.1123447 0.127958 0.094972 0.210762-0.052367 0.249457-0.1212829 0.0319-0.2206678-0.141838-0.2208677-0.385995s-0.051088-0.571533-0.1131042-0.727506c-0.170108-0.427912 0.1152149-1.576327 0.3737547-1.504381 0.1193322 0.0335 0.1011198-0.06492-0.040694-0.218149-0.3730991-0.403168 0.5645536-3.434483 1.475695-4.770805 0.8351021-1.224761 2.9686911-2.748841 3.8695111-2.764077 0.515577-0.0087 0.560588 0.01098 0.237153 0.103688-0.963284 0.276177-1.461695 0.523518-1.534449 0.761486-0.04301 0.140707 0.03606 0.290763 0.175688 0.333455 0.139647 0.04272 0.259092 0.189455 0.265432 0.326131 0.0064 0.136682 0.09227 0.209167 0.190974 0.161113 0.09871-0.04803 0.140223-0.216386 0.09221-0.374064-0.04805-0.157678-0.01407-0.09311 0.07515 0.143468 0.08935 0.236589 0.322235 0.731326 0.517519 1.099426 0.195276 0.3681 0.273043 0.644196 0.172803 0.613544-0.100233-0.0307-0.315184-0.367697-0.477657-0.749015-0.162473-0.38131-0.329671-0.581213-0.371556-0.444233-0.04189 0.136994 0.09494 0.554855 0.304047 0.928587 0.209107 0.373727 0.33717 0.820236 0.284587 0.992239-0.09571 0.313049 0.408925 1.092154 0.991067 1.530092 0.293302 0.220644 0.299066 0.210282 0.108667-0.1953-0.33039-0.703881-0.145907-0.754945 0.333148-0.09221 0.655472 0.906808 1.740511 1.992063 2.101202 2.101625 0.532094 0.161937 0.441984-0.257684-0.26791-1.245521-0.649947-0.904418-1.506939-2.951918-1.284944-3.069956 0.05804-0.03088 0.172387 0.148963 0.253911 0.399707 0.263209 0.809694 2.624278 3.707606 2.435637 2.989446-0.0371-0.14123 0.03702-0.220803 0.170956-0.183531 0.133939 0.03726 0.09969-0.143149-0.07891-0.416096-0.173442-0.265016-0.250265-0.461955-0.170716-0.437634 0.07955 0.0243-0.02079-0.29299-0.223042-0.705128-0.49192-1.002572-0.70815-1.758023-0.597692-2.088149 0.05005-0.149334 0.144492 0.0094 0.209986 0.352786 0.106868 0.560181 0.754593 1.896532 0.947894 1.955623 0.04197 0.01279-0.0706-0.502369-0.250009-1.144897-0.403895-1.445958-0.356717-1.754705 0.07851-0.51397 0.177759 0.506742 0.361323 0.932992 0.407901 0.947239 0.04661 0.01423 0.05948-0.06996 0.0287-0.187201-0.0307-0.11719 0.01671-0.190879 0.105605-0.163705 0.08887 0.02718 0.225457 0.368934 0.303511 0.759462 0.0892 0.446221 0.246516 0.702762 0.423387 0.69041 0.199138-0.01391 0.09762-0.370661-0.347155-1.219922-0.590249-1.127027-0.801099-1.904488-0.316519-1.167056 0.196507 0.29904 0.221379 0.283114 0.23354-0.149575 0.01295-0.460426 0.01951-0.462579 0.132108-0.04378 0.230597 0.857187 0.748604 2.087854 0.855017 2.031281 0.05932-0.03158-0.04253-0.43988-0.226225-0.907415-0.351273-0.893745-0.328983-2.318344 0.03446-2.207212 0.110921 0.03393 0.366967 0.398813 0.568974 0.810895l0.367287 0.749216-0.111793-0.720103-0.111793-0.720106 0.269581 0.443425c0.264664 0.435337 0.270292 0.435273 0.3091-0.0035 0.02175-0.24579 0.118021-0.02607 0.213968 0.488342 0.269285 1.443591 0.428496 1.894816 0.697621 1.9771 0.210074 0.06428 0.224169 0.01903 0.09246-0.297571-0.115207-0.277632-0.09443-0.374882 0.08116-0.379823 0.161937-4e-3 0.173833-0.294948 0.03789-0.924941-0.111521-0.516924-0.10969-0.941535 4e-3 -0.971442 0.111257-0.02925 0.241399 0.145204 0.289192 0.387679 0.158252 0.802489 0.29662 0.34721 0.190375-0.627539-0.109666-1.009041-0.02614-1.667039 0.121187-0.954342 0.04749 0.23012 0.158508 0.528618 0.246548 0.663324 0.08804 0.134699 0.231589 0.787314 0.318997 1.450234 0.0874 0.662915 0.214952 1.175509 0.283452 1.139092 0.06852-0.03638 0.05165-0.458349-0.03742-0.93762-0.168197-0.904846-0.04429-3.223571 0.159827-2.991077 0.06396 0.07289 0.225473-0.320492 0.358868-0.874143 0.133547-0.553609 0.315599-0.984312 0.404759-0.957055 0.08914 0.02727 0.228655-0.168205 0.310019-0.434359 0.0828-0.270829 0.189783-0.389145 0.24291-0.268697 0.20439 0.46321 0.314384 2.90632 0.194124 4.312113-0.06964 0.814082-0.069 1.497757 0.0016 1.519311 0.07052 0.02151 0.209931-0.575204 0.309868-1.326116 0.259043-1.945844 0.567232-3.308945 0.7111-3.145083 0.06796 0.07737 0.08802 0.256939 0.04461 0.398991-0.04341 0.142045 0.0064 0.284373 0.110849 0.316284 0.104398 0.03195 0.164784-0.03718 0.134211-0.153605-0.03054-0.116396 0.01159-0.566522 0.09363-1.000271 0.107556-0.568669 0.176728-0.698225 0.247754-0.464542 0.05421 0.178256 0.05661 0.465618 0.0056 0.638589-0.05133 0.172915-0.02558 0.335148 0.05708 0.360408 0.08262 0.02529 0.09282 0.535482 0.02262 1.133823l-0.127551 1.087887 0.266527-0.898419c0.146627-0.494114 0.220932-1.01963 0.165175-1.167788-0.06348-0.168693 0.02367-0.435045 0.233204-0.712626l0.334548-0.443248-0.13653 0.497204c-0.07507 0.273464-0.05588 0.52186 0.04269 0.552 0.09859 0.03017 0.08506 0.400811-0.03006 0.823723l-0.209307 0.768925 0.323835-0.586929c0.178103-0.322808 0.303455-0.460865 0.278543-0.306793-0.25192 1.558456-0.115439 1.696365 0.308036 0.311248 0.214304-0.700959 0.395365-1.054035 0.487035-0.949646 0.08024 0.09142 0.04125 0.339653-0.08655 0.551668-0.127855 0.212023-0.161737 0.466036-0.07531 0.564475 0.100384 0.114334 0.223618-0.03492 0.341207-0.41325 0.101072-0.325775 0.307261-0.686848 0.457829-0.802493 0.212362-0.163111 0.219021-0.09515 0.02966 0.303038-0.134243 0.282326-0.244389 0.733698-0.244749 1.003062-5.36e-4 0.430894 0.02622 0.409637 0.222731-0.176881 0.122842-0.366648 0.303999-0.641982 0.402576-0.61185 0.09858 0.03017 0.129358 0.145785 0.06844 0.256996-0.240631 0.439083 0.441992 0.361144 0.785422-0.08968 0.347995-0.456828 0.354183-0.418187 0.126575 0.789496-0.255421 1.355224 0.03062 1.461263 0.443807 0.164577 0.125288-0.392857 0.394509-0.835148 0.598508-0.982818 0.335171-0.242637 0.326728-0.160305-0.08775 0.855089-0.334771 0.820159-0.384803 1.066749-0.185258 0.913172 0.150352-0.115715 0.330086-0.391489 0.399402-0.612819 0.06916-0.221373 0.200769-0.379567 0.292119-0.351644 0.09134 0.02791 0.252519-0.07714 0.358156-0.233465 0.105645-0.156332 0.04749 0.09046-0.12923 0.548431-0.35591 0.922346-0.206005 1.201598 0.220245 0.410303 0.149545-0.277644 0.356126-0.479062 0.459044-0.447598 0.102911 0.03145 0.09448 0.227316-0.01879 0.435223-0.497876 0.914243-1.095368 2.555823-0.946791 2.601242 0.08908 0.02718 0.495542-0.576066 0.903259-1.340674l0.741289-1.390202-0.458725 1.285019c-0.252295 0.706766-0.409348 1.341356-0.34869 1.410312 0.06052 0.06884 0.36157-0.354207 0.669063-0.940246 0.307485-0.586044 0.673908-1.156624 0.814283-1.267969 0.197666-0.156786 0.210578-0.127694 0.05724 0.128997-0.547325 0.916261-1.021664 2.181393-0.795607 2.122015 0.130269-0.03422 0.295572-0.254327 0.367358-0.489122 0.07179-0.234811 0.226409-0.452106 0.343614-0.482884 0.11719-0.03074 0.259499-0.207765 0.316215-0.393282 0.05676-0.185516 0.215312-0.366768 0.352433-0.402787 0.167261-0.04392 0.182132 0.02047 0.04517 0.195843-0.112233 0.143739-0.383381 0.6706-0.602489 1.170814-0.291703 0.665986-0.325402 0.853083-0.125737 0.698869 0.242327-0.187217 0.264401-0.18047 0.198618 0.06068-0.169148 0.620126 0.4546-0.232788 0.746526-1.020864 0.165551-0.446994 0.362602-0.794318 0.437842-0.771849 0.207397 0.06191-0.39921 1.470494-0.836333 1.941962-0.211681 0.228335-0.427488 0.366592-0.479583 0.307269-0.05205-0.05932-0.234515-0.06948-0.405327-0.02278-0.246451 0.06748-0.233236 0.10937 0.06404 0.202631 0.423818 0.133275 0.998557-0.164999 1.363454-0.707039 0.304359-0.452105 0.624667-0.39985 0.343574 0.05612-0.113704 0.184387-0.115007 0.356806-0.0032 0.390992 0.110082 0.03366 0.244524-0.07955 0.298778-0.251624 0.05413-0.172091 0.215039-0.409516 0.357309-0.527697 0.227056-0.188608 0.269541-0.17632 0.347619 0.100352 0.1146 0.406766 0.320661 0.290056 0.586724-0.332301 0.184107-0.430638 0.274769-0.467783 0.690417-0.282892 0.263169 0.117054 0.600187 0.423987 0.748941 0.682031 0.259979 0.451017 0.257956 0.460387-0.05205 0.242006-0.249777-0.17596-0.276712-0.167909-0.11946 0.03574 0.136185 0.176305 0.331309 0.237578 0.592496 0.18633 0.269948-0.05325 0.447116 0.01087 0.577113 0.20866 0.103159 0.157004 0.294741 0.28278 0.425706 0.279502 0.130973-0.0032-0.0064-0.193893-0.304863-0.423587-1.133184-0.871518-1.250677-0.987509-1.19261-1.17742 0.08479-0.277344 0.626642 0.135658 1.349207 1.028491 0.336506 0.415768 0.741273 0.795519 0.899493 0.843896 0.158203 0.04837 0.24921 0.21368 0.202223 0.367359-0.04693 0.153686-0.150832 0.204918-0.230789 0.113855-0.07996-0.09103-0.175289-0.06764-0.211881 0.05197-0.04125 0.134803-0.165471 0.05197-0.326601-0.217733-0.143029-0.239432-0.33972-0.389345-0.437083-0.333157-0.09737 0.0562-0.08722 0.168989 0.02255 0.250665 0.278847 0.2075 0.155549 0.49435-0.1697 0.394909-0.147858-0.04517-0.294957 0.0032-0.326873 0.107612-0.03198 0.104398 0.0379 0.164623 0.15507 0.133835 0.11719-0.03078 0.186969 0.0295 0.155061 0.133835-0.03198 0.104382 0.02263 0.214464 0.121196 0.244597 0.09858 0.03014 0.218861-0.07483 0.267286-0.233228 0.06268-0.205038 0.166806-0.222403 0.361402-0.06028 0.150329 0.12524 0.443894 0.323147 0.652354 0.439785 0.20846 0.116622 0.401201 0.296507 0.428304 0.399714 0.0271 0.103206 0.170276 0.224633 0.318134 0.269845 0.147858 0.04517 0.243653-0.01367 0.212865-0.130901-0.0307-0.117198 0.02462-0.188449 0.123258-0.1583 0.09858 0.03014 0.20483 0.152256 0.236114 0.271364 0.03134 0.119116 0.122034 0.199905 0.201656 0.179526 0.235466-0.0602 1.223295 0.922422 1.154251 1.148231-0.03486 0.114087-0.01055 0.297083 0.05405 0.406662 0.0682 0.115646 0.09229 0.08933 0.05748-0.06284-0.04189-0.182636 0.07147-0.209619 0.373067-0.08939l0.433133 0.172651-0.563738 0.299729c-0.310059 0.164872-0.534245 0.408357-0.498204 0.541105 0.04205 0.155029 0.124417 0.131532 0.23015-0.06564 0.113744-0.212137 0.245061-0.240831 0.424931-0.09282 0.143189 0.117838 0.389072 0.297931 0.546413 0.400274 0.157348 0.102327 0.244572 0.317431 0.193837 0.477985-0.137545 0.435339-0.534029 0.715457-0.717233 0.506782-0.298658-0.34016-0.828674-0.538722-1.010918-0.378696-0.103335 0.09072-0.08324 0.133204 0.04685 0.09904 0.125296-0.03286 0.233516 0.01831 0.240487 0.113743 0.01255 0.171092 2.477251 1.961987 2.862183 2.079672 0.108891 0.03334 0.174945-0.02718 0.146795-0.134355-0.02822-0.107204 0.06356-0.20794 0.203862-0.223874 0.140279-0.01591 0.0048-0.05165-0.300713-0.07931-0.462738-0.04197-0.521636-0.09408-0.35192-0.311347 0.238384-0.305182 0.04997-0.409883-0.352488-0.195899-0.218414 0.116134-0.265392 0.09885-0.211386-0.07779 0.04701-0.153758-0.07299-0.225641-0.371404-0.222467-0.407302 4e-3 -0.412858-0.01407-0.07307-0.241798 0.335323-0.224737 0.334436-0.244405-0.01015-0.222851-0.316439 0.01975-0.328943-0.0086-0.07683-0.174209 0.165575-0.108803 0.27182-0.32086 0.236098-0.471245-0.03574-0.150384 0.05245-0.08429 0.195924 0.146859 0.143485 0.231149 0.490305 0.588298 0.770711 0.793664s0.442575 0.432429 0.360387 0.5046c-0.123786 0.108675 0.492711 0.426417 0.973366 0.501657 0.07091 0.01103 0.130709 0.192854 0.132955 0.403896 0.0032 0.323818 0.06796 0.366639 0.413162 0.274234 0.323219-0.08651 0.441663-0.04453 0.564298 0.200081 0.12811 0.255469 0.09129 0.266726-0.210787 0.06444-0.270916-0.181445-0.388329-0.172131-0.451889 0.03574-0.04725 0.15451-0.109866 0.33753-0.139031 0.406766-0.02926 0.06924 0.0323 0.186641 0.136753 0.26097 0.123729 0.08805 0.188472-7.12e-4 0.185778-0.254846-0.0032-0.3276 0.06716-0.359348 0.441432-0.198426 0.53095 0.228247 0.894168 0.722885 0.673276 0.916818-0.181884 0.15969 0.233868 0.804705 0.595998 0.92466 0.196915 0.0654 0.216966 0.01567 0.10327-0.256157-0.09737-0.232876-0.07875-0.318038 0.06028-0.275553 0.202327 0.0618 0.200984 0.319789-4e-3 0.760325-0.07163 0.153959 4e-3 0.229742 0.215176 0.215016 0.179214-0.01255 0.263984 0.0315 0.188384 0.0979-0.163312 0.143381 0.683686 1.743413 0.896295 1.693157 0.293086-0.06932 0.490009 1.627262 0.301329 2.596071-0.106381 0.546381-0.141838 1.116907-0.07875 1.267835 0.06308 0.150928 0.05309 0.307221-0.02231 0.3473-0.249314 0.132563-1.050749 2.658807-0.934063 2.944242 0.08356 0.204366 0.03006 0.254159-0.198258 0.184355-0.248027-0.07579-0.285475-0.03038-0.180941 0.219597 0.09756 0.233348 0.07355 0.316663-0.09287 0.320724-0.123394 0.0032-0.388498 0.43139-0.589098 0.95178-0.200585 0.520397-0.474643 0.975029-0.60895 1.010302-0.134306 0.03526-0.368989 0.354087-0.521524 0.708454-0.15256 0.354359-0.432542 0.726835-0.622253 0.827699-0.189712 0.100872-0.321772 0.271563-0.293462 0.379319 0.0283 0.107756-0.04333 0.166926-0.159243 0.131484-0.125784-0.03845-0.217414 0.09934-0.227344 0.341847-0.0091 0.223443-0.04749 0.348203-0.08517 0.277264-0.08702-0.16368-0.696046 0.152847-0.771989 0.401242-0.08692 0.284315-1.173847 1.297544-1.543676 1.439022-0.241471 0.09237-0.275281 0.162073-0.129062 0.266119 0.121858 0.08674-0.145148 0.333268-0.693832 0.640585-0.49056 0.274786-1.191987 0.716545-1.558722 0.981689-0.366735 0.265136-0.766018 0.516536-0.887293 0.558645-0.121283 0.04205-0.146427 0.10056-0.05588 0.129902 0.09059 0.02918-0.341647 0.295412-0.96043 0.59128-0.618775 0.295876-1.192051 0.517472-1.273951 0.492432-0.0819-0.02502-0.123722 0.05037-0.09293 0.167565 0.0307 0.11719-0.02374 0.188728-0.121044 0.158963-0.09736-0.02974-0.314728 0.01519-0.483053 0.09984-0.168317 0.08467-0.549691 0.229766-0.847494 0.322419-0.297803 0.09265-0.982928 0.314377-1.522505 0.492719-1.034295 0.341855-2.220814 0.586844-7.1123 1.468524-1.654094 0.298147-3.159914 0.608102-3.346259 0.688778-0.550435 0.238257-2.744362 0.642065-3.024024 0.556567-0.14179-0.04333-0.295564 0.04469-0.341719 0.195644-0.04621 0.15096-0.240767 0.282708-0.432462 0.292758-0.19171 0.01007-1.134799 0.282285-2.095757 0.604936-0.960966 0.322651-1.966679 0.583373-2.234925 0.579368-2.008684-0.02998-2.760183 0.612947-3.689089 3.155932-0.07331 0.200713-0.203263 0.26201-0.335851 0.158444-0.173826-0.13577-0.202631-0.07507-0.146803 0.309379 0.03814 0.263065 0.157764 0.455111 0.265695 0.426761 0.107924-0.0283 0.116582 0.01839 0.01919 0.103854-0.09731 0.08548-0.124289 0.201096-0.05988 0.256965 0.06444 0.0558 0.167102 0.380774 0.228167 0.722038 0.06108 0.341279 0.262202 0.69292 0.447012 0.781447 0.316184 0.15148 0.321996 0.140439 0.09833-0.186905-0.130725-0.19131-0.253599-0.695398-0.273067-1.120209-0.01951-0.42481-0.13102-0.779569-0.247882-0.788347-0.116878-0.0088-0.187841-0.09662-0.1577-0.195204 0.03006-0.09857 0.12648-0.1573 0.214112-0.130509 0.08762 0.02678 0.181077-0.05492 0.207676-0.181493 0.125417-0.597005 0.930929-2.006766 1.061574-1.857956 0.07963 0.0907 0.02119 0.403623-0.129805 0.69543-0.150993 0.291799-0.231829 0.675899-0.179614 0.853538 0.07243 0.246468 0.126695 0.193397 0.228958-0.22397 0.236322-0.964603 0.681959-1.569331 1.069193-1.450934 0.234236 0.07163 0.316208 0.230637 0.244117 0.473603-0.08834 0.298626-0.0064 0.278959 0.447108-0.106548 0.699852-0.594903 0.87068-0.375978 0.969825 1.242874 0.04029 0.658023 0.133539 1.265061 0.207212 1.348968 0.07363 0.08393 0.100376-0.185147 0.05932-0.597893-0.04101-0.412745 0.02263-1.040691 0.141399-1.395409 0.213056-0.636069 0.215607-0.631583 0.187656 0.32628-0.01815 0.622773 0.0086 0.738635 0.07475 0.322947 0.140567-0.883855 0.300913-0.442335 0.306941 0.845152 0.0064 1.301477-0.04877 1.500343-0.30611 1.108784-0.2327-0.35412-0.3705-0.104014-0.160402 0.291127 0.105469 0.198362 0.227096 0.220164 0.479456 0.08599 0.185986-0.09889 0.398275-0.111289 0.47178-0.02758 0.230462 0.262481 0.225177-0.09372-0.0087-0.587747-0.124729-0.263441-0.149401-0.884471-0.05565-1.40151 0.160194-0.883751 0.172147-0.899845 0.248227-0.334276 0.04485 0.333212 0.143884 0.504296 0.225544 0.389521 0.08012-0.112553 0.131669 0.247826 0.114608 0.800859-0.0271 0.877923 0.02023 1.004714 0.372947 0.99931 0.222179-0.0032 0.539425 0.02486 0.704992 0.06284 0.238665 0.05477 0.294541-0.02838 0.269661-0.401249-0.01727-0.258668 0.04045-0.685125 0.12823-0.947695 0.122858-0.367438 0.159947-0.262881 0.161114 0.453976 7.04e-4 0.512251 0.09584 0.960206 0.211146 0.995464 0.157036 0.04805 0.172179-0.0064 0.06036-0.216734-0.08212-0.154462-0.120859-0.364729-0.08609-0.46728 0.0351-0.102463 0.127831-0.01079 0.206765 0.203807 0.143477 0.390096 0.743616 0.513426 0.847342 0.174129 0.0287-0.09384 0.123802-0.08904 0.211346 0.01071 0.08754 0.09973 0.440113 0.08196 0.783502-0.03949 0.343374-0.121435 1.211623-0.320517 1.929439-0.4424 0.717817-0.12189 1.337575-0.234395 1.377254-0.250025 0.03965-0.01567 0.01783-0.325801-0.04853-0.689266-0.112713-0.617496-0.09343-0.677106 0.294077-0.908599 0.40679-0.243014 0.41628-0.238857 0.498268 0.219149 0.04925 0.275169 0.0024 0.492231-0.115247 0.5286-0.115831 0.0359-0.134131 0.135394-0.04373 0.238265 0.08526 0.0971 0.778561 0.06932 1.540685-0.06164 0.762116-0.131013 1.315157-0.318518 1.228972-0.416672-0.08618-0.09812-0.323131-0.08997-0.526586 0.01823-0.337218 0.179302-0.424562 0.09912-0.259995-0.238681 0.03422-0.07035-0.02774-0.155461-0.137816-0.189112-0.110082-0.03366-0.207037 0.107388-0.215479 0.313433-0.01695 0.413274-0.405151 0.526186-0.690746 0.200897-0.143509-0.163448-0.110905-0.243206 0.151928-0.37166 0.292526-0.142997 0.325825-0.251976 0.26476-0.866642-0.06372-0.641105-0.05101-0.674404 0.14398-0.377656 0.117606 0.178982 0.236594 0.255446 0.2644 0.1699 0.02758-0.08559 0.08937-0.01375 0.136826 0.159651 0.05676 0.207348-0.0032 0.346116-0.176017 0.405638-0.177959 0.0614-0.159378 0.08939 0.0578 0.08714 0.176056-0.0024 0.382916 0.114847 0.4597 0.259235 0.278239 0.523308 0.209579-0.01607-0.137017-1.0763-0.407086-1.245274-0.402625-1.680533 0.0072-0.68379 0.241087 0.586619 0.536763 0.660964 0.32413 0.08147-0.04413-0.12018 0.061 0.07579 0.233532 0.435452 0.25527 0.532134 0.34957 0.608053 0.506191 0.407541 0.120379-0.154158 0.09395-0.276537-0.07075-0.326881-0.144773-0.04429-0.251449-0.143021-0.237058-0.219468 0.01439-0.07643 0.0578-0.310179 0.09644-0.51943 0.09266-0.501522 0.63658-0.379719 0.910526 0.203902 0.325257 0.692952 0.558541 0.613379 0.317702-0.108363-0.206125-0.617648-0.234795-1.447681-0.04813-1.390589 0.04781 0.01455 0.372475 0.522804 0.721382 1.129275 0.348914 0.606471 0.652945 1.041946 0.675643 0.967721 0.02271-0.07419-0.285028-0.863867-0.683838-1.754741-0.398803-0.890875-0.602474-1.42795-0.452601-1.193491 0.297987 0.466144 0.567056 0.631088 0.478304 0.293214-0.08655-0.329543 0.03478-0.226992 0.54511 0.46062 0.647877 0.872965 0.930545 0.901251 0.422708 0.04229-0.553273-0.935782-0.480479-1.034 0.24594-0.33179 0.797925 0.771319 0.909862 0.777771 0.570837 0.03294-0.208979-0.459173-0.210986-0.524619-0.0072-0.247299 0.152167 0.207444 0.44351 0.552577 0.647429 0.766977 0.354127 0.372315 0.363793 0.370868 0.215127-0.03222-0.0856-0.232125-0.259867-0.671717-0.387266-0.976868-0.157932-0.378311-0.157108-0.450634 0.0032-0.227311 0.128838 0.180149 0.327712 0.302983 0.441951 0.272978 0.114248-0.03006 0.237194 0.05772 0.273235 0.194933 0.04373 0.166326 0.0024 0.177247-0.124737 0.0327-0.123242-0.140359-0.168381-0.133324-0.128119 0.02007 0.03422 0.130189 0.187761 0.227935 0.34124 0.217222 0.159978-0.01119 0.347987 0.217238 0.440576 0.535212 0.08882 0.305095 0.250017 0.581767 0.358197 0.614834 0.108171 0.0331-0.07547-0.481279-0.408021-1.142994l-0.604696-1.203124 0.654976 0.949389c0.504288 0.730968 0.718448 0.915323 0.930897 0.801299 0.212177-0.113888 0.19857-0.142909-0.05884-0.125656-0.223242 0.01495-0.364473-0.128095-0.423875-0.429296-0.04901-0.24845-0.284443-0.870639-0.52322-1.382642-0.263113-0.564178-0.315207-0.812052-0.132236-0.629192 0.166039 0.16595 0.40304 0.517207 0.526658 0.780568 0.301337 0.641985 0.643168 0.724684 0.362906 0.08784l-0.220285-0.500618 0.415521 0.482638c0.228526 0.265463 0.387713 0.376809 0.353735 0.247443-0.0838-0.319006 0.202935-0.212178 0.428888 0.159786 0.154821 0.254886 0.161761 0.24335 0.04541-0.07555-0.07555-0.207004-0.04805-0.454751 0.06108-0.550554 0.117797-0.103431 0.108235-0.150529-0.02343-0.115911-0.122027 0.03206-0.281437-0.08455-0.354375-0.258619-0.299002-0.715114 0.55468 0.121586 0.896063 0.878234 0.390632 0.86581 0.467623 0.857663 0.305174-0.0323-0.0602-0.32999-0.387834-0.917081-0.72801-1.304651-0.407613-0.464409-0.478536-0.616057-0.208019-0.444758 0.225768 0.142949 0.533301 0.467743 0.683414 0.721758 0.150104 0.253991 0.366335 0.464297 0.48051 0.467335 0.114176 0.0032 0.336787 0.353696 0.494686 0.779233 0.229782 0.619303 0.287658 0.680984 0.289992 0.3091 0.0024-0.317798 0.05381-0.406694 0.163848-0.281309 0.08851 0.100832 0.187065 0.09785 0.218981-0.0064 0.03198-0.10439-0.04509-0.221316-0.170979-0.259819-0.125968-0.03854-0.324338-0.288513-0.44084-0.555551-0.207485-0.475554-0.204678-0.481111 0.136921-0.270501 0.516792 0.318614 0.74264-0.02031 0.366063-0.549347-0.180501-0.253583-0.261849-0.442719-0.180765-0.420333 0.299866 0.08279 0.814107 0.701794 1.059895 1.275742 0.13924 0.325154 0.281261 0.509644 0.315616 0.409956 0.03422-0.09971-0.09901-0.571046-0.29634-1.047503-0.298731-0.721246-0.302792-0.809966-0.02422-0.529928 0.183995 0.184995 0.364017 0.560404 0.400042 0.834239 0.03606 0.273842 0.121659 0.515057 0.190263 0.536027 0.161738 0.04941 1.684331-1.23388 2.762566-2.328449 0.464377-0.471421 0.866746-0.814963 0.894153-0.76342 0.121962 0.229367-2.457784 2.671496-3.439712 3.256205-1.289366 0.767784-1.641174 1.151269-1.47428 1.607067 0.102758 0.280646 0.0879 0.28354-0.09762 0.01903-0.181437-0.258691-0.315824-0.265071-0.786477-0.03734-0.312194 0.15108-0.564929 0.382541-0.561627 0.514354 0.0094 0.373458-0.520238 0.120363-0.546893-0.261371-0.01975-0.282612-0.09292-0.268557-0.438682 0.08427-0.520109 0.530735-0.585284 0.710413-0.135569 0.373643 0.333796-0.249938 0.732558-0.05524 0.622724 0.303991-0.03014 0.09858-0.120204 0.104725-0.200153 0.01367-0.07997-0.09104-0.190671-0.01743-0.24602 0.163632-0.05532 0.181061-0.280254 0.411851-0.499762 0.512874-0.725452 0.333836-1.460153 0.867434-1.386112 1.006689 0.04013 0.07539-0.01679 0.109635-0.12636 0.07611-0.109578-0.0335-0.657015 0.20184-1.216531 0.522988-0.610773 0.350561-1.65682 0.693887-2.617618 0.859134-0.88017 0.151392-1.769469 0.312514-1.976202 0.358061-0.206732 0.04557-1.852096 0.295908-3.656358 0.556383-1.80427 0.260466-3.562882 0.531926-3.908055 0.603217-0.345164 0.07131-0.906264 0.17584-1.246896 0.232268-0.340616 0.05644-0.895415 0.235922-1.232889 0.398843-0.367223 0.177287-0.685709 0.214072-0.793224 0.09162-0.112017-0.127591-0.156573-0.11675-0.118341 0.0287 0.07068 0.269229-0.878946 0.790282-1.061462 0.58239-0.06692-0.07619-0.112761-0.01055-0.101856 0.145859 0.01167 0.16767-0.123497 0.27796-0.329342 0.26859-0.490729-0.02231-2.62128-0.657951-3.018428-0.900525zm2.036915 0.341943c-0.03774-0.143868-0.792385-0.245955-0.833071-0.112864-0.01119 0.03662 0.180381 0.11033 0.425753 0.163728 0.24538 0.05341 0.428688 0.03046 0.407318-0.05085zm-1.656085-1.267059c0.03014-0.09858-0.03062-0.205342-0.13501-0.237265-0.104398-0.0319-0.164624 0.0379-0.133835 0.155077 0.0307 0.11719 0.09154 0.223962 0.13501 0.237249 0.04349 0.01335 0.103694-0.05644 0.133835-0.155061zm0.952068-0.806416c-0.01295-0.18573-0.07619-0.309683-0.140583-0.275465-0.06436 0.03422-0.106436 0.214168-0.09345 0.399898 0.01295 0.185738 0.07627 0.309691 0.140583 0.275465 0.06436-0.03422 0.106444-0.214168 0.09344-0.399898zm1.865911 0.884039c-0.0307-0.117198-0.176952-0.250082-0.32481-0.295285-0.147866-0.04517-0.243653 0.01367-0.212873 0.130893 0.0307 0.11719 0.176952 0.250081 0.324818 0.295292 0.147858 0.04517 0.243645-0.01367 0.212865-0.1309zm0.527993-0.137289c-0.07875-0.188361-0.191391-0.316855-0.250297-0.285531-0.162289 0.08629-0.01375 0.503528 0.202895 0.56975 0.118844 0.03638 0.136689-0.07068 0.04741-0.284219zm-1.326014-1.422177c-0.102175-0.364265-0.107356-0.365424-0.104726-0.02334 0.0016 0.197906-0.01967 0.456006-0.04709 0.573539-0.03598 0.154255-0.0072 0.160746 0.104726 0.02335 0.08503-0.10467 0.106444-0.362698 0.04709-0.57354zm2.906826 0.342374c-0.01151-0.165215-0.05269-0.310067-0.09141-0.321907-0.03877-0.01183-0.10742 0.09943-0.152623 0.247299-0.04517 0.147866-4e-3 0.292726 0.09141 0.321915 0.09548 0.02918 0.164168-0.08209 0.152631-0.247307zm-2.599765-1.18679c0.02822-0.26085 0.02039-0.483709-0.01735-0.495262-0.03782-0.01151-0.130374 0.180614-0.20571 0.427057-0.07539 0.246444-0.06748 0.46931 0.01735 0.495262 0.08491 0.02598 0.17748-0.166215 0.205718-0.427057zm-1.442333-0.783926c-0.01207-0.138424-0.08355-0.05005-0.158891 0.196395-0.07531 0.246436-0.06548 0.3597 0.02191 0.251672 0.08739-0.108019 0.149042-0.309651 0.136985-0.448067zm1.040012 0.660924c0.04517-0.147858 4e-3 -0.292726-0.09141-0.321916-0.09548-0.02918-0.164168 0.0821-0.152639 0.247307 0.01159 0.165224 0.05269 0.310068 0.09141 0.321924 0.03878 0.01183 0.107428-0.09945 0.152639-0.247315zm15.849025-0.09067c0.06372-0.08965 0.01135-0.318446-0.116518-0.508454-0.167118-0.248322-0.213225-0.268269-0.163952-0.07091 0.03766 0.150984-0.05748 0.357333-0.211522 0.45854-0.220924 0.14518-0.210794 0.194573 0.04797 0.233932 0.180405 0.0275 0.380206-0.02343 0.443998-0.113072zm0.867289-0.622517c-0.08929-0.167925-0.16954-0.204031-0.203871-0.09173-0.03118 0.101855-0.01927 0.255414 0.02638 0.341215 0.04565 0.08579 0.137369 0.127096 0.203862 0.09173 0.06652-0.03534 0.05477-0.188872-0.02638-0.341215zm-10.940765-4.176132c0.391727-0.358445 0.981649-0.581095 2.004039-0.7564 0.796894-0.136633 2.104928-0.431806 2.906739-0.655928 0.801819-0.224129 1.877911-0.491664 2.391329-0.594534 1.10964-0.222323 1.55674-0.381878 2.518865-0.898933 0.397044-0.213385 1.334577-0.516944 2.083405-0.674604 0.748837-0.157652 1.84674-0.491304 2.439779-0.741449 0.795791-0.335659 1.308345-0.416784 1.956502-0.309692 0.483013 0.07979 0.969376 0.145524 1.080802 0.146012 0.316598 0.0016 1.692213-1.14692 1.594371-1.330931-0.04813-0.09047-0.196451-0.06876-0.329639 0.04813-0.206333 0.181165-0.265159 0.165335-0.397571-0.107028-0.08549-0.175784-0.0814-0.242558 9e-3 -0.148386 0.09048 0.09417 0.512035-0.06508 0.936797-0.353903 0.687356-0.467375 0.76976-0.590865 0.749149-1.122791-0.02007-0.517951 0.04933-0.636228 0.520373-0.886669 0.29893-0.158955 0.597845-0.250345 0.66425-0.203095 0.06636 0.04725 0.170037-0.07539 0.23031-0.272555 0.139736-0.457054 0.05836-0.474747-0.555463-0.120867-0.380383 0.219316-0.447428 0.220931-0.280614 0.0072 0.12058-0.154766 0.40312-0.31767 0.627929-0.362002 0.262658-0.05181 0.400538-0.198186 0.385779-0.40958-0.01263-0.180941 0.01271-0.261978 0.05653-0.180006 0.07683 0.144437 0.506166-0.03829 1.203483-0.512098 0.51445-0.349563 0.106437-0.367519-0.598404-0.02638l-0.621509 0.300961-0.09181-0.470053c-0.07771-0.397724-0.06236-0.427049 0.09982-0.190567 0.150233 0.219109 0.34367 0.197506 0.895575-0.100001 0.699748-0.377216 0.700507-0.378599 0.126544-0.231205-0.866194 0.222459-0.853626 0.1384 0.05684-0.380359 0.917505-0.522764 0.972278-0.646181 0.260259-0.586371-0.264992 0.02223-0.377769 0.07787-0.250649 0.123569 0.245636 0.08828 4e-3 0.405695-0.249458 0.328104-0.302152-0.09237-0.184451-0.710965 0.176288-0.926468 0.343206-0.205054 0.331014-0.232932-0.158939-0.363217-0.291871-0.07763-0.512011-0.06924-0.489201 0.01855 0.05109 0.196603-0.247323 0.120308-0.36026-0.09214-0.04501-0.08471 0.05748-0.251777 0.227832-0.371293 0.261282-0.183339 0.258292-0.199489-0.01903-0.103286-0.482654 0.16735-1.031201 0.167765-0.980138 7.11e-4 0.08407-0.274953 2.027497-0.535468 2.936728-0.39367 0.501521 0.07819 0.861748 0.05261 0.801323-0.05692-0.147986-0.26827-2.319392-0.358221-2.857794-0.118397-0.317974 0.141654-0.432749 0.127351-0.440016-0.05477-0.01607-0.403416-0.795143-0.159139-0.793449 0.248778 0.0016 0.306533-0.0093 0.302192-0.106268-0.04365-0.10056-0.358724-0.140439-0.361322-0.603425-0.03941-0.285619 0.198594-0.467503 0.457974-0.429119 0.61194 0.04461 0.179054-0.01007 0.153286-0.165751-0.07811-0.209131-0.310754-0.466584-0.219013-2.571527 0.916299-1.286575 0.693879-2.375668 1.380947-2.420264 1.526798-0.04461 0.145844-0.152351 0.272779-0.239512 0.282061-0.08714 0.0093-0.813787 0.51106-1.614774 1.115044-0.800988 0.603985-1.440534 1.046488-1.421218 0.983328 0.04429-0.144724 1.905526-1.701432 2.306368-1.928952 0.164223-0.09321 0.275425-0.257652 0.247131-0.3654-0.0283-0.107755 0.03398-0.169788 0.138344-0.137888 0.10439 0.03198 0.23912-0.10327 0.299402-0.300417 0.06028-0.197155 0.190239-0.333796 0.288808-0.303655 0.09858 0.03014 0.206517-0.03446 0.239888-0.143613 0.03334-0.109123-0.07923-0.18864-0.250121-0.176704-0.201488 0.01407-0.244045-0.03694-0.121035-0.1449 0.128438-0.112768 0.0578-0.172027-0.218358-0.183308-0.224441-0.0092-0.410443-0.110154-0.413297-0.224401-0.01639-0.654633-2.57104-0.524163-4.485832 0.229102-1.782788 0.701323-4.255186 1.962618-4.628733 2.361333-0.343646 0.366791-2.495159 2.773831-3.209354 3.590504-1.235056 1.412279-1.888481 3.399746-1.668604 5.075282 0.06628 0.505335 0.06684 1.100789 0.0016 1.323247-0.160881 0.545582-0.07163 0.53638 0.579608-0.05948zm18.939838-7.067497c-0.03278-0.124993-0.0095-0.253967 0.05181-0.286586 0.06132-0.03262 0.121251 0.07971 0.133108 0.249721 0.02462 0.352864-0.09565 0.376833-0.184939 0.03686zm-5.781913-4.449407c0.02399-0.07347 0.156365-0.23035 0.293902-0.348618 0.196515-0.169021 0.217334-0.131189 0.09724 0.176703-0.13541 0.347204-0.501466 0.508094-0.391144 0.171915zm7.665589 1.211983c0.17062-0.112121 0.335859-0.155661 0.367167-0.09676 0.0863 0.162297-0.270197 0.425122-0.486803 0.358892-0.118845-0.0363-0.07379-0.13501 0.119628-0.262129zm-0.09313-1.209592c0.09847-0.126088 0.251089-0.207229 0.339113-0.18031 0.25766 0.07875 0.08876 0.367183-0.227991 0.389297-0.193941 0.01351-0.230814-0.05572-0.111122-0.208987zm0.710013 0.117869c-0.121131-0.461155 0.0991-1.103356 0.319397-0.931297 0.117214 0.09154 0.146411 0.225025 0.06492 0.296596-0.08151 0.07155-0.05317 0.159211 0.06356 0.194876 0.15682 0.04797 0.140894 0.111289-0.0614 0.244229-0.150225 0.09872-0.236306 0.248786-0.191279 0.333484 0.04509 0.08466 0.03286 0.139-0.02702 0.120676-0.05988-0.01831-0.135537-0.134667-0.168085-0.258564zm-2.220302-0.969169c-0.01247-0.178958 0.01119-0.418046 0.05261-0.531294 0.04133-0.113296 0.09359 0.01087 0.115854 0.275872 0.02223 0.264984-0.0016 0.504064-0.05261 0.531303-0.05125 0.02718-0.10335-0.09692-0.115838-0.275881zm0.518007-0.715953c-0.01399-0.361251 0.04373-0.574587 0.146851-0.543047 0.09344 0.02854 0.155325 0.135674 0.137513 0.238017-0.06436 0.370053-0.06316 0.474698 0.0095 0.737819 0.04061 0.147139-0.0032 0.243837-0.09851 0.214864-0.09476-0.02894-0.182636-0.320421-0.195324-0.647661zm1.083352 0.528944c-4e-3 -0.425882 0.2276-0.716089 0.504896-0.631319 0.108155 0.0331 0.05988 0.167949-0.126456 0.353296-0.204374 0.203262-0.241687 0.31807-0.115695 0.356597 0.10204 0.03118 0.160874 0.137369 0.130741 0.235946-0.09798 0.320437-0.388985 0.08774-0.393262-0.314448zm-0.53777-0.165895c-0.03078-0.117197 0.02942-0.186977 0.133827-0.155069 0.104389 0.03198 0.165143 0.13868 0.13501 0.237257-0.03014 0.09857-0.09036 0.168349-0.133827 0.155062-0.04349-0.01327-0.10423-0.120052-0.13501-0.23725zm-17.381599 12.301597c0.06228-0.203622-0.246347-0.30196-0.386882-0.123473-0.05868 0.07467-0.541328 0.186753-1.072375 0.249058-0.531055 0.06236-0.990499 0.194924-1.021008 0.294693-0.03054 0.09978 0.504168 0.08171 1.188182-0.04021 0.683997-0.121883 1.265452-0.29299 1.292131-0.380223zm9.878608 2.944739c-0.07747-0.185379-0.232645-0.36229-0.344757-0.393143-0.112185-0.03062-0.08347 0.110202 0.06364 0.313425 0.343582 0.474683 0.460084 0.507726 0.281054 0.08zm-8.204519-3.292302c0.465729-0.127079 0.908967-0.212409 0.984999-0.189624 0.134594 0.04038 1.713704-0.207939 2.297309-0.361242 0.240072-0.063 0.24969-0.120236 0.05453-0.323978-0.17106-0.178591-0.638739-0.14307-1.681053 0.127726-0.79424 0.206341-1.75459 0.453337-2.134109 0.548876-0.379527 0.09555-0.699948 0.206085-0.712044 0.245644-0.05588 0.182708 0.415992 0.163912 1.190372-0.04741zm9.95133 3.347962c0.0283-0.09275-0.0032-0.230725-0.06956-0.306613-0.0666-0.07587-0.157036-0.02055-0.200905 0.122986-0.04381 0.143525-0.01263 0.281501 0.06956 0.306621 0.08215 0.02518 0.172563-0.03022 0.200921-0.122994zm0.119987-1.594979c-0.123289-0.229798-0.150176-0.215511-0.131004 0.06964 0.01327 0.197339 0.08307 0.32744 0.155125 0.289128 0.07211-0.03829 0.06116-0.199769-0.02415-0.358788zm0.688331 0.02998c-0.01351-0.160474-0.06892-0.130981-0.141382 0.07515-0.06564 0.186562-0.05557 0.305382 0.02223 0.264025 0.07771-0.04133 0.131381-0.193997 0.11918-0.339193zm-21.760998-6.97146c0.206141-0.289705-0.185035-0.33518-0.409652-0.04757-0.120356 0.15407-0.105309 0.248266 0.03893 0.244652 0.129054-0.0032 0.29586-0.09189 0.370677-0.197027zm17.475056 3.843519c2.29886-0.531279 4.626438-1.33285 5.599996-1.928519l0.482158-0.295013-0.844792-0.121411c-0.996759-0.143237-2.754443 0.516768-2.989589 1.122599-0.20483 0.527745-0.369062 0.581543-0.685917 0.22473-0.210386-0.236914-0.432325-0.275585-1.014212-0.176664-1.003387 0.170571-3.148857 1.192602-3.077078 1.465821 0.03166 0.120539 0.08295 0.226912 0.113975 0.236394 0.03102 0.0095 1.117979-0.228087 2.415459-0.527937zm7.171646 2.501308c0.08071-0.07091 0.05716-0.265264-0.05237-0.431958-0.159898-0.243333-0.214511-0.254758-0.277104-0.05796-0.06244 0.197027-0.09294 0.190599-0.154366-0.03246-0.06092-0.2213-0.141238-0.235019-0.396012-0.06756-0.268925 0.176712-0.270692 0.206597-0.01119 0.188473 0.169644-0.01183 0.335347 0.0809 0.368238 0.206085 0.07267 0.27668 0.323411 0.370389 0.52274 0.195372zm1.38859-6.438864c0.117166-0.169804 0.350506-0.318318 0.518495-0.330054 0.167998-0.01175 0.27999-0.118253 0.248882-0.23673-0.05125-0.194932-1.201053 0.401513-1.28153 0.664754-0.07915 0.258932 0.320404 0.182812 0.514153-0.09797zm-24.280742-9.702975c-0.170484-1.417652-0.140975-5.476043 0.05005-6.87828 0.172706-1.268067 0.02367-1.678455-0.475179-1.308538-0.190415 0.141199-0.421212 0.171316-0.512874 0.06692-0.09315-0.106101-0.334348-0.05876-0.546869 0.107148-0.624451 0.487722-0.725531 0.246331-0.154486-0.368958 0.883719-0.952187 1.618901-1.207473 2.625685-0.911749 0.509181 0.149745 1.048351 0.184763 1.287175 0.08397 0.226008-0.09538 0.843832-0.291303 1.372928-0.435388 1.611449-0.438817 2.196422-0.818768 2.268864-1.473632l0.06292-0.568711 0.327296 0.555351c0.180006 0.305438 0.377968 0.492728 0.439929 0.416184 0.06196-0.07651 0.704872-0.345469 1.428692-0.597612 0.723821-0.252144 1.830574-0.739763 2.459439-1.083592 1.135231-0.620694 1.144985-0.632439 1.364581-1.643029 0.205342-0.945008 0.231397-0.98364 0.363545-0.539785 0.07827 0.262953 0.297851 0.52561 0.487867 0.583709 0.429311 0.131253 1.391044-0.0351 1.815455-0.313953 0.175297-0.115191 0.461795-0.165702 0.636668-0.112232 0.560932 0.171491 1.706132-0.694551 1.988681-1.503902 0.377904-1.082448-0.06892-1.633226-1.737225-2.141456-2.079592-0.633574-3.694958-0.915427-3.773508-0.658518-0.03846 0.125744 0.05021 0.220236 0.197115 0.209987 0.172011-0.01199 0.224657 0.119876 0.147954 0.370773-0.143541 0.469501-0.04061 1.115251 0.288825 1.811218 0.134202 0.283556 0.154166 0.48809 0.04437 0.454511-0.109802-0.03358-0.46799-0.715138-0.795974-1.514598-0.327984-0.799469-0.70002-1.486457-0.826771-1.526639-0.126736-0.04021-0.576274-0.01215-0.99895 0.06236-0.422676 0.07443-1.235671 0.131413-1.806637 0.126568-1.17423-0.01-2.750094 0.52645-2.875462 0.978803-0.149761 0.540257-0.02295 1.714895 0.298434 2.765148 0.173274 0.566224 0.270405 1.053243 0.215847 1.082249-0.167413 0.08901-1.213605-3.516871-1.11402-3.839682 0.150952-0.488922-0.181981-0.68032-0.806864-0.463914-0.320061 0.110826-0.992794 0.289664-1.494963 0.397404-1.662704 0.356717-2.276794 1.415901-2.152913 3.713386 0.03462 0.642992 0.01583 1.194154-0.04189 1.22483-0.05764 0.0307-0.240336-0.461722-0.40587-1.094217-0.245221-0.936909-0.391584-1.1777-0.789891-1.299471-0.268901-0.08221-0.470533-0.07955-0.448083 0.0056 0.02247 0.08547-0.140639 0.340551-0.362402 0.566848-0.221763 0.226304-0.39347 0.551066-0.38155 0.721686 0.01519 0.217997-0.04925 0.254854-0.216806 0.123977-0.203511-0.158963-0.259036-0.04141-0.378912 0.802138-0.160338 1.128364-0.0883 2.146853 0.235922 3.334979 0.123818 0.45376 0.207517 0.882615 0.185994 0.953019-0.06404 0.209515-0.573691-1.324063-0.737563-2.219487-0.145876-0.797054-0.164072-0.816482-0.453512-0.484197-0.51417 0.590282-0.505272 2.676093 0.01895 4.432578 0.576482 1.931789 1.677031 4.464653 2.840492 6.537193 0.493063 0.878315 0.913268 1.602079 0.933807 1.608355 0.02055 0.0064-0.02367-0.495757-0.0982-1.115636zm25.212311 8.597813c0.09104-0.07996 0.03981-0.183803-0.113848-0.230789-0.153686-0.04693-0.304079-0.0048-0.33422 0.0938-0.03014 0.09858 0.02111 0.202439 0.113856 0.230797 0.09275 0.0283 0.243158-0.01391 0.334212-0.0938zm0.861325 0.0674c0.03006-0.09857 0.01919-0.190095-0.02423-0.203383-0.04349-0.01335-0.153542 0.04125-0.244612 0.121195-0.09102 0.07995-0.08013 0.171475 0.02422 0.203391 0.10439 0.03198 0.214464-0.02263 0.244597-0.121203zm-0.414241-0.88866c0.945831-0.4782 1.601799-0.923925 1.537544-1.044768-0.02926-0.05501-0.477809 0.117597-0.996767 0.383628-0.518959 0.266039-0.910918 0.545062-0.871047 0.620055 0.03989 0.07499-0.06188 0.09525-0.226217 0.04509-0.164287-0.05021-0.32337-0.01071-0.353503 0.0879-0.09267 0.303104 0.184067 0.275169 0.90999-0.09185zm0.266007 0.438346c0.288313-0.253143 0.0888-0.386411-0.247547-0.165375-0.193437 0.127111-0.238472 0.225801-0.11962 0.262138 0.104822 0.03206 0.270053-0.01151 0.367167-0.09676zm1.251941-0.59567c0.0283-0.09276-0.0291-0.193309-0.127663-0.22345-0.09858-0.03014-0.21767 0.07091-0.264656 0.224626-0.04693 0.153678 0.01047 0.25423 0.127671 0.223442 0.11719-0.03078 0.236298-0.131869 0.264648-0.224618zm-34.404155-11.437756c0.183692-0.132468 0.380415-0.40304 0.437155-0.601266 0.09552-0.33426 0.08003-0.335435-0.214608-0.01663-0.352712 0.38159-0.903402 0.345509-0.602681-0.03941 0.138096-0.1768 0.09135-0.237985-0.179335-0.234819-0.333276 4e-3 -0.325873-0.01231 0.08264-0.181413 0.434188-0.179685 0.430151-0.187201-0.125025-0.232068l-0.5737593-0.046376 0.6963423-0.194308c0.75508-0.210707 0.753577-0.209363 0.723012-0.647086-0.01743-0.249249-0.102958-0.282468-0.526785-0.204534-0.278311 0.05125-0.7137708-0.01863-0.9676816-0.155213l-0.4616589-0.248266 0.6431037 0.05708c0.7430398 0.06604 1.6582588-0.335123 1.4099368-0.617959-0.08802-0.100233-0.185498-0.09893-0.216647 0.0032-0.07395 0.241822-1.1780595 0.440352-1.6487446 0.296451-0.2020478-0.0618-0.3880417-0.04461-0.4133376 0.03814-0.064999 0.212801 1.2556832 3.144603 1.4464732 3.210889 0.08667 0.03014 0.307925-0.05365 0.491624-0.186089zm-0.773229-2.046245c0.443599-0.07835 0.829561-0.09913 0.857704-0.04621 0.06796 0.127767-1.1496464 0.345941-1.4382152 0.257725-0.1243131-0.03806 0.136921-0.133196 0.5805112-0.211522zm35.17421 12.122727c0.112353 0.03438 0.228943-0.01823 0.259084-0.116766 0.03014-0.09858 6.71e-4 -0.195772-0.06556-0.216015-0.206868-0.06324-0.954522 0.346268-1.011501 0.55404-0.02958 0.108979 0.09599 0.08965 0.279678-0.04285 0.183699-0.132467 0.425922-0.212745 0.538258-0.178398zm-30.791617-11.107691c0.128839-0.164944 0.03702-0.799061-0.251352-1.736594-0.249857-0.812228-0.455998-1.983436-0.458069-2.602699-0.0024-0.619239-0.104158-1.194402-0.22684-1.278133-0.12269-0.08372-0.182876-0.06987-0.133771 0.03086 0.04909 0.100696-0.02287 0.256837-0.160066 0.346963-0.177328 0.116518-0.172643 0.223826 0.01623 0.371357 0.245205 0.191534 0.235515 0.217941-0.12604 0.343685-0.34052 0.118397-0.389648 0.227472-0.376233 0.83515 0.01583 0.717968 1.102492 3.823676 1.366045 3.904257 0.08092 0.0247 0.238464-0.07195 0.350081-0.214839zm-5.2126578-2.447678c0.030141-0.09857 0.1649033-0.145556 0.2994739-0.104414 0.4208289 0.128654 1.4011739-0.357229 1.9778879-0.98029 0.567704-0.613338 0.533358-0.856184-0.06548-0.462698-0.185123 0.121651-0.311347 0.237401-0.280486 0.257213 0.03078 0.01975-0.109419 0.223162-0.311754 0.451873-0.222323 0.25132-0.676986 0.441855-1.1492225 0.481574-0.9506443 0.07995-0.9119089 0.09128-0.8113888-0.237481 0.048129-0.157444 0.2454522-0.218933 0.4762177-0.148378 0.43151 0.131924 1.5313956-0.221707 1.6231696-0.52186 0.03542-0.115871-0.07196-0.134019-0.279527-0.04725-0.244013 0.102015-0.319541 0.08364-0.273626-0.0666 0.04485-0.146627-0.05013-0.185083-0.323906-0.131101-0.257429 0.05077-0.5892342-0.05189-0.9893002-0.306166-0.7195891-0.457291-0.4988493-0.791455 0.2656173-0.402094l0.5349719 0.272475-0.5530724-0.434524c-1.3009739-1.022079-1.2821059-1.018905-1.2008535-0.201544 0.039815 0.400545-0.010314 0.800907-0.1114732 0.889683-0.1113133 0.09773-0.086809 0.135921 0.062121 0.0968 0.1353141-0.03558 0.2263763 6.96e-4 0.2023516 0.08061-0.1011518 0.335699 0.3320371 1.533938 0.5819504 1.610338 0.1493132 0.04573 0.296132 0.0024 0.3262729-0.09623zm0.1797819-1.229044c1.0985269-0.0094 1.1688819 0.01391 0.6332699 0.209979-0.2355944 0.08623-0.6734044 0.07595-0.9729262-0.02279-0.4970604-0.163964-0.4674392-0.180241 0.3396563-0.187157zm36.2643899 10.817563c0.179134-0.04909 0.457821 0.03702 0.681735 0.210643 0.247011 0.191726 0.359252 0.220044 0.322843 0.08145-0.0307-0.116846 0.03438-0.184875 0.144588-0.151176 0.11021 0.03374 0.177048-0.02758 0.14853-0.13613-0.03142-0.119899-0.301385-0.195683-0.687468-0.193069-0.349586 0.0024-0.738395-0.02007-0.863995-0.04997s-0.248922 0.01287-0.274034 0.09504c-0.05884 0.192462 0.145516 0.247811 0.527857 0.143014zm0.706184-0.974237c0.03014-0.09858-0.02582-0.203895-0.124441-0.234027-0.09858-0.03014-0.203879 0.02582-0.23402 0.124433-0.03014 0.09857 0.02582 0.203886 0.124433 0.234027 0.09857 0.03014 0.203887-0.02582 0.234028-0.124433zm-37.8292527-12.162893-0.3382892-0.496069 0.5041279 0.274154 0.5041199 0.274154-0.4428308-0.457414c-0.2435494-0.251592-0.4571417-0.484372-0.4746506-0.517295-0.017509-0.03294 0.4397128 0.122434 1.0160668 0.345236 0.6451907 0.249394 1.0693847 0.33486 1.1038027 0.222267 0.0307-0.100576-0.249833-0.26456-0.6235156-0.364408-0.3736668-0.09988-0.9214869-0.327289-1.2173711-0.505335-0.5706296-0.343454-0.766969-0.206629-0.4980917 0.347147 0.082676 0.170284 0.1407826 0.436043 0.129134 0.590577-0.022945 0.303743 0.2082598 0.643615 0.4961889 0.729465 0.098785 0.0295 0.027343-0.169684-0.1586832-0.442503zm3.4271757 0.154774c-0.0871-0.163792-0.707694-0.07547-0.764019 0.108747-0.02798 0.09155 0.144724 0.12779 0.384092 0.08061 0.239241-0.04717 0.410188-0.132372 0.379911-0.189327zm5.87519 2.110691c0.03014-0.09858-0.07091-0.217661-0.224626-0.264648-0.15367-0.04693-0.25423 0.01047-0.223434 0.127655 0.0307 0.117198 0.131861 0.236306 0.224618 0.264664 0.09276 0.0283 0.193309-0.0291 0.223442-0.127671zm32.807584 9.039964c0.16731-0.409404 0.270205-0.916761 0.228671-1.127492-0.05197-0.263288-0.01423-0.36436 0.12058-0.323154 0.107859 0.03294 0.167957-0.04725 0.133547-0.178223-0.08727-0.332221 0.345021-1.831581 0.513162-1.77999 0.174034 0.05341 0.246084-0.936238 0.09072-1.245985-0.07427-0.14813-0.148321-0.01151-0.205557 0.379223-0.04925 0.335867-0.145755 0.546533-0.214592 0.468111-0.115806-0.1319-0.185842 0.139064-0.493926 1.910899-0.06228 0.358228-0.253695 1.13017-0.425362 1.715439-0.352344 1.201437-0.206845 1.305738 0.252767 0.181172zm-32.125841-9.575112c-0.171131-0.09468-0.413226-0.117957-0.538035-0.05157-0.14653 0.07787-0.03654 0.138856 0.311123 0.172235 0.398499 0.03822 0.457342 0.0072 0.226912-0.12066zm-6.63944-2.55094c0.06828-0.03638-0.346301-0.176096-0.921231-0.310683-0.574931-0.134594-1.118802-0.20415-1.2086091-0.154622-0.089815 0.04949 0.3247541 0.189336 0.9212231 0.310683 0.596493 0.121331 1.140372 0.190911 1.208617 0.154614zm-2.1675041-1.280259c-0.041334-0.07771-0.1939889-0.131389-0.3391927-0.119188-0.1604661 0.01351-0.1309808 0.069 0.075152 0.14139 0.1865536 0.06556 0.3053581 0.05564 0.2640084-0.02223zm3.2118481-0.07555c0.03014-0.09858-0.02582-0.203879-0.124433-0.23402-0.09857-0.03014-0.203878 0.02582-0.234019 0.124425-0.03006 0.09859 0.02582 0.203895 0.124433 0.234036 0.09857 0.03006 0.203879-0.02582 0.234019-0.124441zm0.701483 0.09606c-0.04133-0.07771-0.193989-0.131381-0.339193-0.11918-0.160482 0.01351-0.13098 0.069 0.07515 0.141382 0.186553 0.06556 0.30535 0.05564 0.264016-0.02223zm26.979853 3.734597c0.700276-2.250292 1.203748-3.754369 1.118826-3.342382-0.120756 0.585676-0.06452 0.84735 0.25758 1.199782 0.397132 0.434468 0.431358 0.439657 0.948302 0.143741 0.439257-0.251441 0.606735-0.252312 0.925644-0.0048 0.404943 0.314296 1.296177 0.452201 1.369651 0.211889 0.02319-0.07587-0.234683-0.314104-0.573084-0.529352-0.338402-0.215247-1.438287-1.005353-2.444169-1.755773-1.658147-1.237038-4.143361-2.793778-5.804434-3.635907-0.637331-0.323107-0.846574-0.240823-0.594263 0.233723 0.205894 0.387211-0.115574 1.454221-0.518151 1.719756-0.315759 0.208316-0.332509 0.273259-0.140606 0.544958 0.449914 0.636964 1.554421 3.639961 1.394426 3.791281-0.09168 0.08668-0.08123 0.117398 0.02311 0.06828 0.208803-0.09831 0.696206 0.601962 0.611595 0.878706-0.02918 0.09537-0.160322 0.01959-0.291463-0.168477-0.215775-0.309364-0.224265-0.305134-0.08939 0.04445 0.08197 0.212513 0.229167 0.365344 0.327088 0.339624 0.0979-0.02574 0.438938 0.608661 0.757839 1.409729 0.318894 0.801075 0.639426 1.474727 0.71226 1.496993 0.07283 0.02223 0.221931 0.381166 0.331302 0.797526 0.109362 0.416368 0.245148 0.732431 0.301712 0.702346 0.0566-0.03014 0.675819-1.895844 1.37611-4.146135zm-31.8665101-6.16712c0.011833-0.03878-0.088943-0.156732-0.2239858-0.262217-0.1407746-0.109994-0.2219151-0.101911-0.1901832 0.01887 0.053166 0.202479 0.3697892 0.388497 0.414169 0.243341zm-0.4096759-1.224102c-0.1152948-0.131317-0.2622815-0.210763-0.3266326-0.176544-0.064359 0.03422-0.022706 0.169652 0.092605 0.300977 0.1152948 0.1313 0.2622815 0.210754 0.3266486 0.176536 0.064359-0.03422 0.022706-0.169653-0.092621-0.300969zm1.1243021 0.168716c0.0269429-0.088024-0.0679568-0.251328-0.2107462-0.362889-0.2171261-0.169596-0.236234-0.146763-0.1166059 0.139359 0.1630325 0.389921 0.2568929 0.454008 0.3273521 0.22353zm-0.8161618-0.859638c-0.1185087-0.252471-0.2773838-0.426113-0.3530478-0.385875-0.075712 0.04013-0.01607 0.235363 0.132332 0.433613 0.3812779 0.509205 0.4728358 0.489401 0.2207158-0.04773zm2.3321677 1.029155c0.01183-0.03878-0.08894-0.156741-0.223978-0.26221-0.140775-0.110002-0.221915-0.101919-0.190183 0.01887 0.05317 0.202488 0.369789 0.388498 0.414161 0.243334zm40.390945 11.476249c0.08818-0.288433 0.03902-0.70548-0.113104-0.960166-0.267358-0.447516-0.269261-0.446789-0.312178 0.119156-0.08029 1.0586-0.0654 1.248575 0.102239 1.299815 0.09193 0.02814 0.237306-0.178359 0.323043-0.458805zm-42.4896209-13.095365c-0.1312767-0.1821-0.1806613-0.361946-0.1097463-0.399658 0.070915-0.03766 0.064839-0.141486-0.013351-0.230606-0.07827-0.0891-0.1578518-0.0562-0.1769197 0.07331-0.056364 0.382741 0.092773 0.764666 0.3234906 0.828521 0.1198039 0.03294 0.1093146-0.08732-0.023505-0.271539zm1.2398609 0.582038c0.01039-0.03398-0.115583-0.270956-0.279966-0.526553l-0.2988746-0.464713 0.2181415 0.507645c0.2049901 0.477066 0.3168551 0.627042 0.3606991 0.483621zm2.893571-0.13186c-0.147099-0.203223-0.353632-0.393046-0.458973-0.42182-0.105413-0.02854-0.07115 0.113968 0.07595 0.317183 0.147098 0.203222 0.353639 0.393054 0.458972 0.421828 0.105421 0.02854 0.07115-0.113976-0.07595-0.317191zm1.275718 0.597269c0.01431-0.04677-0.17772-0.2841-0.42669-0.527441-0.248977-0.243342-0.475913-0.366432-0.504311-0.273539-0.04085 0.13366 0.29271 0.464777 0.864523 0.858144 0.02231 0.01527 0.05213-0.01039 0.06644-0.05716zm-3.294333-1.404173c-0.07747-0.185378-0.221579-0.361706-0.320156-0.391847-0.09998-0.03054-0.116918 0.09424-0.0383 0.282261 0.07755 0.185378 0.221579 0.361722 0.320157 0.391855 0.09997 0.03054 0.116909-0.09424 0.03829-0.282269zm4.067298 1.171057c-0.02678-0.101927-0.28023-0.3717-0.563211-0.59946-0.283004-0.227759-0.79292-0.758174-1.13316-1.178683-0.604488-0.747086-0.61509-0.752426-0.463986-0.23346 0.143174 0.491728 0.546126 0.954786 1.534538 1.763408 0.498148 0.407534 0.68738 0.482582 0.625811 0.248211zm-5.4280577-2.168911c-0.2216113-0.332813-0.4828214-0.632279-0.5804634-0.665473-0.097538-0.0335 0.0032 0.211953 0.2254168 0.544774 0.2216033 0.332812 0.4828215 0.632278 0.5804553 0.665465 0.09755 0.0335-0.0032-0.211945-0.2254087-0.544766zm2.6809297 1.034327c-0.025104-0.021346-0.225921-0.314336-0.446309-0.651178l-0.400697-0.612459 0.263856 0.585156c0.145116 0.321828 0.187106 0.625963 0.09332 0.675827-0.0938 0.04989-0.01167 0.07955 0.182452 0.06604 0.194133-0.01351 0.332461-0.04205 0.307373-0.0634zm0.65851 0.02958c-0.171411-0.405566-1.080434-1.363614-0.998742-1.052603 0.06116 0.233068 0.883119 1.259648 1.051093 1.312846 0.03662 0.01159 0.01303-0.105525-0.05237-0.260243zm23.090978 6.823268c0.04389-0.143533-0.0016-0.23956-0.101271-0.2134-0.09957 0.02614-0.157596 0.136825-0.128951 0.245915 0.07323 0.278807 0.137809 0.269685 0.230206-0.03254zm-26.4161628-8.574802c-0.0307005-0.117198-0.1523992-0.241231-0.2702603-0.275609-0.1286783-0.03782-0.1281986 0.03965 0.0016 0.193421 0.2762806 0.327784 0.3383292 0.346756 0.2688373 0.0822zm0.8316558 0.151527c-0.07875-0.18836-0.19139-0.316854-0.250297-0.28553-0.162289 0.08629-0.01375 0.503528 0.202903 0.56975 0.118837 0.03638 0.136681-0.07067 0.04741-0.284212zm21.077313 6.16096 0.530975-0.223434-0.647565 0.03478c-0.356158 0.01911-0.666816 0.09774-0.690346 0.174697-0.07355 0.2406 0.254815 0.246276 0.806936 0.01391zm-20.371865-6.484386c0.01447-0.07371 0.05532-0.235419 0.09081-0.359292 0.03566-0.123841-0.02894-0.474324-0.143293-0.778743-0.171755-0.457458-0.260891-0.52485-0.513826-0.38843-0.252056 0.135954-0.246364 0.260205 0.0323 0.704735 0.186066 0.296831 0.269781 0.635992 0.186034 0.753677-0.08376 0.117693-0.04565 0.211314 0.08472 0.208044 0.13035-0.0032 0.248818-0.0662 0.263281-0.139983zm-1.258944-0.417415c0.01335-0.04349-0.04125-0.153543-0.1211874-0.244604-0.079965-0.09103-0.1714911-0.08013-0.2033909 0.02423-0.03198 0.104396 0.022626 0.214471 0.1211871 0.244603 0.098577 0.03014 0.1901032 0.01927 0.2033912-0.02422zm0.523947-0.443755c-0.07523-0.179864-0.227999-0.303053-0.339552-0.273748-0.113632 0.02982-0.109419 0.252257 0.0096 0.505752 0.239336 0.50989 0.549132 0.292092 0.329999-0.232004zm32.864564 10.465056c0.01183-0.03878-0.08525-0.153839-0.215759-0.25579-0.130509-0.101975-0.261186-0.10726-0.290383-0.01175-0.02918 0.09548 0.06796 0.210594 0.215767 0.255797 0.147866 0.04517 0.278535 0.05053 0.290375 0.01175zm-30.900395-9.879887c-0.08273-0.19785-0.133739-0.469312-0.113368-0.603239 0.04917-0.323127-0.405151-1.593314-0.590114-1.649862-0.271339-0.08296-0.223618 0.204961 0.16799 1.013398 0.214759 0.443361 0.26388 0.643285 0.109139 0.444282-0.154726-0.19901-0.344917-0.511455-0.422636-0.694322-0.07771-0.18286-0.197795-0.302436-0.266847-0.265722-0.149129 0.07929 0.878826 1.996736 1.108025 2.066811 0.08701 0.02662 0.09055-0.113496 8e-3 -0.311346zm36.569636 11.195491c-0.07875-0.188368-0.204119-0.310083-0.278591-0.270492-0.07443 0.03957-0.03966 0.1833 0.07731 0.319325 0.306061 0.355966 0.364608 0.341759 0.201304-0.04877zm-1.239765-1.060222c-0.118653-0.140759-0.29638-0.28059-0.394957-0.310723-0.09857-0.03014-0.08216 0.06036 0.03646 0.201136 0.118652 0.140751 0.296379 0.28059 0.394957 0.310723 0.09857 0.03006 0.08216-0.06036-0.03646-0.201136zm-1.587944-1.857349c0.03014-0.09858-0.03062-0.205334-0.13501-0.237257-0.10439-0.03198-0.164607 0.03782-0.133827 0.155069 0.03078 0.117198 0.09154 0.22397 0.13501 0.237257 0.04349 0.01335 0.103694-0.05644 0.133827-0.155069zm-1.09863-0.893681c0.02199-0.07179-0.12365-0.194308-0.323539-0.272267-0.296571-0.11571-0.338689-0.08252-0.228846 0.180142 0.128974 0.308468 0.46891 0.36516 0.552385 0.09212zm-1.394763-0.56612c0.04693-0.153679-0.01047-0.254231-0.127662-0.223442-0.117198 0.0307-0.236298 0.131868-0.264656 0.224617-0.0283 0.09276 0.0291 0.193309 0.127662 0.22345 0.09858 0.03014 0.21767-0.07091 0.264656-0.224625zm-19.489073-6.534787c-0.01151-0.165215-0.05269-0.310067-0.09141-0.321915-0.03878-0.01183-0.107428 0.09945-0.152639 0.247306-0.04517 0.147859-4e-3 0.292735 0.09141 0.321924 0.09549 0.02918 0.164176-0.08211 0.152639-0.247315zm18.0678 5.41433c0.0283-0.09276-0.0291-0.193309-0.127655-0.223442-0.09858-0.03014-0.21767 0.07091-0.264656 0.224626-0.04693 0.153678 0.01047 0.25423 0.127663 0.223442 0.117198-0.0307 0.236298-0.131869 0.264648-0.224626zm-0.694463-0.292598c0.05093-0.166518-0.03606-0.25507-0.23669-0.241071-0.255366 0.01783-0.279622 0.06596-0.124417 0.246787 0.256645 0.299115 0.268014 0.298931 0.361147-0.0056zm-0.96729-0.682263c0.0578-0.189168-0.261818-0.37381-0.414729-0.239552-0.09254 0.08125-0.04253 0.186162 0.111154 0.233156 0.153678 0.04693 0.290287 0.04989 0.303575 0.0064zm-0.541864-0.471205c0.209539-0.183971-0.02774-0.256517-0.448067-0.136985-0.277464 0.07891-0.280191 0.104726-0.01975 0.186938 0.166279 0.05237 0.376729 0.02998 0.467799-0.04997zm3.248753 0.608622c0.117174 0.136273 0.294189 0.270812 0.393375 0.298962 0.196882 0.05572-0.475906-0.70524-0.691665-0.782519-0.07291-0.02598-0.174402 0.09408-0.225625 0.267046-0.06292 0.212977-0.0279 0.25866 0.108859 0.141615 0.133227-0.114016 0.274545-0.08851 0.415056 0.07491zm-2.492233-1.36694c-0.153487-0.265559-0.302928-0.404807-0.332085-0.309436-0.07347 0.240376 0.320468 0.946855 0.480526 0.861741 0.07179-0.03821 0.0048-0.286738-0.148441-0.552305zm-3.633869-1.689223c0.06028-0.197147 0.07867-0.367903 0.04085-0.379456-0.03782-0.01151-0.160202 0.1274-0.272035 0.308788-0.111825 0.181381-0.130253 0.352137-0.04085 0.379463 0.08934 0.02734 0.211761-0.111649 0.272035-0.308795zm-0.190831-0.657847c0.0283-0.09276-0.0291-0.193309-0.127671-0.223442-0.09857-0.03014-0.217669 0.07091-0.264656 0.224617-0.04693 0.153687 0.01047 0.254231 0.127671 0.223451 0.11719-0.0307 0.23629-0.131869 0.264656-0.224626zm1.843829 0.379303c0.03014-0.09857-0.0662-0.216222-0.21404-0.261426-0.147858-0.04517-0.293501-0.0016-0.323642 0.09704-0.03014 0.09858 0.0662 0.216206 0.214056 0.261418 0.147858 0.04517 0.293486 0.0016 0.323626-0.09703zm-17.824234 40.004991c-0.03278-0.125001-0.0095-0.253959 0.05181-0.286578 0.06124-0.03262 0.121251 0.07971 0.133108 0.249714 0.02462 0.352871-0.09566 0.37684-0.184947 0.03686zm-7.294033-3.980776c0.04517-0.147874 0.197355-0.365928 0.338122-0.484573 0.227495-0.19175 0.246795-0.18585 0.173737 0.05317-0.04517 0.147874-0.197362 0.365919-0.338121 0.484572-0.227503 0.19175-0.246803 0.18585-0.173738-0.05317zm31.698745-4.9841c0.03014-0.09857 0.150689-0.204422 0.267886-0.235194 0.11719-0.03078 0.188448 0.02462 0.1583 0.123249-0.03022 0.09858-0.150689 0.204415-0.267886 0.235203-0.117198 0.0307-0.188441-0.02462-0.1583-0.123258zm0.87841-0.930457c0.04517-0.147866 0.197363-0.365919 0.33813-0.484564 0.227487-0.19175 0.246795-0.18585 0.173729 0.05309-0.04517 0.147866-0.197354 0.36592-0.338121 0.484564-0.227487 0.191759-0.246795 0.185858-0.173738-0.05317zm4.043673-8.758718c0.03014-0.09857 0.140207-0.153119 0.244605-0.121196 0.104389 0.03198 0.115294 0.123434 0.02422 0.203383-0.09103 0.07996-0.201128 0.134499-0.244596 0.121211-0.04349-0.01335-0.05437-0.104821-0.02423-0.203398zm-33.284594-21.244951c-0.298339-0.574003-0.487986-1.072599-0.421436-1.107976 0.06652-0.03534 0.248578 0.194804 0.404495 0.511515 0.155933 0.316719 0.403863 0.612651 0.550978 0.65763 0.147107 0.04501 0.197043 0.119205 0.110938 0.165007-0.08606 0.04573-0.06804 0.271764 0.04013 0.502226 0.415488 0.885158-0.17002 0.262681-0.685125-0.728402zm33.491431 9.836498c-0.716226-0.915866-1.38349-1.690063-1.482811-1.720427-0.09931-0.03038-0.161154-0.118677-0.137441-0.19626 0.07467-0.244316-1.873722-2.205415-2.125466-2.139289-0.142062 0.03734-0.165927-0.0024-0.05844-0.09639 0.323874-0.284356-3.283387-3.982256-3.95883-4.058295-0.24359-0.02742-0.566569-0.222259-0.717721-0.432997-0.256197-0.357142-0.236625-0.358812 0.288505-0.02454 0.84488 0.537747 0.805505 0.372396-0.130789-0.549267-0.463218-0.45599-0.863356-0.908159-0.889195-1.004842-0.09743-0.364616 4.197471 4.048637 6.796061 6.983318 1.965272 2.219463 4.179442 5.118174 3.761283 4.924153-0.02367-0.01087-0.628912-0.769255-1.345153-1.685122zm-37.17785-12.535502c-0.08-0.19136-0.09281-0.375912-0.02846-0.410133 0.06436-0.03421 0.182476 0.09437 0.262481 0.285698 0.08 0.19136 0.09281 0.37592 0.02846 0.410133-0.06436 0.03421-0.182468-0.09437-0.262481-0.285698zm8.275049 1.0172c-0.19163-0.685254-0.209011-1.243778-0.03246-1.042679 0.186674 0.212611 0.406134 1.405545 0.271724 1.477019-0.05645 0.02998-0.164088-0.165455-0.239281-0.43434zm23.685122 6.304245c0.09103-0.07996 0.246211-0.120699 0.344789-0.09057 0.09858 0.03014 0.104725 0.120203 0.01367 0.20016-0.09104 0.07996-0.246212 0.120708-0.344789 0.09057-0.09857-0.03006-0.104718-0.120204-0.01367-0.200161zm-23.330403-8.553671c-0.01479-0.587255-0.0032-0.605354 0.143797-0.212547 0.08801 0.236134 0.127743 0.534909 0.08829 0.663927-0.122179 0.399663-0.215159 0.218857-0.232085-0.45138zm19.752306 5.486571c-0.03294-0.125193-0.182963-0.219021-0.333508-0.208508-0.150536 0.01047-0.297795-0.07259-0.327232-0.184675-0.08423-0.320668 0.586939-0.03926 0.883471 0.370429 0.147099 0.203223 0.17062 0.342694 0.05229 0.309939-0.118429-0.03254-0.24211-0.161985-0.274994-0.287185zm-23.133495-8.880525c0.121371-0.156162 0.251968-0.225013 0.290288-0.152953 0.0383 0.07209-0.061 0.199831-0.22062 0.283969-0.230726 0.121567-0.245021 0.09469-0.06972-0.131016zm18.012195 5.466364-0.369765-0.393124 0.494734 0.144587c0.477593 0.139347 0.622501 0.02451 0.720255-0.570666 0.03694-0.224673 0.07787-0.22184 0.207532 0.01452 0.08886 0.1619 0.301968 0.337294 0.473587 0.389761 0.171619 0.05249 0.33358 0.177441 0.359924 0.277708 0.0263 0.100271-0.128935 0.08901-0.345045-0.02507-0.397324-0.209677-0.864356 0.109825-0.757144 0.517997 0.07627 0.290456-0.364672 0.09059-0.784174-0.355422zm3.007155 0.09986c-1.867966-1.5975-3.978178-3.190842-5.095165-3.847176-0.548244-0.322149-1.55606-0.919972-2.23957-1.328505-0.939947-0.5618-1.877088-0.93279-3.846078-1.5225594-2.89381-0.8668048-4.271815-1.0140913-6.354813-0.6793127-1.189708 0.1912114-1.214133 0.1875634-0.606479-0.090604 0.348211-0.1594068 1.404141-0.2958698 2.34647-0.3032507 1.581812-0.012392 1.947404 0.057659 4.761985 0.9123439 2.850758 0.8656359 3.179597 1.0060229 5.066175 2.1624349 1.787065 1.095417 6.083369 4.384627 7.164499 5.485069 0.701019 0.713547 0.08418 0.307245-1.197024-0.788443zm-2.994603-0.781955c-0.376273-0.261103-0.376689-0.273422-0.0064-0.178305 0.218981 0.05625 0.423332 0.19809 0.45412 0.315286 0.03078 0.117196 0.0335 0.19743 0.0064 0.178305-0.0275-0.01912-0.231805-0.161015-0.45412-0.315286zm-17.292628-5.597182c0.07427-0.2159257 0.554424-0.531084 1.095537-0.719143 0.241215-0.083819 0.111369 0.052415-0.288537 0.3027694-0.399906 0.2503434-0.757655 0.4830146-0.795007 0.5170436-0.03742 0.03407-0.04269-0.01154-0.01199-0.100663zm12.998195 2.336008c0.0283-0.09276 0.146355-0.193549 0.262218-0.223986 0.120795-0.03173 0.128846 0.04937 0.01895 0.190191-0.214081 0.274067-0.359916 0.291598-0.281094 0.03379z" fill="#210b0b" stroke-width=".187417"/>
</svg>
