<?xml version="1.0" encoding="UTF-8" standalone="no"?>
<!-- Created with Inkscape (http://www.inkscape.org/) -->

<svg
   width="5.9999409mm"
   height="5.6030846mm"
   viewBox="0 0 5.9999409 5.6030846"
   version="1.1"
   id="svg5"
   inkscape:version="1.1.1 (1:1.1+202109281949+c3084ef5ed)"
   sodipodi:docname="bomb.svg"
   xmlns:inkscape="http://www.inkscape.org/namespaces/inkscape"
   xmlns:sodipodi="http://sodipodi.sourceforge.net/DTD/sodipodi-0.dtd"
   xmlns="http://www.w3.org/2000/svg"
   xmlns:svg="http://www.w3.org/2000/svg">
  <sodipodi:namedview
     id="namedview7"
     pagecolor="#ffffff"
     bordercolor="#666666"
     borderopacity="1.0"
     inkscape:pageshadow="2"
     inkscape:pageopacity="0.0"
     inkscape:pagecheckerboard="0"
     inkscape:document-units="mm"
     showgrid="false"
     inkscape:snap-global="false"
     inkscape:zoom="30.676168"
     inkscape:cx="11.686596"
     inkscape:cy="10.464149"
     inkscape:window-width="1920"
     inkscape:window-height="1151"
     inkscape:window-x="0"
     inkscape:window-y="25"
     inkscape:window-maximized="1"
     inkscape:current-layer="layer1"
     fit-margin-top="0"
     fit-margin-left="0"
     fit-margin-right="0"
     fit-margin-bottom="0" />
  <defs
     id="defs2">
    <inkscape:path-effect
       effect="fillet_chamfer"
       id="path-effect41141"
       is_visible="true"
       lpeversion="1"
       satellites_param="F,0,0,1,0,1.0583333,0,1 @ F,0,0,1,0,1.0583333,0,1 @ F,0,0,1,0,1.0583333,0,1 @ F,0,0,1,0,1.0583333,0,1 @ F,0,0,1,0,1.0583333,0,1"
       unit="px"
       method="auto"
       mode="F"
       radius="4"
       chamfer_steps="1"
       flexible="false"
       use_knot_distance="true"
       apply_no_radius="true"
       apply_with_radius="true"
       only_selected="false"
       hide_knots="false" />
  </defs>
  <g
     inkscape:label="Layer 1"
     inkscape:groupmode="layer"
     id="layer1"
     transform="translate(-196.63642,9.8862657)">
    <path
       id="path63743"
       style="color:#000000;fill:#e6e6e6;stroke-width:0.627016;stroke-linecap:round;stroke-linejoin:round;-inkscape-stroke:none"
       d="m 201.35814,-9.8862657 c -0.17574,5.479e-4 -0.28875,0.0575 -0.38968,0.090207 -0.14678,0.047558 -0.28171,0.1345935 -0.39998,0.2493442 -0.0713,0.00276 -0.15236,0.00823 -0.24502,0.025059 -0.13163,0.023897 -0.28606,0.048013 -0.42948,0.2092091 -0.0172,0.019413 -0.0328,0.039548 -0.0469,0.059987 -0.13571,-0.079152 -0.31815,-0.133313 -0.54541,-0.1380325 -0.17155,-0.00357 -0.37103,0.018343 -0.60836,0.072882 -1.119,0.223611 -1.9228,1.0060762 -2.03963,2.074506 -0.0441,0.3937228 -0.0147,1.0953876 0.21882,1.5971812 0.0627,0.1345613 0.1455,0.2640959 0.24308,0.3876793 l -0.002,-0.00421 a 0.31353987,0.31353987 0 0 0 0.0367,0.041281 l -0.0322,-0.034518 c 0.24668,0.3114414 0.59151,0.5915511 1.00096,0.7373184 0.48259,0.1717959 0.62957,0.1925131 0.90388,0.2198368 0.34105,0.033976 0.84937,0.030001 1.25073,-0.2086689 0.14524,-0.086368 0.33232,-0.2110869 0.50843,-0.3459023 0.17611,-0.1348153 0.33464,-0.2592397 0.44991,-0.4335171 0.0372,-0.056335 0.17921,-0.2091211 0.29314,-0.4467588 0.11387,-0.2376379 0.19459,-0.565771 0.1706,-1.0066006 -0.0304,-0.5578878 -0.20173,-0.9406984 -0.33275,-1.158307 l 0.0811,-0.1360668 c 0.0414,-0.065494 0.0706,-0.1336376 0.0917,-0.2022317 0.0421,0.046232 0.0863,0.084672 0.12834,0.1196713 0.0925,0.077011 0.1407,0.1202844 0.26178,0.1670646 0.15635,0.060403 0.23683,0.013686 0.29898,-0.012442 0.0622,-0.026129 0.11064,-0.057915 0.1578,-0.095219 0.0943,-0.074609 0.18864,-0.1599111 0.2363,-0.3332004 0.0835,-0.3034587 -0.16094,-0.5255605 -0.16094,-0.5255605 a 0.31353987,0.31353987 0 0 0 -0.20211,-0.075 c 0,0 0.0536,0.00659 0.0528,0.00627 -9.2e-4,-3.26e-4 -0.0219,-0.0079 -0.0624,-0.039401 0.0153,0.011879 -0.0264,-0.033566 -0.0604,-0.110685 -0.0341,-0.077118 -0.0676,-0.1768149 -0.11063,-0.2773827 -0.11999,-0.2806152 -0.36362,-0.4485769 -0.6404,-0.4707363 -0.0258,-0.00206 -0.0512,-0.00312 -0.0764,-0.00305 z m -0.52528,0.173437 a 0.31353987,0.31353987 0 0 0 -3e-4,2.809e-4 0.31353987,0.31353987 0 0 0 -8.4e-4,2.592e-4 c 0.001,-5.68e-4 -2.7e-4,1.381e-4 0.001,-5.401e-4 z m -0.12492,0.1184401 a 0.31353987,0.31353987 0 0 0 -6.9e-4,0.002 l -3.2e-4,-3.457e-4 c 0,0 6.6e-4,-0.00109 0.001,-0.00166 z m 0.62089,0.7271009 8.3e-4,0.00856 -0.007,0.015467 -0.0222,0.00453 a 0.31353987,0.31353987 0 0 0 0.0286,-0.028557 z" />
    <path
       style="fill:#333333;stroke:#000000;stroke-width:0.0110598px;stroke-linecap:butt;stroke-linejoin:miter;stroke-opacity:1"
       d="m 199.85576,-8.7474924 -0.17489,-0.2287486 -0.17499,-0.054385 -0.25724,-0.030649 -0.48542,0.051937 -0.38724,0.1349512 -0.53221,0.2313815 -0.33195,0.3306087 -0.26025,0.3422295 -0.15248,0.2682786 -0.0652,0.2698292 -0.0667,0.3751037 0.0264,0.3502183 0.0867,0.551677 0.18238,0.4937777 0.15535,0.2406531 0.29509,0.2791131 0.28953,0.1624765 0.21769,0.1322889 0.46062,0.1451126 0.29536,0.057563 0.67395,-0.016912 0.45209,-0.1569953 0.25668,-0.1510444 0.45056,-0.3566722 0.31307,-0.3749437 0.1241,-0.2364873 0.0846,-0.330601 0.0272,-0.4108892 -0.0564,-0.4779688 -0.0827,-0.2771855 -0.1032,-0.2169331 -0.14028,-0.2281099 0.21581,-0.3849576 -0.24436,0.133448 -0.30024,-0.00515 -0.24763,-0.09544 -0.23013,-0.1734694 -0.0798,-0.1770811 -0.0224,-0.29048 0.0325,-0.1536658 z"
       id="path40059"
       sodipodi:nodetypes="cccccccccccccccccccccccccccccccccccccccccc" />
    <path
       id="path41293"
       style="fill:#1a1a1a;fill-opacity:1;stroke:none;stroke-width:0.0110598px;stroke-linecap:butt;stroke-linejoin:miter;stroke-opacity:1"
       d="m 200.58178,-9.2099279 -0.3003,0.028514 -0.14499,0.1051125 -0.0709,0.2071135 0.0204,0.3224648 0.21837,0.2486962 0.28023,0.1427417 c 0,0 -0.1039,0.193396 -0.19104,0.2984658 -0.0871,0.1050692 -0.37357,0.3078837 -0.37357,0.3078837 l 0.29069,0.02495 0.31266,-0.039034 0.34826,-0.3149258 0.15507,-0.2726305 c 0,0 0.0764,-0.1148428 0.0764,-0.1228252 0,-0.00798 0.0571,-0.1653367 0.0571,-0.1653367 l -0.0233,-0.14987 -0.0363,-0.1544712 -0.1611,-0.2290606 -0.12062,0.2248484 -0.0974,0.1671728 -0.0475,0.03171 -0.14599,-0.04478 -0.0863,-0.044975 -0.11124,-0.1165825 -0.006,-0.077658 0.18283,-0.2634283 0.0921,-0.1131904 z m 0.63816,1.7700567 c 0,0 -0.0218,0.4734692 -0.11808,0.6838118 -0.20321,0.4440971 -0.51107,0.8807073 -0.92951,1.1325581 -0.48128,0.2896774 -1.0945,0.407139 -1.65157,0.334907 -0.51435,-0.066692 -1.39562,-0.6879161 -1.39562,-0.6879161 l 0.23699,0.5249989 0.4148,0.3843526 0.55668,0.2838415 0.63395,0.1397174 0.34136,0.013781 0.4742,-0.057352 0.45599,-0.1988836 0.54192,-0.3913513 0.38136,-0.4785992 0.12991,-0.2830208 0.0563,-0.418742 -0.0251,-0.6079262 z" />
    <path
       style="fill:#e6e6e6;fill-opacity:1;stroke:#000000;stroke-width:0.0110598px;stroke-linecap:butt;stroke-linejoin:miter;stroke-opacity:1"
       d="m 200.42024,-8.8281175 0.35478,-0.4509546 0.10643,-0.1093483 0.16653,-0.079955 0.14937,-0.060957 0.10847,-0.025828 0.18305,0.020058 0.13478,0.060509 0.0967,0.1253281 0.0612,0.096723 0.0463,0.1274624 0.0674,0.1394355 0.13122,0.214821 0.19093,0.1202231 0.0749,0.044735 0.0256,0.071208 -0.058,0.1473017 -0.0864,0.084961 -0.0887,0.043321 -0.11172,-0.026409 -0.13924,-0.1146136 -0.0775,-0.09417 -0.075,-0.1315944 -0.0843,-0.2561992 -0.0992,-0.1553404 -0.0489,-0.047696 -0.0911,-0.031319 -0.15207,0.00334 -0.0745,0.029323 -0.0656,0.049243 -0.082,0.1770732 -0.15859,0.2713643 -0.0303,0.027718 -0.1215,-0.012512 -0.0907,-0.044239 -0.0791,-0.046571 z"
       id="path61750" />
    <path
       id="path871"
       style="fill:#0e0f0f;fill-opacity:1;stroke:#494d50;stroke-width:0.0110598px;stroke-linecap:butt;stroke-linejoin:miter;stroke-opacity:1"
       d="m 201.35912,-9.5727655 c -0.10992,3.428e-4 -0.17115,0.035144 -0.29403,0.074958 -0.14042,0.045502 -0.20555,0.089933 -0.32091,0.2172229 -0.012,0.012819 -0.0248,0.028733 -0.0383,0.044953 -0.0123,-3.974e-4 -0.0189,-9.11e-4 -0.0488,-7.344e-4 -0.13776,8.146e-4 -0.42611,0.016872 -0.52882,0.1323081 -0.017,0.019104 -0.0312,0.040092 -0.043,0.062471 l -0.23213,0.2599721 -0.001,-0.00667 c 0,0 -0.053,-0.2783101 -0.55656,-0.2887666 -0.14098,-0.00293 -0.31726,0.015144 -0.53761,0.066209 -1.01872,0.2025048 -1.68992,0.8636586 -1.7923,1.8023938 -0.0342,0.3038393 0.0148,1.0509334 0.19145,1.4302029 0.17658,0.3792697 0.59242,0.7955631 1.06703,0.9645212 0.4746,0.1689585 0.55468,0.1758184 0.8298,0.2032253 0.27513,0.027408 0.79496,-0.00891 1.05942,-0.1661574 0.26446,-0.15726 0.72475,-0.4828236 0.8571,-0.6829262 0.13235,-0.2001026 0.45533,-0.4702941 0.41218,-1.2633543 -0.0393,-0.7205097 -0.33686,-1.0998346 -0.39151,-1.1638582 l 0.18394,-0.3086832 c 0.124,-0.1890646 0.11315,-0.293165 0.0727,-0.4870452 -0.0242,-0.1111529 -0.19313,-0.2813574 -0.19313,-0.2813574 l -0.0136,0.034172 c 0.0206,-0.018671 0.30748,0.4309147 0.15623,0.6213192 -0.1889,0.2378004 -0.6812,0.1740338 -0.91611,-0.018448 -0.19615,-0.1607222 -0.25632,-0.5461275 -0.10943,-0.7528497 0.0902,-0.1268943 0.40498,-0.1119329 0.49391,-0.1052637 -0.11568,0.147381 -0.2572,0.3525338 -0.2572,0.3525338 0,0 -0.0172,0.1193089 0.1623,0.2216945 0.17963,0.1023852 0.23951,0.069794 0.23951,0.069794 0,0 0.1758,-0.2817763 0.24149,-0.4333875 0.0657,-0.1516113 0.28578,-0.1471155 0.38551,-0.08956 0.0997,0.057556 0.19907,0.3512157 0.25642,0.4981052 0.0574,0.1468894 0.28407,0.2998149 0.34533,0.32348 0.0614,0.023665 0.2442,-0.1093506 0.27783,-0.2315664 0.0336,-0.1222153 -0.0622,-0.2039164 -0.0622,-0.2039164 0,0 -0.0737,-3.259e-4 -0.20072,-0.099171 -0.12709,-0.098847 -0.19646,-0.3476955 -0.26683,-0.5122757 -0.0704,-0.1645801 -0.23296,-0.2699434 -0.37713,-0.281487 -0.018,-0.00144 -0.0348,-0.0021 -0.0504,-0.00205 z m -0.014,0.027002 c 0.0465,2.336e-4 0.0815,0.010811 0.11423,0.0205 0,0 -0.11496,0.094767 -0.13228,0.1639973 -0.0254,0.1011899 0.0317,0.2302703 0.0317,0.2302703 l -0.11159,0.00251 c 0,0 -0.0808,-0.093214 -0.0868,-0.212557 -0.006,-0.1193425 0.0699,-0.1870677 0.0699,-0.1870677 0.0456,-0.013112 0.0828,-0.017808 0.1146,-0.017648 z m 0.14598,0.031019 c 0,0 0.12195,0.0413 0.15322,0.085952 0.0313,0.044651 0.0838,0.1355915 0.0838,0.1355915 -0.11328,0.021163 -0.20501,0.092808 -0.2802,0.2030742 l -0.0545,-0.025317 c 0,0 -0.0439,-0.1720075 -0.0278,-0.2171367 0.016,-0.045129 0.12564,-0.1821641 0.12564,-0.1821641 z m -0.3076,7.993e-4 c 0,0 -0.0944,0.091666 -0.0642,0.2236602 0.0301,0.1319942 0.0826,0.167216 0.0826,0.167216 l -0.11184,0.057892 c 0,0 -0.11087,-0.052921 -0.13211,-0.1265191 -0.0212,-0.073599 0.0558,-0.2568614 0.0558,-0.2568614 z m -0.20554,0.078867 c 0,0 -0.11375,0.1781961 -0.0601,0.2654805 0.0536,0.087284 0.15239,0.1277718 0.15239,0.1277718 l -0.0938,0.1604332 c 0,0 -0.12083,-0.024605 -0.16321,-0.085823 -0.0423,-0.061216 -0.0379,-0.2926333 -0.0379,-0.2926333 0,0 0.0528,-0.068318 0.0905,-0.1043998 0.0377,-0.036081 0.1122,-0.07083 0.1122,-0.07083 z m 0.78535,0.1654879 0.0583,0.1465434 c 0,0 -0.0658,-0.00817 -0.16229,0.062169 -0.0324,0.023619 -0.0991,0.1083091 -0.0991,0.1083091 l -0.0749,-0.1215508 c 0,0 0.0451,-0.070947 0.098,-0.122998 0.053,-0.052052 0.17996,-0.072472 0.17996,-0.072472 z m -1.02139,0.039099 c 0,0 0.008,0.1912945 0.0329,0.2524548 0.0244,0.06116 0.19212,0.1162801 0.19212,0.1162801 l -0.0658,0.1198225 c 0,0 -0.17577,-0.0264 -0.22499,-0.045882 -0.0492,-0.019481 -0.14026,-0.1871541 -0.14026,-0.1871541 z m 1.06495,0.1472994 c 0.0176,-1.979e-4 0.0289,0.0034 0.0289,0.0034 l 0.10464,0.2015835 c 0,0 -0.10716,0.016856 -0.1597,0.046314 -0.0526,0.029457 -0.10404,0.1526134 -0.10404,0.1526134 l -0.0744,-0.2213705 c 0,0 0.0394,-0.067475 0.10223,-0.134209 0.0372,-0.039623 0.0765,-0.048033 0.10236,-0.048322 z m -2.59425,0.04357 c 0.5575,-0.011591 0.59755,0.3048598 0.59755,0.3048598 0,0 -0.32477,0.2990361 -0.35143,0.3519504 -0.0266,0.052915 -0.0434,0.4374781 0.25451,0.7185468 0.2979,0.2810689 0.84421,0.1490312 0.92866,0.1092595 0.0708,-0.033363 0.23275,-0.1880747 0.29149,-0.2448079 l 0.005,0.00203 0.008,-0.014062 c 0.006,-0.00575 0.0311,-0.02927 0.0311,-0.02927 0,0 0.24586,0.3861301 0.29034,0.6030444 0.0445,0.2169145 0.0845,0.5500883 0.0164,1.0528492 -0.0681,0.5027609 -0.51531,0.9857995 -1.1983,1.334401 -0.68298,0.3486013 -1.63289,0.155264 -2.30725,-0.2997403 -0.67436,-0.4550039 -0.76005,-1.3359032 -0.77576,-1.9039201 -0.0186,-0.6726796 0.63911,-1.6534961 1.73548,-1.9167729 0.18963,-0.045537 0.34585,-0.065693 0.47449,-0.068368 z m 1.31438,0.094441 c 0,0 0.0948,0.1466202 0.1342,0.1845619 0.0394,0.037942 0.23443,0.049921 0.23443,0.049921 l -0.11494,0.1486821 c 0,0 -0.19623,-0.061134 -0.23739,-0.085844 -0.0411,-0.02471 -0.10895,-0.1793775 -0.10895,-0.1793775 z m -0.4871,0.059534 c -0.0128,0.1124848 0.006,0.2357331 0.034,0.3399617 0.0241,0.090507 0.0937,0.1657304 0.16279,0.229039 0.2281,0.2092017 0.63436,0.286123 0.88653,0.1419208 -0.1258,0.2340298 -0.30007,0.4367686 -0.54959,0.5908829 -0.36949,0.041723 -0.65074,0.062123 -0.81081,-0.1173386 -0.35711,-0.4003614 -0.28349,-0.6620376 -0.28349,-0.6620376 0,0 0.2062,-0.1857468 0.35228,-0.3366137 z m 1.90365,0.032056 0.0575,0.066079 c 0,0 -0.13481,0.063491 -0.17195,0.1246829 -0.0371,0.061191 -0.0746,0.1354188 -0.0746,0.1354188 l -0.0529,-0.1304289 c 0,0 0.055,-0.1008395 0.0933,-0.1391774 0.0383,-0.038337 0.1487,-0.056574 0.1487,-0.056574 z m 0.0767,0.088414 0.14811,0.1074451 c 0,0 -0.1842,0.078141 -0.22088,0.1290248 -0.0368,0.050884 -0.0325,0.1767421 -0.0325,0.1767421 l -0.13656,-0.1425905 c 0,0 0.0446,-0.1174609 0.0938,-0.1782541 0.0493,-0.060793 0.148,-0.092367 0.148,-0.092367 z m 0.17854,0.1386589 c 0.0276,-2.327e-4 0.0531,0.00682 0.0734,0.023437 0.0485,0.039791 8.9e-4,0.1324211 -0.0329,0.1852315 -0.043,0.067229 -0.12123,0.1629056 -0.19665,0.1367149 -0.0683,-0.023743 -0.0946,-0.1426575 -0.0631,-0.2077617 0.0343,-0.070645 0.13623,-0.1369239 0.2192,-0.1376217 z" />
    <path
       id="path40249"
       style="fill:#e6e6e6;stroke:none;stroke-width:0.0110598px;stroke-linecap:butt;stroke-linejoin:miter;stroke-opacity:1"
       d="m 198.95789,-8.8294204 c -0.0998,-4.856e-4 -0.20454,0.019589 -0.29866,0.037975 -0.28893,0.05644 -0.5899,0.1669229 -0.80095,0.3721695 -0.12793,0.124407 -0.2789,0.3050574 -0.23903,0.4789879 0.0165,0.072249 0.10211,0.1418861 0.17605,0.135851 0.14731,-0.012033 0.1854,-0.2339439 0.30242,-0.3242146 0.17401,-0.1342301 0.37588,-0.2323684 0.58048,-0.312593 0.19158,-0.075124 0.5085,0.030708 0.59764,-0.1547735 0.0268,-0.055582 -0.0247,-0.1340329 -0.0757,-0.1688144 -0.0698,-0.047729 -0.15417,-0.06416 -0.24226,-0.064589 z m 1.00575,0.1296512 c -0.005,1.457e-4 -0.01,0.00325 -0.0164,0.00952 l -0.37926,0.3567028 c -0.0177,0.016739 -0.0339,0.050076 -0.0339,0.074503 5.2e-4,0.1241809 0.0438,0.2193736 0.10607,0.3016195 0.0147,0.019472 0.0432,0.022038 0.0623,0.00674 l 0.38376,-0.3081863 c 0.019,-0.015298 0.0228,-0.043696 0.01,-0.064394 -0.016,-0.025778 -0.0391,-0.065425 -0.0657,-0.119844 -0.0108,-0.021964 -0.0274,-0.057962 -0.0353,-0.081048 -0.0218,-0.063581 -0.0242,-0.1175162 -0.0221,-0.1526783 9.3e-4,-0.01522 -0.002,-0.023184 -0.01,-0.022941 z" />
  </g>
</svg>
