<?xml version="1.0" encoding="UTF-8"?>
<!-- Created with Inkscape (http://www.inkscape.org/) -->
<svg id="svg5" width="30mm" height="30mm" version="1.1" viewBox="0 0 30 30" xmlns="http://www.w3.org/2000/svg">
 <g id="layer1" transform="translate(15.3826,109.14487)">
  <g id="g31746" transform="matrix(.10444477 0 0 .10444477 -13.775968 -97.745257)">
   <rect id="rect31037" x="-15.3826" y="-109.14487" width="287.23315" height="287.23315" rx="143.61658" ry="143.61658" fill="#f9f9f9" stop-color="#000000" style="paint-order:markers stroke fill"/>
   <path id="rect1068" transform="scale(.26458333)" d="m321.75781-285.17188c-4.51849 1e-5 -8.15625 3.87038-8.15625 8.67774v31.43359c0 4.80737 3.63776 8.67578 8.15625 8.67578h32.47461c4.51849 0 8.15625-3.86841 8.15625-8.67578v-31.43359c0-4.80736-3.63776-8.67773-8.15625-8.67774zm48.88867 0c-4.51849 1e-5 -8.15429 3.87038-8.15429 8.67774v31.43359c0 4.80737 3.6358 8.67578 8.15429 8.67578h32.47657c4.51849 0 8.15625-3.86841 8.15625-8.67578v-31.43359c0-4.80736-3.63776-8.67773-8.15625-8.67774zm195.5586 0c-4.51849 1e-5 -8.15625 3.87038-8.15625 8.67774v31.43359c0 4.80737 3.63776 8.67578 8.15625 8.67578h32.47461c4.51849 0 8.15625-3.86841 8.15625-8.67578v-31.43359c0-4.80736-3.63776-8.67773-8.15625-8.67774zm48.88867 0c-4.51849 1e-5 -8.15625 3.87038-8.15625 8.67774v31.43359c0 4.80737 3.63776 8.67578 8.15625 8.67578h32.47656c4.51849 0 8.15625-3.86841 8.15625-8.67578v-31.43359c0-4.80736-3.63776-8.67773-8.15625-8.67774zm-342.22461 48.89063c-4.51849 0-8.15625 3.87037-8.15625 8.67773v31.43164c0 4.80737 3.63776 8.67774 8.15625 8.67774h32.47461c4.51849 0 8.15625-3.87037 8.15625-8.67774v-31.43164c0-4.80736-3.63776-8.67773-8.15625-8.67773zm146.66797 0c-4.51849 0-8.15625 3.87037-8.15625 8.67773v31.43164c0 4.80737 3.63776 8.67774 8.15625 8.67774h32.47461c4.51849 0 8.15625-3.87037 8.15625-8.67774v-31.43164c0-4.80736-3.63776-8.67773-8.15625-8.67773zm97.7793 0c-4.51849 0-8.15625 3.87037-8.15625 8.67773v31.43164c0 4.80737 3.63776 8.67774 8.15625 8.67774h32.47461c4.51849 0 8.15625-3.87037 8.15625-8.67774v-31.43164c0-4.80736-3.63776-8.67773-8.15625-8.67773zm146.66797 0c-4.5185 0-8.15626 3.87037-8.15626 8.67773v31.43164c0 4.80737 3.63776 8.67774 8.15626 8.67774h32.4746c4.5185 0 8.15625-3.87037 8.15625-8.67774v-31.43164c0-4.80736-3.63775-8.67773-8.15625-8.67773zm-440.00586 48.88867c-4.5185 0-8.15625 3.87037-8.15625 8.67774v31.43164c0 4.80736 3.63775 8.67773 8.15625 8.67773h32.47656c4.51849 0 8.15625-3.87037 8.15625-8.67773v-31.43164c0-4.80737-3.63776-8.67774-8.15625-8.67774zm195.55859 0c-4.51849 0-8.15625 3.87037-8.15625 8.67774v31.43164c0 4.80736 3.63776 8.67773 8.15625 8.67773h32.47461c4.51849 0 8.15625-3.87037 8.15625-8.67773v-31.43164c0-4.80737-3.63776-8.67774-8.15625-8.67774zm97.7793 0c-4.51849 0-8.15625 3.87037-8.15625 8.67774v31.43164c0 4.80736 3.63776 8.67773 8.15625 8.67773h32.47461c4.51849 0 8.15625-3.87037 8.15625-8.67773v-31.43164c0-4.80737-3.63776-8.67774-8.15625-8.67774zm195.55664 0c-4.51849 0-8.15625 3.87037-8.15625 8.67774v31.43164c0 4.80736 3.63776 8.67773 8.15625 8.67773h32.47461c4.51849 0 8.15625-3.87037 8.15625-8.67773v-31.43164c0-4.80737-3.63776-8.67774-8.15625-8.67774zm-488.89453 48.88867c-4.5185 0-8.15625 3.87038-8.15625 8.67774v31.433592c0 4.807363 3.63775 8.677734 8.15625 8.677734h32.47656c4.51849 0 8.15625-3.870371 8.15625-8.677734v-31.433592c0-4.80736-3.63776-8.67774-8.15625-8.67774zm195.55859 0c-4.51849 0-8.15625 3.87038-8.15625 8.67774v31.433592c0 4.807363 3.63776 8.677734 8.15625 8.677734h32.47461c4.51849 0 8.15625-3.870371 8.15625-8.677734v-31.433592c0-4.80736-3.63776-8.67774-8.15625-8.67774zm97.7793 0c-4.51849 0-8.15625 3.87038-8.15625 8.67774v31.433592c0 4.807363 3.63776 8.677734 8.15625 8.677734h32.47461c4.51849 0 8.15625-3.870371 8.15625-8.677734v-31.433592c0-4.80736-3.63776-8.67774-8.15625-8.67774zm195.55664 0c-4.51849 0-8.15625 3.87038-8.15625 8.67774v31.433592c0 4.807363 3.63776 8.677734 8.15625 8.677734h32.47461c4.51849 0 8.15625-3.870371 8.15625-8.677734v-31.433592c0-4.80736-3.63776-8.67774-8.15625-8.67774zm-488.89453 48.890629c-4.5185 0-8.15625 3.870371-8.15625 8.677734v31.431641c0 4.807363 3.63775 8.677734 8.15625 8.677734h32.47656c4.51849 0 8.15625-3.870371 8.15625-8.677734v-31.431641c0-4.807363-3.63776-8.677734-8.15625-8.677734zm195.55859 0c-4.51849 0-8.15625 3.870371-8.15625 8.677734v31.431641c0 4.807363 3.63776 8.677734 8.15625 8.677734h32.47461c4.51849 0 8.15625-3.870371 8.15625-8.677734v-31.431641c0-4.807363-3.63776-8.677734-8.15625-8.677734zm97.7793 0c-4.51849 0-8.15625 3.870371-8.15625 8.677734v31.431641c0 4.807363 3.63776 8.677734 8.15625 8.677734h32.47461c4.51849 0 8.15625-3.870371 8.15625-8.677734v-31.431641c0-4.807363-3.63776-8.677734-8.15625-8.677734zm195.55664 0c-4.51849 0-8.15625 3.870371-8.15625 8.677734v31.431641c0 4.807363 3.63776 8.677734 8.15625 8.677734h32.47461c4.51849 0 8.15625-3.870371 8.15625-8.677734v-31.431641c0-4.807363-3.63776-8.677734-8.15625-8.677734zm-488.89453 48.888672c-4.5185 0-8.15625 3.870371-8.15625 8.677734v31.4316406c0 4.80736248 3.63775 8.67773438 8.15625 8.67773438h32.47656c4.51849 0 8.15625-3.8703719 8.15625-8.67773438v-31.4316406c0-4.807363-3.63776-8.677734-8.15625-8.677734zm195.55859 0c-4.51849 0-8.15625 3.870371-8.15625 8.677734v31.4316406c0 4.80736258 3.63776 8.67773438 8.15625 8.67773438h32.47461c4.51849 0 8.15625-3.8703718 8.15625-8.67773438v-31.4316406c0-4.807363-3.63776-8.677734-8.15625-8.677734zm97.7793 0c-4.51849 0-8.15625 3.870371-8.15625 8.677734v31.4316406c0 4.80736258 3.63776 8.67773438 8.15625 8.67773438h32.47461c4.51849 0 8.15625-3.8703718 8.15625-8.67773438v-31.4316406c0-4.807363-3.63776-8.677734-8.15625-8.677734zm195.55664 0c-4.51849 0-8.15625 3.870371-8.15625 8.677734v31.4316406c0 4.80736248 3.63776 8.67773438 8.15625 8.67773438h32.47461c4.51849 0 8.15625-3.8703719 8.15625-8.67773438v-31.4316406c0-4.807363-3.63776-8.677734-8.15625-8.677734zm-537.78321 48.8906246c-4.51849 0-8.15625 3.8703714-8.15625 8.6777344v31.431641c0 4.807362 3.63776 8.677734 8.15625 8.677734h32.47461c4.51849 0 8.15625-3.870372 8.15625-8.677734v-31.431641c0-4.807363-3.63776-8.6777344-8.15625-8.6777344zm48.88868 0c-4.5185 0-8.15625 3.8703714-8.15625 8.6777344v31.431641c0 4.807362 3.63775 8.677734 8.15625 8.677734h32.47656c4.51849 0 8.15625-3.870372 8.15625-8.677734v-31.431641c0-4.807363-3.63776-8.6777344-8.15625-8.6777344zm195.55859 0c-4.51849 0-8.15625 3.8703714-8.15625 8.6777344v31.431641c0 4.807362 3.63776 8.677734 8.15625 8.677734h32.47461c4.51849 0 8.15625-3.870372 8.15625-8.677734v-31.431641c0-4.807363-3.63776-8.6777344-8.15625-8.6777344zm48.88867 0c-4.51849 0-8.15625 3.8703714-8.15625 8.6777344v31.431641c0 4.807362 3.63776 8.677734 8.15625 8.677734h32.47656c4.51849 0 8.1543-3.870372 8.1543-8.677734v-31.431641c0-4.807363-3.63581-8.6777344-8.1543-8.6777344zm48.89063 0c-4.51849 0-8.15625 3.8703714-8.15625 8.6777344v31.431641c0 4.807362 3.63776 8.677734 8.15625 8.677734h32.47461c4.51849 0 8.15625-3.870372 8.15625-8.677734v-31.431641c0-4.807363-3.63776-8.6777344-8.15625-8.6777344zm195.55664 0c-4.51849 0-8.15625 3.8703714-8.15625 8.6777344v31.431641c0 4.807362 3.63776 8.677734 8.15625 8.677734h32.47461c4.51849 0 8.15625-3.870372 8.15625-8.677734v-31.431641c0-4.807363-3.63776-8.6777344-8.15625-8.6777344zm48.89062 0c-4.51849 0-8.15625 3.8703714-8.15625 8.6777344v31.431641c0 4.807362 3.63776 8.677734 8.15625 8.677734h32.47461c4.51849 0 8.15625-3.870372 8.15625-8.677734v-31.431641c0-4.807363-3.63776-8.6777344-8.15625-8.6777344zm-586.67383 48.8886724c-4.51849-1e-6 -8.15625 3.870371-8.15625 8.677734v31.43164c0 4.807368 3.63776 8.677738 8.15625 8.677738h32.47461c4.51849 0 8.15625-3.87037 8.15625-8.677738v-31.43164c0-4.807363-3.63776-8.677736-8.15625-8.677734zm586.67383 0c-4.51849-1e-6 -8.15625 3.870371-8.15625 8.677734v31.43164c0 4.807368 3.63776 8.677738 8.15625 8.677738h32.47461c4.51849 0 8.15625-3.87037 8.15625-8.677738v-31.43164c0-4.807363-3.63776-8.677736-8.15625-8.677734zm-635.5625 48.888672c-4.51849 0-8.15625 3.87037-8.15625 8.67773v31.4336c0 4.80736 3.63776 8.67773 8.15625 8.67773h32.47461c4.51849 0 8.15625-3.87037 8.15625-8.67773v-31.4336c0-4.80736-3.63776-8.67773-8.15625-8.67773zm684.45117 0c-4.51849 0-8.15625 3.87037-8.15625 8.67773v31.4336c0 4.80736 3.63776 8.67773 8.15625 8.67773h32.47461c4.51849 0 8.15625-3.87037 8.15625-8.67773v-31.4336c0-4.80736-3.63776-8.67773-8.15625-8.67773zm-684.45117 48.89062c-4.51849 0-8.15625 3.87038-8.15625 8.67774v31.43164c0 4.80736 3.63776 8.67773 8.15625 8.67773h32.47461c4.51849 0 8.15625-3.87037 8.15625-8.67773v-31.43164c0-4.80736-3.63776-8.67774-8.15625-8.67774zm684.45117 0c-4.51849 0-8.15625 3.87038-8.15625 8.67774v31.43164c0 4.80736 3.63776 8.67773 8.15625 8.67773h32.47461c4.51849 0 8.15625-3.87037 8.15625-8.67773v-31.43164c0-4.80736-3.63776-8.67774-8.15625-8.67774zm-684.45117 48.88868c-4.51849 0-8.15625 3.87037-8.15625 8.67773v31.43164c0 4.80736 3.63776 8.67774 8.15625 8.67774h32.47461c4.51849 0 8.15625-3.87038 8.15625-8.67774v-31.43164c0-4.80736-3.63776-8.67773-8.15625-8.67773zm146.66797 0c-4.51849 0-8.15625 3.87037-8.15625 8.67773v31.43164c0 4.80736 3.63776 8.67774 8.15625 8.67774h32.47461c4.51849 0 8.15625-3.87038 8.15625-8.67774v-31.43164c0-4.80736-3.63776-8.67773-8.15625-8.67773zm342.32813 0c-4.5185 0-8.15625 3.87037-8.15625 8.67773v31.43164c0 4.80736 3.63775 8.67774 8.15625 8.67774h32.47461c4.51845 0 8.15624-3.87038 8.15624-8.67774v-31.43164c0-4.80736-3.63779-8.67773-8.15624-8.67773zm195.45507 0c-4.51849 0-8.15625 3.87037-8.15625 8.67773v31.43164c0 4.80736 3.63776 8.67774 8.15625 8.67774h32.47461c4.51849 0 8.15625-3.87038 8.15625-8.67774v-31.43164c0-4.80736-3.63776-8.67773-8.15625-8.67773zm-342.22656 48.78711c-4.51849 0-8.15625 3.87037-8.15625 8.67773v31.43359c0 4.80737 3.63776 8.67579 8.15625 8.67579h32.47656c4.51849 0 8.1543-3.86842 8.1543-8.67579v-31.43359c0-4.80736-3.63581-8.67773-8.1543-8.67773zm-342.22461 0.10351c-4.51849 0-8.15625 3.86842-8.15625 8.67578v31.4336c0 4.80736 3.63776 8.67773 8.15625 8.67773h32.47461c4.51849 0 8.15625-3.87037 8.15625-8.67773v-31.4336c0-4.80736-3.63776-8.67578-8.15625-8.67578zm684.45117 0c-4.51849 0-8.15625 3.86842-8.15625 8.67578v31.4336c0 4.80736 3.63776 8.67773 8.15625 8.67773h32.47461c4.51849 0 8.15625-3.87037 8.15625-8.67773v-31.4336c0-4.80736-3.63776-8.67578-8.15625-8.67578zm-391.11523 48.78711c-4.51849 0-8.15625 3.87041-8.15625 8.67773v31.43165c0 4.80736 3.63776 8.67773 8.15625 8.67773h32.47461c4.51849 0 8.15625-3.87037 8.15625-8.67773v-31.43165c0-4.80732-3.63776-8.67773-8.15625-8.67773zm48.88867 0c-4.51849 0-8.15625 3.87041-8.15625 8.67773v31.43165c0 4.80736 3.63776 8.67773 8.15625 8.67773h32.47656c4.51849 0 8.1543-3.87037 8.1543-8.67773v-31.43165c0-4.80732-3.63581-8.67773-8.1543-8.67773zm48.89063 0c-4.51849 0-8.15625 3.87041-8.15625 8.67773v31.43165c0 4.80736 3.63776 8.67773 8.15625 8.67773h32.47461c4.51849 0 8.15625-3.87037 8.15625-8.67773v-31.43165c0-4.80732-3.63776-8.67773-8.15625-8.67773zm-391.11524 0.10156c-4.51849 0-8.15625 3.87037-8.15625 8.67774v31.43164c0 4.80736 3.63776 8.67773 8.15625 8.67773h32.47461c4.51849 0 8.15625-3.87037 8.15625-8.67773v-31.43164c0-4.80737-3.63776-8.67774-8.15625-8.67774zm684.45117 0c-4.51849 0-8.15625 3.87037-8.15625 8.67774v31.43164c0 4.80736 3.63776 8.67773 8.15625 8.67773h32.47461c4.51849 0 8.15625-3.87037 8.15625-8.67773v-31.43164c0-4.80737-3.63776-8.67774-8.15625-8.67774zm-684.45117 48.88867c-4.51849 0-8.15625 3.87038-8.15625 8.67774v31.43359c0 4.80737 3.63776 8.67578 8.15625 8.67578h32.47461c4.51849 0 8.15625-3.86841 8.15625-8.67578v-31.43359c0-4.80736-3.63776-8.67774-8.15625-8.67774zm684.45117 0c-4.51849 0-8.15625 3.87038-8.15625 8.67774v31.43359c0 4.80737 3.63776 8.67578 8.15625 8.67578h32.47461c4.51849 0 8.15625-3.86841 8.15625-8.67578v-31.43359c0-4.80736-3.63776-8.67774-8.15625-8.67774zm-635.5625 48.89063c-4.51849 0-8.15625 3.87037-8.15625 8.67773v31.43164c0 4.80737 3.63776 8.67774 8.15625 8.67774h32.47461c4.51849 0 8.15625-3.87037 8.15625-8.67774v-31.43164c0-4.80736-3.63776-8.67773-8.15625-8.67773zm586.67383 0c-4.51849 0-8.15625 3.87037-8.15625 8.67773v31.43164c0 4.80737 3.63776 8.67774 8.15625 8.67774h32.47461c4.51849 0 8.15625-3.87037 8.15625-8.67774v-31.43164c0-4.80736-3.63776-8.67773-8.15625-8.67773zm-537.78515 48.88867c-4.5185 0-8.15625 3.87037-8.15625 8.67774v31.43164c0 4.80736 3.63775 8.67773 8.15625 8.67773h32.47656c4.51849 0 8.15625-3.87037 8.15625-8.67773v-31.43164c0-4.80737-3.63776-8.67774-8.15625-8.67774zm48.89062 0c-4.51849 0-8.15625 3.87037-8.15625 8.67774v31.43164c0 4.80736 3.63776 8.67773 8.15625 8.67773h32.47461c4.51849 0 8.15625-3.87037 8.15625-8.67773v-31.43164c0-4.80737-3.63776-8.67774-8.15625-8.67774zm391.11524 0c-4.5185 0-8.15626 3.87037-8.15626 8.67774v31.43164c0 4.80736 3.63776 8.67773 8.15626 8.67773h32.4746c4.5185 0 8.15625-3.87037 8.15625-8.67773v-31.43164c0-4.80737-3.63775-8.67774-8.15625-8.67774zm48.88867 0c-4.51849 0-8.15625 3.87037-8.15625 8.67774v31.43164c0 4.80736 3.63776 8.67773 8.15625 8.67773h32.47461c4.51849 0 8.15625-3.87037 8.15625-8.67773v-31.43164c0-4.80737-3.63776-8.67774-8.15625-8.67774zm-391.11524 48.78711c-4.51849 0-8.15625 3.87037-8.15625 8.67774v31.43164c0 4.80736 3.63776 8.67773 8.15625 8.67773h32.47461c4.51849 0 8.15625-3.87037 8.15625-8.67773v-31.43164c0-4.80737-3.63776-8.67774-8.15625-8.67774zm48.88867 0c-4.51849 0-8.15429 3.87037-8.15429 8.67774v31.43164c0 4.80736 3.6358 8.67773 8.15429 8.67773h32.47657c4.51849 0 8.15625-3.87037 8.15625-8.67773v-31.43164c0-4.80737-3.63776-8.67774-8.15625-8.67774zm48.89063 0c-4.51849 0-8.15625 3.87037-8.15625 8.67774v31.43164c0 4.80736 3.63776 8.67773 8.15625 8.67773h32.47461c4.51849 0 8.15625-3.87037 8.15625-8.67773v-31.43164c0-4.80737-3.63776-8.67774-8.15625-8.67774zm48.88867 0c-4.51849 0-8.15625 3.87037-8.15625 8.67774v31.43164c0 4.80736 3.63776 8.67773 8.15625 8.67773h32.47656c4.51849 0 8.1543-3.87037 8.1543-8.67773v-31.43164c0-4.80737-3.63581-8.67774-8.1543-8.67774zm48.89063 0c-4.51849 0-8.15625 3.87037-8.15625 8.67774v31.43164c0 4.80736 3.63776 8.67773 8.15625 8.67773h32.47461c4.51849 0 8.15625-3.87037 8.15625-8.67773v-31.43164c0-4.80737-3.63776-8.67774-8.15625-8.67774zm48.88867 0c-4.51849 0-8.15625 3.87037-8.15625 8.67774v31.43164c0 4.80736 3.63776 8.67773 8.15625 8.67773h32.47461c4.51849 0 8.15625-3.87037 8.15625-8.67773v-31.43164c0-4.80737-3.63776-8.67774-8.15625-8.67774zm48.88867 0c-4.51849 0-8.15625 3.87037-8.15625 8.67774v31.43164c0 4.80736 3.63776 8.67773 8.15625 8.67773h32.47656c4.51849 0 8.15625-3.87037 8.15625-8.67773v-31.43164c0-4.80737-3.63776-8.67774-8.15625-8.67774z" fill="#1a1a1a" stop-color="#000000" style="paint-order:markers stroke fill"/>
   <path id="rect1132" transform="scale(.26458333)" d="m321.75781-187.39258c-4.51849 0-8.15625 3.87037-8.15625 8.67774v31.43164c0 4.80736 3.63776 8.67773 8.15625 8.67773h32.47461c4.51849 0 8.15625-3.87037 8.15625-8.67773v-31.43164c0-4.80737-3.63776-8.67774-8.15625-8.67774zm293.33594 0c-4.51849 0-8.15625 3.87037-8.15625 8.67774v31.43164c0 4.80736 3.63776 8.67773 8.15625 8.67773h32.47656c4.51849 0 8.15625-3.87037 8.15625-8.67773v-31.43164c0-4.80737-3.63776-8.67774-8.15625-8.67774zm-293.33594 48.88867c-4.51849 0-8.15625 3.87038-8.15625 8.67774v31.433592c0 4.807363 3.63776 8.677734 8.15625 8.677734h32.47461c4.51849 0 8.15625-3.870371 8.15625-8.677734v-31.433592c0-4.80736-3.63776-8.67774-8.15625-8.67774zm293.33594 0c-4.51849 0-8.15625 3.87038-8.15625 8.67774v31.433592c0 4.807363 3.63776 8.677734 8.15625 8.677734h32.47656c4.51849 0 8.15625-3.870371 8.15625-8.677734v-31.433592c0-4.80736-3.63776-8.67774-8.15625-8.67774zm-293.33594 48.890629c-4.51849 0-8.15625 3.870371-8.15625 8.677734v31.431641c0 4.807363 3.63776 8.677734 8.15625 8.677734h32.47461c4.51849 0 8.15625-3.870371 8.15625-8.677734v-31.431641c0-4.807363-3.63776-8.677734-8.15625-8.677734zm293.33594 0c-4.51849 0-8.15625 3.870371-8.15625 8.677734v31.431641c0 4.807363 3.63776 8.677734 8.15625 8.677734h32.47656c4.51849 0 8.15625-3.870371 8.15625-8.677734v-31.431641c0-4.807363-3.63776-8.677734-8.15625-8.677734zm-293.33594 48.888672c-4.51849 0-8.15625 3.870371-8.15625 8.677734v31.4316406c0 4.80736278 3.63776 8.67773438 8.15625 8.67773438h32.47461c4.51849 0 8.15625-3.8703716 8.15625-8.67773438v-31.4316406c0-4.807363-3.63776-8.677734-8.15625-8.677734zm293.33594 0c-4.51849 0-8.15625 3.870371-8.15625 8.677734v31.4316406c0 4.80736278 3.63776 8.67773438 8.15625 8.67773438h32.47656c4.51849 0 8.15625-3.8703716 8.15625-8.67773438v-31.4316406c0-4.807363-3.63776-8.677734-8.15625-8.677734zm-293.33594 48.8906246c-4.51849 0-8.15625 3.8703714-8.15625 8.6777344v31.431641c0 4.807362 3.63776 8.677734 8.15625 8.677734-4.51849 0-8.15625 3.870372-8.15625 8.677734v31.431641c0 4.80736 3.63776 8.67773 8.15625 8.67773h32.47461c4.51849 0 8.15625-3.87037 8.15625-8.67773v-31.431641c0-4.807362-3.63776-8.677734-8.15625-8.677734 4.51849 0 8.15625-3.870372 8.15625-8.677734v-31.431641c0-4.807363-3.63776-8.6777344-8.15625-8.6777344zm293.33594 0c-4.51849 0-8.15625 3.8703714-8.15625 8.6777344v31.431641c0 4.807362 3.63776 8.677734 8.15625 8.677734-4.51849 0-8.15625 3.870372-8.15625 8.677734v31.431641c0 4.80736 3.63776 8.67773 8.15625 8.67773h32.47656c4.51849 0 8.15625-3.87037 8.15625-8.67773v-31.431641c0-4.807362-3.63776-8.677734-8.15625-8.677734 4.51849 0 8.15625-3.870372 8.15625-8.677734v-31.431641c0-4.807363-3.63776-8.6777344-8.15625-8.6777344zm-195.55664 342.021484c-4.51849 0-8.15625 3.87037-8.15625 8.67773v31.43165c0 4.80736 3.63776 8.67773 8.15625 8.67773h32.47461c4.51849 0 8.15625-3.87037 8.15625-8.67773v-31.43165c0-4.80736-3.63776-8.67773-8.15625-8.67773zm48.88867 0c-4.51849 0-8.15625 3.87037-8.15625 8.67773v31.43165c0 4.80736 3.63776 8.67773 8.15625 8.67773h32.47656c4.51849 0 8.1543-3.87037 8.1543-8.67773v-31.43165c0-4.80736-3.63581-8.67773-8.1543-8.67773zm48.89063 0c-4.51849 0-8.15625 3.87037-8.15625 8.67773v31.43165c0 4.80736 3.63776 8.67773 8.15625 8.67773h32.47461c4.51849 0 8.15625-3.87037 8.15625-8.67773v-31.43165c0-4.80736-3.63776-8.67773-8.15625-8.67773z" fill="#f19ec2" stop-color="#000000" style="paint-order:markers stroke fill"/>
   <path id="rect1354" transform="scale(.26458333)" d="m321.65625 203.72266c-4.51849 0-8.15625 3.87037-8.15625 8.67773v31.43164c0 4.80736 3.63776 8.67774 8.15625 8.67774h32.47461c4.51849 0 8.15625-3.87038 8.15625-8.67774v-31.43164c0-4.80736-3.63776-8.67773-8.15625-8.67773zm342.32813 0c-4.5185 0-8.15626 3.87037-8.15626 8.67773v31.43164c0 4.80736 3.63776 8.67774 8.15626 8.67774h32.4746c4.5185 0 8.15625-3.87038 8.15625-8.67774v-31.43164c0-4.80736-3.63775-8.67773-8.15625-8.67773z" fill="#b3b3b3" stop-color="#000000" style="paint-order:markers stroke fill"/>
  </g>
 </g>
</svg>
