<?xml version="1.0" encoding="UTF-8"?>
<!-- Created with Inkscape (http://www.inkscape.org/) -->
<svg id="svg1140" width="30mm" height="30mm" version="1.1" viewBox="0 0 30 30" xmlns="http://www.w3.org/2000/svg">
 <g id="layer1">
  <path id="path56650" d="m3.1705288 12.990726c-0.080244 1.075481 0.3680084 2.203787 1.2112109 2.915292-0.050833 0.267421-0.08051 0.659028 0.1061925 1.421688 0.0659 0.269176 0.2146632 0.524748 0.3546318 0.771705-0.00681 0.222597-0.057911 0.295851 0.063233 0.927516l-6.49e-4 -6.5e-4c0.043048 0.224857 0.05043 0.148312 0.09267 0.292526-0.078154 0.247319-0.182883 0.46563-0.1288862 1.221676 1.62e-5 -0.0016-0.015317 0.420824 0.1267509 0.99096 0.1421038 0.570129 0.656555 1.620875 1.7491994 1.996646 0.3986561 0.137103 0.8040817 0.251015 1.2370524 0.265781l1.11355 3.675944 0.00162 0.0034-6.4e-6 6.49e-4c0.0013 0.0038 0.066257 0.226726 0.1895194 0.473305 0.1243462 0.248738 0.2497957 0.664383 1.0157335 1.090837l0.104794 0.05921 0.111401 0.04585c2.377644 0.982678 4.765167 1.136617 7.343359 0.376702 0.403614-0.02729 0.701731-0.129457 0.851455-0.208344 0.222558-0.117253 0.31898-0.201203 0.400197-0.268372 0.324831-0.268663 0.379091-0.371539 0.489009-0.502502 0.107241-0.12775 0.199164-0.24373 0.267394-0.330046l0.255667-0.221576 1.101338-2.755116 0.914512-2.76344 0.516042-0.236581 0.07114-0.03998s0.251042-0.135253 0.522901-0.357461c0.22155-0.181098 0.614017-0.391676 0.860467-1.081692l-20.9203266-7.739221z" color="#000000" fill="#b3b3b3" stroke-width=".42404" style="-inkscape-stroke:none"/>
  <path id="path56387" d="m23.465058-4.3329379e-7 -0.255984 0.283149823c-0.251694 0.08243122-0.497774 0.14602083-0.842031 0.26997433-0.617778 0.22244519-1.15504 0.38081399-1.842103 0.80252718-0.366655 0.2250414-0.501895 0.349407-0.856848 0.6074487-0.269734-0.1303692-0.282774-0.1782229-0.604158-0.2930249-0.864209-0.3087155-2.391775-0.81549825-4.131972 0.2477512-0.335384 0.2049179-0.555785 0.402242-0.806642 0.6041614-0.386422-0.0012981-0.795044 0.0642321-1.205019 0.2683322-0.260703 0.1297689-0.392967 0.2988306-0.590989 0.4584683-0.640586 0.0450595-1.527027 0.1513494-2.6059443 0.5177256-1.2445326 0.422625-2.0703863 1.1590346-2.8446381 1.8972518-0.7742518 0.7382203-1.3374587 1.2723926-1.8100014 2.2668244-0.3996589 0.8410541-0.6919731 1.6721391-0.8659059 2.6479174l-0.00676 0.03784c-0.017362 0.108656-0.035483 0.203282-0.053503 0.29467-0.082623 0.09174-0.073257 0.06458-0.2189437 0.251045-0.2668816 0.3416-0.6866347 0.834577-0.7547838 1.81659-0.073903 1.065852 0.3861848 2.186155 1.2395901 2.891554-0.048194 0.264129-0.074052 0.650931 0.1201729 1.404218 0.068545 0.265863 0.2197581 0.518271 0.3621671 0.76219-0.00464 0.219859-0.054932 0.292214 0.072433 0.916115l-6.49e-4 -6.49e-4c0.045264 0.222089 0.051826 0.146469 0.09548 0.28891-0.075714 0.244276-0.1783364 0.459913-0.1168789 1.206668-1.461e-4 -0.0016-0.011099 0.415544 0.1366325 0.97867 0.1477245 0.563123 0.6724986 1.601001 1.7688458 1.972154 0.4000126 0.135412 0.8064799 0.247982 1.2395934 0.262566l1.1498735 3.630708 0.00162 0.0034v6.49e-4c0.0013 0.0038 0.068551 0.223976 0.194251 0.467525 0.1267962 0.245681 0.2562666 0.656231 1.0264068 1.077441l0.105355 0.05844 0.111946 0.04527c2.387325 0.970595 4.776309 1.12261 7.34701 0.372042 0.403342-0.02697 0.700498-0.127864 0.84944-0.205775 0.221407-0.115814 0.317013-0.198693 0.397559-0.265035 0.322183-0.265366 0.375349-0.36698 0.483982-0.496333 0.105975-0.126183 0.196844-0.240687 0.264221-0.325944l0.253514-0.218951 1.074147-2.721174 0.887305-2.729408 0.513614-0.233761 0.07078-0.03949s0.249708-0.133631 0.519381-0.353113c0.269669-0.21948 0.796426-0.482272 0.986075-1.610809 0.07652-0.455187 0.04851-0.459422 0.0642-0.721861 0.01136-0.189344 0.02259-0.415476 0.03376-0.635435 0.262861-0.18914 0.465728-0.382164 0.628027-0.569587 0.133728-0.154433 0.248738-0.307041 0.362985-0.493861 0.114253-0.186816 0.25858-0.311425 0.356407-0.935041 0.08224-0.524232 0.01425-0.593829-0.0034-0.704578-0.01752-0.110752-0.03417-0.180494-0.05021-0.246933-0.03203-0.132875-0.06377-0.243117-0.09959-0.362164-0.07166-0.238093-0.157197-0.49754-0.242819-0.750666-0.10763-0.318201-0.149775-0.433788-0.214828-0.61733 0.140653-0.403089 0.205002-0.690279 0.266687-1.046163 0.03624-0.209036 0.06667-0.41804 0.0856-0.648605 0.01149-0.140254 0.03177-0.286534 0.0173-0.504563-0.03625 0.115322 0.12924-0.207546 0.228818-0.702101 0.109026-0.541448 0.08099-1.3195227-0.227997-2.0215429-0.05907-0.1342051-0.169117-0.2006115-0.239519-0.3234746 0.07095-0.6685591 0.03982-1.5461703-0.379451-2.4972983-0.06341-0.1438465-0.149749-0.2180155-0.219771-0.3448734 0.08128-0.034178 0.0536 0.00292 0.186846-0.065027 0.584044-0.2977532 1.39939-0.8920913 1.687359-2.0939723 0.0868-0.3622287 0.181906-0.7498479 0.181906-0.7498479l0.09383-0.3843902-0.05185-0.3926168s-0.02755-0.322355-0.195072-0.739142c-0.083735-0.208422-0.199072-0.4791882-0.511114-0.81243086-0.312045-0.33324267-0.956077-0.73136329-1.663491-0.74079058h-0.02797zm1.656907 14.2157974 0.0042 0.02223c-0.0081 0.02356 0.03115-0.09419-0.01564 0.02385 0.0081-0.02058 0.0038-0.02629 0.01149-0.0461z" color="#000000" fill="#f9f9f9" stroke-width=".421428" style="-inkscape-stroke:none"/>
  <path id="path30503" d="m7.3864697 17.532157-0.058365 1.045777 0.074701 0.902479 0.031349 0.107147 0.1933877-0.329504 0.1914309-0.421181 0.092118-0.486088 0.00195-0.515039-0.095386-0.08319zm14.6539223 0.0076-0.168345 0.04312-0.412039 0.209066-0.709085 0.343877-1.495708 0.178797-1.823466 0.05509-1.350231 0.102795-1.292302 0.323838-1.30907 0.540743-0.909882 0.146573-0.626332-0.09713-0.08341-0.03025-0.09539 0.246956 0.02223 0.387866 0.145479 0.560776-0.163986 0.323196-0.283773 0.09473-0.310114-0.08123-0.202536-0.396148 0.01872-0.465169 0.172047-0.447763-0.291828-0.911614-0.242387-0.419017-0.122606-0.03637-0.197094 0.06402-0.5468414-0.152226-0.2683031-0.291386-0.019828-0.03528-0.074042 0.362592-0.2027534 0.160946-0.2687411 0.05183-0.1966524-0.04529-0.039867 0.164853-0.082542 1.125703 0.073179 0.772458 0.087328 0.459078-0.099913 0.133773 1.183802 0.528279 0.9218564 3.347485 0.713226 2.161894 1.75247 0.750461 1.876386 0.08602 1.1355-0.169429 1.381155-0.388956 0.584519-0.503291 0.293346-0.503936 0.544667-1.17688 0.992423-3.178478 0.309027-0.958449 1.510298-0.714979 0.19099-2.388814z" fill="#b3b3b3"/>
  <path id="path41225" d="m7.3209135 17.424575-0.029401 1.122001s0.1401471-0.36721 0.2950889-0.486082c0.1550847-0.118875 0.1242391 0.208754 0.1572363 0.330368 0.032997 0.121617 0.08602 0.401145 0.08602 0.401145l0.084284-0.314684 0.053789-0.629168zm14.6844165 0.11194-0.433162 0.21712-0.640926 0.308599-1.558648 0.232148-1.24047 0.06512-1.610474 0.06315-0.684914 0.07862-0.958229 0.282462-0.88745 0.328407-0.291825 0.119342-0.933182 0.22693-0.459734-0.01308-0.459734-0.07775-0.08101 0.221703-0.0161 0.253501 0.104531 0.306408c-0.01821-0.135542-0.01752-0.280939 0.05335-0.338207 0.147452-0.119154 0.841281-0.334723 0.841281-0.334723s3.769762-0.767106 4.992588-0.772681c1.222825-0.0055 1.57748 0.112595 2.725727-0.09539 0.753444-0.136467 1.499187-0.37479 1.499187-0.37479zm-10.151342 2.612694c0.0034 0.02502 0.0079 0.04834 0.01217 0.07209l0.02463 0.03549zm0.01217 0.07209-0.81493-1.170344-0.447535-0.795985-0.08842-0.0588-0.340389 0.03527-0.3264467-0.07535-0.3018389-0.304458-0.046607-0.05532-0.089947 0.377206-0.2369383 0.160286-0.398536 0.0016-0.071651 0.171178-0.089509 0.353242 0.1683445 1.826507s-0.038183-1.168783 0.06163-1.388993c0.099783-0.220215 0.1300155-0.08472 0.1300155-0.08472s0.2838898 0.186725 0.5037226 0.11107c0.2198393-0.07566 0.430115-0.233677 0.430115-0.233677s0.1230873 0.337887 0.4366483 0.314262c0.313557-0.02366 0.510907-0.197525 0.510907-0.197525s0.207439 0.09685 0.131323 0.389822c-0.07612 0.292986-0.05488 0.813181-0.05488 0.813181l0.984144 0.02093s-0.02814-0.09411-0.04922-0.209283z" fill="#808080"/>
  <path id="path15750" d="m15.076678 5.2621527-0.03788 0.2195375-0.287489 0.4514295-0.238314 0.5475716 0.144457 0.6173011 0.819253 1.1631431 0.585582 0.6083704 0.603315 0.4626351 0.574282 0.3696635 0.602873 0.3644065s0.814016 0.389848 0.84208 0.403342c0.02807 0.01347 0.609574 0.22547 0.609574 0.22547l0.980763 0.184817 1.047352-0.03249 0.865568-0.03612 0.325974-0.398247 0.332382-0.6199074 0.538339 0.6888904 0.0056 0.875479-0.164989 0.476012-0.258538 2.088225-0.11866 0.747917 0.563252 1.608251 0.135601 0.444014-0.439634 0.482103-0.629019 0.154144-0.35336 0.107915-0.08489 1.74931-0.154857-1.610704 0.02937-0.06086-0.344646 0.220215-0.883855 0.385692-1.269323 0.155188-1.326639 0.04994-1.469282 0.05987-0.582945 0.057-1.422499 0.394152-1.271785 0.513091-1.250449 0.08587-0.273823-0.130213-0.03953 0.228147-0.011 0.377448 0.156516 0.445222-0.04008 0.319252-0.166365 0.201978-0.308517 0.07074-0.306184-0.143191-0.140874-0.28893-0.0123-0.341966 0.191551-0.559877-0.03873-0.44184-0.303419-0.63219-0.240141-0.345948-0.293188 0.04954-0.3641106-0.104498-0.4422228-0.384293-0.1284059 0.432189-0.2506882 0.139137-0.3317077-0.01451-0.087958 0.30474-0.048178 0.62387 0.1314466 1.073572-0.069496 0.804059-0.4194313 0.336146-1.1679654-0.548684 0.1806081-0.502165 0.0989882-0.787333 0.1990603-0.233353 0.240654-0.581451 0.1026099-0.786266 0.0272271-0.251373-0.2416827-0.078488-0.3104062-0.207718-0.3688652-0.731526-0.1015486-1.298117-0.3900271-0.870102-0.5439435-0.198762-0.4281712-0.809881 0.1179045-0.725093 0.9060944-1.292854 0.1787778-0.927091 0.6006078-1.4802892 0.7951249-1.0758797 0.7718991-0.9991569 0.717344-0.2627765 1.7765367-0.8285926 0.878189-0.1426328 0.914873 0.0013 0.379279-0.2735149 0.457164-0.4152585 1.040737 0.076447z" fill="#ececec"/>
  <path id="path41560" d="m14.423323 6.5656667 0.490524-0.8791105 0.209358-0.5190561 0.936781-0.8877104 1.2748-0.2842661 1.618623 0.4240465 1.109539 0.5403445-0.07969 0.2082832-0.266482 0.7105324-0.142594 0.5032714-0.05136 0.5154118-0.0072 0.1414937 0.198408-0.3355792 0.187851-0.373337 0.424663-0.4523284 0.334525-0.2563899 1.022224 0.522973 0.50222 0.6395307 0.468158 0.6663101 0.291918 0.6123847 0.08439 0.6255504-0.157804 0.9964471-0.174209 0.3715754-0.488746 0.737727-1.09771 0.0912-1.350988-0.08649-2.103688-0.771487-1.573047-1.155718-0.870939-0.9085153z" fill="#808080"/>
  <path id="path133721" transform="scale(.26458333)" d="m76.839844 53.132812-2.28711 0.466797 1.361328 0.478516 1.072266 0.773437 0.705078 0.689454 0.900391 0.925781 0.378906 0.646484 0.542969 1.066407 0.263672 0.798828 0.304687 1.488281 0.007813 1.308594 0.041015 1.148437 0.720703-0.216797 0.931641-0.466797-0.029297-0.654296-0.292968-2.375-0.824219-2.544922-1.382813-2.34375-0.9375-0.751954-1.476562-0.4375zm1.960937 7.433594-0.101562 0.113282-0.208985 0.841796-0.072265 0.53711-0.310547 0.871094-0.263672 0.382812-0.390625 0.242188-0.220703-0.06836-0.44336-0.359375-0.43164-0.523437-0.679688-0.714844-0.53125-0.554688 0.052735-0.082031-0.126953-0.066406-0.263672 1.179687-0.435547 1.673828c-0.160328 0.262451-0.313049 0.428963-0.458985 0.486329l-0.257812 0.072265-0.199219 0.019532-0.416015-0.205079-0.550782-0.546875-0.927734-0.957031-0.419922-0.4375-0.333984-0.621094-0.306641 1.1875-0.496094 1.042969-0.93164 1.65625 1.419922-0.007812 2.724609-0.095704 1.177734-0.205078 5.65625-2.105468-0.111328-0.560547-0.277344-1.425781-0.216796-0.462891-0.646485-0.306641zm-14.234375 1.457032-0.445312 0.029296-0.486328 0.210938-0.146485 0.966797-0.498047 2.117187-0.607422 1.839844 1.947266-0.5 2.134766-0.488281 1.080078-0.166016 0.644531-0.054687-1.611328-1.5-0.548828-0.769532-0.392578-0.710937-0.46875-0.917969-0.601563-0.05664zm-7.18164 1.382812-0.4375 0.035156-0.371094 0.109375-0.363281 0.09375 0.279297 0.949219-0.056641 0.548828-0.277344 1.216797-0.509765 1.960937 0.289062 0.027344 1.328125-0.183594 1.101563-0.15039 2.34375-0.466797 0.271484-0.134766-0.560547-0.27539-1.009766-0.667969-0.96875-1.0625-0.880859-1.658203-0.177734-0.341797zm-9.191407 0.962891-1.335937 3.55664 1.523437 0.501953 1.777344 0.230469-0.65625-1.21875-0.361328-1.226562-0.240234-1.806641-0.707032-0.037109z" fill="#808080"/>
  <path id="path183153" d="m19.520646 7.0840219 0.07096-0.6342703 0.166949-0.7014783 0.36195-0.9572971 1.524946-1.2465348 2.560236-0.8928183 0.14705 0.4396007-0.390196 1.1864111-1.466735 0.3758489-0.229039-0.0038-0.954691 0.5954415-0.674264 0.4541457-0.337543 0.1988688-0.296088 0.3178832-0.22019 0.3381137z" fill="#333"/>
  <path id="path197092" d="m24.321384 2.6247204-1.184632 0.3918087s-0.243452 0.038897 0.0359 0.5968305c0.279363 0.5579368 0.523003 0.6605661 0.523003 0.6605661l0.45076-0.5432458z" fill="#999" stroke="#201c1d" stroke-width=".111503px"/>
  <path id="path268684" transform="scale(.26458333)" d="m75.003906 53.515625-2.46289 0.568359-5.626954 1.265625-4.626953 0.587891-5.054687-0.541016-0.484375-0.089843-3.496094-0.263672-1.679687 0.050781-1.994141 0.804688-0.703125 0.705078-0.441406 0.248046-0.294922 0.513672-0.160156 0.22461 0.015625 0.02539-0.041016 0.072266 0.820313 1.154297 0.177734 0.279297c0.001496-0.007347 0.004301-0.014182 0.005859-0.021485l0.941407 1.324219 1.560546 1.796875-1.052734 0.46875-0.992188 0.615235-0.40625 0.5-0.041015 0.828124 0.189453 1.3125 0.761719 1.480469 1.324219 0.91211 1.169921 0.363281 1.757813-0.126953 0.652344-0.517578 1.263672-1.648438 0.402343-1.597656-0.294922-1.164063-0.738281-1-0.833984-0.566406-1.476563-0.101562 1.351563-0.996094 0.496094-0.353516 1.710937 0.652344 0.423828 1.208984 0.601563 1.720704 0.884765 1.36914 1.132813 0.740234 1.064453 0.330079 1.310547-0.28711 0.410156-0.457031 0.568359-0.851562 0.574219-2.320313-0.171875-1.578125 1.097656-0.412109 0.847657 1.951171 0.845703 1.466797 0.939453 0.925782 1.003906 0.835937 0.828125-0.085937 1.134766-2.302735 0.429687-1.08789 0.328125-1.900391-0.111328 0.835937-0.082031 0.390626 0.224609 0.347656 0.970703 1.146484 0.982422 1.076172 0.710938 0.330078 0.177734-0.089844 0.226563-0.123046 0.21289-0.248047 0.25-0.636719 0.177735-0.908203 0.333984-1.447266 0.166016 0.046875 1.455078 1.167969 1.175781 0.048828 0.623047-0.808594 0.152344-0.992187-0.222657-1.28711-0.242187-0.300781-0.464844-0.144531-0.52539 0.113281-1.019532 0.240235-0.958984 0.43164-0.917969-0.082031-1.097656 0.060547-0.443359 0.107422-0.34375 0.099609-0.613282 0.214844-0.748047 0.328125 0.089844-0.777344 0.810547-0.589844 0.652344-0.626953 0.328125-0.873047 0.126953-0.267578 2.166016 1.408203 0.511718 0.199219 0.431641-0.082031 0.931641-1.042969 1.193359-1.660156-1.572266-1.386719-1.671875-1.25zm-29.767578 9.1875-0.09375 0.253906-0.074219-0.001953-0.103515 0.207031-0.457032 1.517579-0.080078 0.21875 0.003907 0.037109-0.244141 0.810547 0.417969 0.851562 0.021484 0.214844 0.519531 0.753906 0.257813-0.109375 0.818359 0.533203 0.556641 0.111328s-0.263925-0.459225-0.423828-1.050781l0.052734-0.021484 1.326172-1.324219 0.332031-1.416016-0.148437-0.912109-0.601563-0.519531-2.080078-0.154297z" fill="#ececec"/>
  <path id="path305117" transform="scale(.26458333)" d="m70.640625 16.853516s3.095057 3.252815 3.34375 4.582031c0.131367 0.702121 0.071826 2.182561-0.013672 3.425781l0.447266-2.105469 0.634765-1.978515 0.851563-1.71875-5.263672-2.205078zm3.330078 8.007812-0.169922 0.802734-0.001953 1.228516s0.095511-0.920832 0.171875-2.03125zm-15.304687 6.892578 0.115234 0.150391 8.384766 6.005859 3.621093 1.488282 6.390625 1.792968 6.808594-0.177734 2.625-3.808594 0.65625-4.638672s-0.263448 1.597359-0.99414 2.451172c-0.730697 0.853862-6.55614 3.869698-12.13086 3.310547-5.574727-0.559162-15.476562-6.574219-15.476562-6.574219zm19.488281 24.419922-0.509766 0.933594-1.324219 1.527344-0.466796 0.285156-1.410157-0.751953-1.447265-0.917969-0.558594 1.476562-0.927734 0.789063-0.414063 0.244141-0.09375 0.824218 1.619141-0.783203 1.77539-0.162109 0.806641 0.027344 1.716797-0.566407 0.800781-0.130859 0.529297 0.107422 0.435547 1.136719 0.017578 0.52539 0.798828 0.06836 0.548828 1.8125 0.039063-1.910157-0.34375-1.798828-0.753906-1.908203-0.837891-0.828125zm-30.197266 1.460938-0.46289 0.890625-0.882813 1.560547-1.478516 2.691406 2.117188 0.167968 0.78125 0.705079 0.064453 0.777343 0.726563-0.011718 0.111328-0.773438 1.263672-0.949219 1.283203-0.498047-1.476563-1.539062-0.980468-1.464844-1.066407-1.55664zm6.984375 3.011718-1.71875 1.271485 1.396485 0.269531 0.978515 0.744141 0.697266 0.753906 0.572266-0.25 0.457031-0.025391-0.609375-2.089844-1.773438-0.673828zm9.701172 0.119141-1.136719 0.353516 0.205079 1.132812 0.849609-0.271484 0.572265 0.046875-0.490234-1.261719z" fill="#4d4d4d"/>
  <path id="path74660" d="m20.303167 20.86962-0.512868 0.211687-1.421665 0.41878-1.609169 0.322102-0.791841 0.03834-0.942554 0.09038-0.425971 0.02421-0.723902 0.0055-0.68426-0.02917-0.43164-0.05205-1.508552-0.205797-1.3524126-0.252626 0.1406856 0.578855s0.951758 0.26928 1.598068 0.388733l-0.02353 0.03574 0.236507 0.312295s0.468005-0.209121 0.872208-0.204061c0.404202 5e-3 1.077353 0.236734 1.077353 0.236734l0.228887-0.175319c0.473607 0.0054 1.002236-0.0081 1.576065-0.05248-0.08593 0.04967-0.158739 0.09401-0.189033 0.119127-0.106365 0.08822-0.724769 0.88897-0.724769 0.88897l0.122827 0.139167s0.488558-0.67505 0.953439-0.774641c0.464874-0.0996 0.930891-0.124071 1.3903 0.147218 0.45941 0.271272 0.671077 0.61207 0.726729 0.552939 0.05565-0.05913 0.206797-0.292528 0.210594-0.334719 0.0038-0.04219-0.04421-0.144395-0.04421-0.144395l-0.594974-0.545096s-0.210786-0.119718-0.408554-0.227799c0.595188-0.104538 1.154248-0.238259 1.62877-0.367613 0.256688-0.06998 0.474704-0.372354 0.674244-0.43447 0.478544-0.148961 0.784656-0.02635 0.784656-0.02635zm-9.79244 2.26796 0.277019 0.707771s0.442168 0.227255 0.727161 0.346272c0.284993 0.119018 0.341044 0.212337 0.341044 0.212337l-0.012851-0.303368s-0.146708-0.242026-0.230412-0.328186c-0.0837-0.08619-1.101961-0.634826-1.101961-0.634826zm8.952901 0.451673-0.461911 0.140897-0.70756 0.517661-0.591057 0.63636-0.0026 0.134361 0.229974 0.215825s0.409722-0.477995 0.670762-0.693194c0.261034-0.215198 0.634387-0.335602 0.634387-0.335602zm-5.448181 0.789005-0.250665 0.02158-0.492397 0.351491-0.616967 0.609564 0.04573 0.2596s0.182996-0.210717 0.566663-0.39288c0.383676-0.182163 0.89923-0.332279 1.171652-0.231282 0.272424 0.101 0.798159 0.576461 0.798159 0.576461l0.209288-0.260025-0.127618-0.219304-0.242821-0.318175-0.359555-0.227576-0.386996-0.159417zm2.893631 1.586741c-0.109567 0-0.234553 0.0055-0.271571 0.02311-0.06582 0.03132-0.256623 0.120903-0.370656 0.169438-0.114037 0.04854-0.322823 0.16876-0.40921 0.23825-0.08639 0.06949-0.405289 0.531602-0.405289 0.531602l0.202322 0.229104s0.272041-0.24302 0.596275-0.419886c0.324237-0.176867 0.705003-0.164902 0.946906-0.08253 0.241907 0.08238 0.661829 0.349313 0.661829 0.349313l0.310334-0.252408-0.349316-0.338646s-0.3176-0.284782-0.419224-0.345831c-0.101623-0.06104-0.273106-0.08924-0.313603-0.09561-0.01772-0.0029-0.09358-6e-3 -0.178797-0.0059zm-4.490822 0.634173c-0.04517 0-0.07918 0.0034-0.08994 0.0085-0.02869 0.0134-0.708654 0.261553-0.708654 0.261553l-0.02875 0.05879 0.226274 0.259606 1.317128 0.543353 0.447752 0.02895s-0.207812-0.622594-0.255237-0.687316c-0.04743-0.06472-0.31655-0.297584-0.351273-0.337114-0.03473-0.03953-0.164266-0.06934-0.294437-0.105839-0.08136-0.02278-0.187589-0.03089-0.262861-0.03051z" fill="#808080"/>
  <path id="path113439" transform="scale(.26458333)" d="m50.816406 27.041016s1.234848 6.10672 2.867188 8.679687c2.285495 3.602457 5.464095 6.913031 9.285156 8.810547 4.769964 2.368736 15.765625 2.587891 15.765625 2.587891s-10.728125-1.403958-15.339844-3.980469c-3.983467-2.225518-7.308407-5.70835-9.873047-9.482422-1.338988-1.970409-2.705078-6.615234-2.705078-6.615234zm-24.388672 11.628906-3.529296 8.761719s1.244165-0.250052 2.34375 0.335937c1.099657 0.586012 1.15625 1.94336 1.15625 1.94336l-0.035157 1.800781-0.505859 2.25-0.730469 1.591797 0.574219 6.28125 1.173828 3.53125 1.480469 1.4375 1.308593 0.460937 0.179688 0.796875-0.394531 2.71875-0.384766 1.435547s0.677253-1.745325 1.929688-1.675781c1.25247 0.069335 1.408203 1.761718 1.408203 1.761718l0.457031-3.082031-0.939453-1.070312-0.201172-1.740235 0.244141-1.373046s1.377701-1.184416 2.142578-1.197266c0.764865-0.012881 1.474609 1.451172 1.474609 1.451172l0.212891 2.226562 0.998047 1.013672 1.701172 0.533203 1.091796-0.169922 0.982422 1.041016 0.958985 1.873047 0.451171 1.986328c1e-6 0-0.105109 0.264853 0.5-0.021484 0.60511-0.286326 4.062102-0.254041 2.111329-0.498047-0.324586-0.04063 0.034593 3.41e-4 -0.478516-0.326172-1.054299-0.6709-2.600639-2.05855-3.78125-3.804688-0.574923-0.850306-0.825877-2.166432-1.347656-2.792968-0.735353 0.547831-1.245163 0.413955-1.654297 0.035156-0.772949-0.715597-1.214169-2.259389-0.685547-4.386719-1.436476 1.281906-1.36031 0.847585-2.46875 0.9375-0.674985 0.054716-1.419794-1.189651-1.708984-1.501953-0.152606-1.898192-0.271964-1.71832-0.875-2.289063-2.117042-2.003659-3.525919-4.571868-4.324219-8.476562-1.319146-6.45213-0.835938-11.798828-0.835938-11.798828zm61.058594 5.384766-1.130859 0.833984-2.914063 1.800781c-0.585596 0.556135-0.767211 1.130704-0.767578 1.712891 0.959407-1.032227 1.568415-1.725511 2.615234-2.085938 0.530389-0.182627 0.974638 0.721939 0.945313 1.052735-0.095433 1.076538-2.061055 3.285703-2.503906 5.839843-0.484211 2.792674-0.493265 3.49795-0.103516 5.085938l0.742188 2.128906s-0.043658-1.581418 1.060547-1.517578c1.104207 0.063912 2.921875 2.246094 2.921874 2.246094l-1.36914-3.482422-0.470703-3.839844 0.763672-3.408203 0.417968-5.179687-0.207031-1.1875zm-5.466797 22.822265c-7.105598 1.67754-9.201717 0.151948-12.787109 0.457031-3.001066 0.255375-8.697266 2.445313-8.697266 2.445313s10.229948-0.108984 15.292969-0.751953c3.172188-0.402856 6.191406-2.150391 6.191406-2.150391z" fill="#999"/>
  <path id="path210251" d="m19.850404 16.192819-0.06599 0.277227c0.04369-0.145164 0.06599-0.277227 0.06599-0.277227zm0.06511 0.03637 0.16878 0.210149 0.190126 0.220394 0.158758 0.14374 0.05684 0.02681 0.119128-0.07405 0.07492-0.120435 0.04965-0.203403 0.02288-0.191207s-0.102441 0.174757-0.24914 0.230844c-0.146696 0.05608-0.59192-0.242815-0.59192-0.242815zm-1.21564 0.150483-0.381116 0.643973s-0.206083 0.09625-0.343218 0.05705c-0.137142-0.03919-0.662484-0.524631-0.662484-0.524631l0.195565 0.359989 0.236724 0.257637 0.249143 0.216685 0.09626 0.05902 0.196438-0.03788 0.163986-0.340177 0.177052-0.353675zm1.084541 0.0906c-0.04952 0.164467-0.12642 0.345636-0.228887 0.370868-0.192953 0.04753-0.75025-0.360853-0.75025-0.360853l0.162029 0.195783 0.25959 0.262422 0.161374 0.14286 0.08581 0.01587 0.06381-0.0083 0.101049-0.0797 0.0268-0.04421 0.05161-0.145268 0.04618-0.261985zm-2.941763 0.169208s-0.037 0.119196-0.05858 0.230419zm-0.05858 0.230419-0.0068 0.02681c0.0026-0.0067 0.0042-0.01279 5e-3 -0.01808 6.49e-4 -0.0029 0.0013-0.0058 0.0016-0.0087zm-4.071815-0.01373s-0.184941 0.487189-0.292477 0.608695c-0.107536 0.1215-0.594971 0.293561-0.594971 0.293561l0.257195 0.192956 0.241732 0.0699 0.08276-0.121948 0.142857-0.315563 0.15267-0.529638zm4.06463 0.04159c-0.0494 0.137613-0.365 0.542925-0.365 0.542925s-0.315637 0.06644-0.50198 0.05684c-0.186339-0.0096-0.652031-0.518533-0.652031-0.518533l0.246742 0.372623 0.223007 0.249133 0.236727 0.157671 0.148961 0.09583 0.406156-0.06904 0.08646-0.215601zm-1.844587 0.189683s-0.221251 0.622075-0.392877 0.779003c-0.171619 0.15694-0.25306 0.246732-0.25306 0.246732l-0.348008-0.01395s-0.38296-0.06454-0.567319-0.189032c-0.184353-0.124479-0.390692-0.589305-0.390692-0.589305l0.03877 0.267654 0.110635 0.346921 0.126965 0.193599 0.323618 0.02311 0.761793 0.01438 0.381765-0.07144 0.148091-0.583642z" fill="#b3b3b3"/>
  <path id="path293615" d="m14.713869 15.864078 0.24459-0.611425s-0.310899-0.309212-0.841632-0.251823c-0.530722 0.0574-0.934295 0.408722-1.015808 0.537543-0.08151 0.128819 0.09456 0.417781 0.09456 0.417781l-0.515639-0.68853 0.323783-0.372523 0.413065-0.284354 0.843102-0.03688 0.73579 0.101257 1.546358 0.125595 1.244728-0.190639 1.531054-0.351912 0.480016-0.12138 0.507682 0.354856 0.390757 0.362731-0.102976 0.170652s-0.164629-0.324938-0.25688-0.415388c-0.09226-0.09047-0.378247-0.303754-0.674174-0.151291-0.31959 0.164648-0.221306 0.467882-0.134477 0.783556l-0.215118-0.09979-0.100121 0.300849s-0.0048-0.177846-0.156171-0.451523c-0.15136-0.273658-0.614446-0.317523-0.757617-0.298438-0.143175 0.01908-0.473173 0.114081-0.473173 0.114081l-0.07926 0.06122 0.0042 0.436414s-0.08596 0.360139-0.128241 0.428996c-0.04227 0.06886-0.160572 0.149353-0.160572 0.149353l-0.127153 0.07535s0.324571-0.252427 0.252697-0.763299c-0.02087-0.148257-0.132612-0.253213-0.261398-0.291224-0.128788-0.03801-1.212437 0.02012-1.284494 0.02593-0.111699 9e-3 -0.653433 0.182121-0.797714 0.286428-0.141734 0.102454-0.529785 0.647825-0.529785 0.647825z" fill="#b3b3b3"/>
  <path id="path6701" d="m21.491707 16.818126c-0.03018 0.03637-0.171882 0.150551-0.307044 0.225863-0.13516 0.07529-0.510807 0.198943-0.510807 0.198943s0.323977 0.05603 0.470001-0.0016c0.291325-0.115256 0.34785-0.423063 0.34785-0.423063z" fill="#f5f1e8"/>
  <path id="path47160-3" d="m24.348196 2.4276527c-0.01655 0-0.03401 0.00162-0.05226 0.00568-0.292411 0.065297-2.154498 0.6853236-2.709826 1.0261763-0.555338 0.340842-1.754652 1.247871-1.754652 1.247871s-0.995889-0.5589168-1.517489-0.7452398c-0.521594-0.1863229-1.561319-0.4054125-2.325008 0.061192-0.763688 0.4666072-1.278798 1.0331437-1.278798 1.0331437s-0.398312-0.3180843-0.892023-0.0723c-0.493712 0.2457879-0.718016 0.6326445-0.718016 0.6326445h-2.24e-4s-1.451336 0.014636-2.740318 0.4523381c-1.2889757 0.437715-3.0825241 2.3438197-3.4293673 3.0737292-0.3560662 0.7493351-0.5480195 1.2930253-0.6942805 2.1135503-0.049259 0.308615-0.1369537 0.85019-0.288936 1.045787-0.1533517 0.197347-0.6852036 0.665927-0.7174187 1.130257-0.032192 0.464335 0.1507232 0.8844 0.499585 1.152709 0.3598305 0.276741 0.7461127 0.312075 0.7461127 0.312075s0.052884 0.366317 0.065329 0.861972c0.012429 0.495662-0.100455 0.956431-0.012656 1.297092 0.087825 0.340664 0.215348 0.463583 0.4144342 0.66509 0 0 0.0013 0.909184 0.043775 1.117428 0.042434 0.208231 0.2271442 0.659213 0.2271442 0.659213s-0.2379507 0.786291-0.2134268 1.084547c0.024534 0.29826 0.014993 0.969376 0.481295 1.127229 0.4662925 0.157853 0.8162804 0.126933 0.9852317 0.01129 0.1689482-0.115613 0.3220955-0.245872 0.3220955-0.245872l0.7585223 0.25785 1.6579517 5.23455s0.0799 0.25417 0.222789 0.332321c0.142895 0.07817 1.666726 0.811776 3.025175 0.785529 1.358451-0.02625 2.916019-0.426065 3.369038-0.584512 0.453017-0.158453 0.638746-0.645288 0.638746-0.645288l0.85936-2.177562 1.154011-3.549809 1.284024-0.584956s0.403893-0.222793 0.44514-0.468221c0.04126-0.245427 0.137859-2.527111 0.137859-2.527111s0.317559 0.04731 0.627855-0.07753c0.310302-0.12484 0.651544-0.571307 0.676204-0.728472 0.02463-0.157152-0.640056-2.007264-0.640056-2.007264s-0.01347-0.643285 0.104755-0.941467c0.118183-0.298191 0.320924-1.343096 0.251749-1.577149-0.06918-0.234056 0.06506-0.532082 0.13132-0.707352 0.06627-0.17526 0.327797-0.597947 0.06447-1.19626-0.263351-0.5983137-0.578427-0.6576878-0.578427-0.6576878s0.400863-1.1615367-0.04007-2.1618975c-0.440951-1.0003558-1.899258-1.9266872-1.899258-1.9266872l1.257676-0.8321364s1.365997-0.2689553 1.579985-0.378062c0.213992-0.1091068 0.506897-0.338143 0.595413-0.7075598 0.08852-0.3694136 0.184239-0.7602748 0.184239-0.7602748s-0.06033-0.4575077-0.308809-0.460821zm-0.117382 0.3125156-0.5745 1.3652571s-1.037236 0.200446-1.646194 0.4490507c-0.608954 0.2486209-1.544054 1.1124239-1.544054 1.1124239s0.806584 0.4428329 1.155757 0.6748937c0.349167 0.2320444 0.807009 0.7780908 1.143338 1.7439844 0.336341 0.9659033-0.01003 1.7572508-0.01003 1.7572508s0.693245 0.8886771 0.63831 1.1834121c-0.05493 0.294739-0.396575 0.687531-0.396575 0.687531-0.158694 0.114331-0.779078 0.45716-0.965411 0.605213-0.141088 0.112095-0.20005 0.237311-0.216039 0.373924-0.016 0.136626 0.09044 0.157311 0.09365 0.07426 0.0034-0.08305 0.07388-0.276903 0.182494-0.353678 0.262711-0.185683 0.683353-0.440811 0.928395-0.594315 0.01243 0.06859 0.02437 0.160692 0.01983 0.245006-0.0087 0.161072-0.08661 0.621815-0.255238 1.708044-0.168636 1.086206 0.02496 1.156672 0.138505 1.540134 0.08378 0.417754 0.392438 0.773259 0.392438 1.201264 0 0.162815-0.290078 0.554205-0.498059 0.658992-0.207978 0.104924-0.569714-0.126309-0.569714-0.126309 0.124148-0.31787 0.171343-0.429554 0.192787-0.683568 0.02135-0.271172-0.337607-0.988753-0.337607-0.988753s0.281375 0.711074 0.247225 0.982006c-0.0112 0.36329-0.02051 0.374213-0.141172 0.745198l-0.217123 0.243698-0.208413 0.20471-6.49e-4 0.0087c-0.04868 0.03253-0.576597 0.383235-0.813843 0.437738-0.248524 0.05709-0.547004 0.197227-1.016376 0.216695-1.294892 0.05367-2.401562 0.120367-3.69571 0.196435-0.560377 0.03295-1.559937 0.353953-2.170819 0.601065-0.58836 0.238016-0.976418 0.424092-1.642059 0.364783-0.281277-0.02509-0.293204-0.03375-0.454938-0.06206-0.228682-0.04004-0.389271-0.104265-0.514834-0.149406 0.112557 0.06005 0.156023 0.144664 0.28769 0.200793 0 0-0.0741 0.22498-0.04922 0.480202 0.01373 0.140896 0.131165 0.329179 0.140686 0.50308 0.0082 0.149055 0.03945 0.343371-0.07274 0.441872-0.145018 0.127202-0.406418 0.199923-0.578638 0.01957-0.104433-0.10935-0.175003-0.259781-0.195133-0.409641-0.0147-0.109635 0.01736-0.2258 0.05858-0.326671 0.04122-0.100851 0.09722-0.22743 0.133283-0.458643 0.03367-0.215725-0.03755-0.444326-0.125222-0.634819 0.05313 0.01661 0.04472 0.02285 0.135244 0.05292-0.04337-0.01574-0.16484-0.11461-0.171178-0.127179 0.05401-0.08068-0.297082-0.607468-0.412257-0.774433-0.02625-0.248125-0.09404-0.413029-0.285071-0.660732-0.06009-0.05948-0.120854 0.01772-0.06338 0.06206 0.138515 0.219382 0.21575 0.383316 0.179884 0.643315-0.246407 0.04012-0.337065 0.02606-0.4862988-0.03856-0.1736472-0.07515-0.4201003-0.381979-0.4201003-0.381979s-0.050404-0.37408-0.030051-0.675546c0.02038-0.301462 0.073341-0.407723 0.1698698-0.610661 0.096525-0.202945 0.3717473-0.366954 0.3717473-0.366954l-0.05945-0.103229s-0.1691008 0.133692-0.2365132 0.213641c-0.067422 0.07994-0.2107106 0.276403-0.2428218 0.364779-0.032127 0.08838-0.1115082 0.516103-0.081883 0.806869 0.029629 0.290767 0.01178 0.502486-0.091031 0.722806-0.1028175 0.220177-0.4087746 0.183029-0.4771541 0.178151-0.068383-0.0049-0.1868357-6.8e-5 -0.3160009-0.273751-0.1291913-0.273687-0.066556-0.513338-0.032871-0.708001 0.023138-0.133735 0.091777-0.453082 0.1115049-0.807739 0.019731-0.354668-0.083087-0.589224-0.1570188-0.760051-0.073932-0.170775-0.1367688-0.177486-0.1367688-0.177486l-0.061626 0.05683s0.091596 0.107253 0.1524398 0.212554c0.060838 0.105316 0.1079547 0.352116 0.1306678 0.49153 0.022716 0.13941-0.038095 0.436524-0.047912 0.597801-0.0098 0.161289-0.1092949 0.449881-0.124132 0.635474-0.014831 0.185622 0.027811 0.386863 0.085151 0.539877 0.057349 0.153008 0.2095066 0.263078 0.2095066 0.263078s-0.1113297 0.437894-0.118693 0.570587c-0.00737 0.132686 0.029044 0.574461 0.033756 0.686437 0.00338 0.07734 0.017297 0.327726 0.028331 0.52812 0.00195 0.164106 0.013825 0.304279 0.022002 0.382631 0.043904 0.420542-0.1742735 0.776507-0.6511583 0.746333-0.4768847-0.03018-0.6603357-0.761151-0.6167527-1.062976 0.038939-0.341178 0.070586-0.547105 0.1038852-0.810362l-0.063593-0.944728s0.0038-0.909531 0.00717-0.981305c-0.1602965-0.202847-0.2060732-0.258642-0.2691728-0.564271-0.0631-0.30562 0.033166-0.43597-0.091034-1.248745-0.059248-0.387707-0.3040197-1.152704-0.3040197-1.152704 0.117833-0.05163 0.1849404-0.135425 0.2349879-0.304457 0.050044-0.169043 0.1196081-0.59281 0.03658-1.142682 0 0-0.045984 1.160261-0.4743243 1.340428-0.1221459 0.05138-0.4915855 0.03044-0.7907569-0.410729-0.4057502-0.598352 0.2414911-0.961658 0.6028794-1.612647 0.1141206-0.20558 0.2796126-0.715092 0.3577569-1.032946 0.0860139-0.349858 0.7157149-3.0618684 2.6991559-4.3185608 1.7752289-1.1247719 3.5013979-1.0203609 3.8387909-0.9878343-0.02074 0.2060991-2.63e-4 0.2951213-0.379591 0.9218465 0.471735-0.5182221 0.545424-0.7265506 0.6651-1.1257 0.06999-0.2334302 0.284182-0.3912408 0.535301-0.497839 0.532716-0.196714 0.924904 0.2156043 0.924904 0.2156043s0.773213-1.0068479 2.089156-1.2618132c1.315953-0.2549621 2.931749 0.8539116 2.931749 0.8539116s1.234388-1.1595507 1.507897-1.3839819c0.273511-0.2244378 1.609172-0.5893178 1.609172-0.5893178zm-2.456116 14.9204727-0.04638 0.59868c-0.178894 0.119757-0.506802 0.306882-1.069081 0.522674-0.960065 0.36845-2.582864 0.824076-2.582864 0.824076s1.333986-0.30318 2.193259-0.508302c0.575574-0.137392 1.126171-0.352759 1.431027-0.481503l-0.02723 0.349966c-0.156243 0.131505-0.457689 0.250947-0.844332 0.380457-0.768949 0.257597-2.619444 0.693628-2.619444 0.693628s2.117867-0.366925 2.527112-0.48651c0.254067-0.07425 0.656513-0.289417 0.925556-0.4421l-0.03203 0.412263c-0.200196 0.129711-0.533939 0.285357-1.091291 0.422927-1.120281 0.276517-2.299527 0.631343-2.299527 0.631343s1.787373-0.299388 2.219604-0.436436c0.292782-0.09282 0.829423-0.297688 1.156189-0.424235l-0.03287 0.424011-1.37767 0.666411-0.0083 0.02482c-0.259363 0.09861-1.396668 0.523674-2.311939 0.732386-1.032774 0.235504-1.688713 0.204025-3.150832 0.381989-1.4371 0.174925-4.601276-0.495636-4.709691-0.518748l-0.0096-0.03158-1.2101981-0.443183c0.022554-0.23847-0.00841-0.451985-0.049434-0.666843-0.00672-0.09444-0.027552-0.383884-0.045079-0.670976-0.02025-0.331646-0.079647-0.685827-0.042687-0.851517 0.03696-0.165693 0.1099797-0.37066 0.1099797-0.37066 0.1731831 0.07443 0.2890755 0.06808 0.4788968-0.03135 0.2417346-0.126638 0.2722232-0.451683 0.2722232-0.451683s0.068201 0.144914 0.1763959 0.231295c0.1082078 0.08637 0.3012025 0.150551 0.4765045 0.181403 0.175306 0.03086 0.338429-0.03093 0.338429-0.03093s0.172492 0.316264 0.334943 0.510249c0.02629 0.04375 0.0542 0.09332 0.08167 0.147442 0.09855 0.194225 0.184376 0.44233 0.152447 0.647018-0.03435 0.22017-0.08437 0.330091-0.126745 0.433824-0.04237 0.10372-0.115048 0.299697-0.09801 0.453412 0.01678 0.151236 0.07756 0.313785 0.191863 0.414217 0.108269 0.09513 0.268939 0.142808 0.412474 0.129798 0.149182-0.01353 0.308784-0.08884 0.397228-0.209727 0.09747-0.133222 0.102127-0.322946 0.08777-0.48739-0.01373-0.157252-0.160141-0.324529-0.163331-0.444488-0.0038-0.147961 0.05505-0.332165 0.09996-0.449933 0.45326 0.112495 0.959105 0.133757 1.357417 0.06817 0.391955-0.06753 0.636065-0.261709 1.108277-0.441873 0.472208-0.180153 1.49767-0.559166 1.935185-0.583651 1.133413-0.06343 2.159554-0.06193 3.260591-0.117382 0.660131-0.03325 1.056032-0.123065 1.47632-0.277883 0.392367-0.144544 0.68852-0.376115 0.747203-0.423596zm-1.648807 3.383856-0.01347 0.04029-0.152664 0.481723c-0.117216 0.104025-0.600257 0.532696-0.698415 0.619589-0.110099 0.09751-0.185122 0.06834-0.30228-0.01048-0.11464-0.07711-0.640342-0.595769-0.663136-0.618275 0.792383-0.208338 1.60068-0.444403 1.829998-0.512864zm-10.064877 0.506335 0.694936 0.06904s0.691895 0.179177 1.577152 0.288997c-0.06957 0.01636-0.154614 0.0456-0.239771 0.09821-0.198616 0.122675-0.436661 0.309536-0.482165 0.349975-0.04551 0.04041 0.0092 0.146069 0.03831 0.172261 0.02911 0.02622 0.433473 0.592294 0.550985 0.686012 0.117505 0.0937 0.329264 0.192472 0.490654 0.192732 0.161387 0 0.450284-0.08279 0.68448-0.275056 0.234196-0.192262 0.649601-0.466036 0.798815-0.602163 0.149214-0.136132 0.207546-0.164765 0.12457-0.257633-0.07434-0.08318-0.313489-0.241306-0.364783-0.274835 1.088364 0.01136 2.20979-0.03806 2.879914-0.11107 0.290633-0.03164 0.812626-0.157094 1.351539-0.296621l0.236721 0.27615s0.472212 0.431316 0.62176 0.487166c0.149552 0.05587 0.210685 0.05445 0.355635-0.08776 0.09936-0.09749 0.346048-0.304082 0.493052-0.425754l-0.529639 1.671237c-0.06534 0.02538-0.154429 0.06831-0.275929 0.137853-0.503437 0.288147-0.879925 0.618174-1.108059 0.870024-0.228134 0.251853-0.276419 0.312454-0.326885 0.364783-0.05046 0.05233-0.09454 0.06247 0.09473 0.240868 0.164016 0.154588 0.663818 0.561954 0.847597 0.716705-0.05008 0.116901-0.176107 0.402615-0.324926 0.600854-0.05555 0.07398-0.111472 0.127536-0.164859 0.172265v-0.03266c-0.290565-0.274131-0.674809-0.60456-0.882661-0.649419-0.09067-0.0196-0.18311-0.02869-0.277233-0.02742-0.282362 0.0016-0.475422 0.149818-0.783569 0.262209-0.410865 0.14985-0.731954 0.773989-0.731954 0.773989s0.163013 0.183198 0.367827 0.38133l-0.391131 0.176396-1.783394 0.07252c-0.04642-0.181023-0.133186-0.420457-0.287466-0.552722-0.202072-0.173225-0.306414-0.340826-0.52049-0.422492-0.07122-0.02762-0.144188-0.04717-0.218655-0.05815-0.0093-0.0013-0.01931-0.0019-0.02982-0.0026h-0.0233c-0.217405 0.0044-0.629448 0.168952-0.910096 0.291604l-0.05597-0.04814-0.466701-1.367214c0.186063-0.228484 0.730672-0.904601 0.791847-1.068422 0.07377-0.197548-0.04249-0.460821-0.297487-0.655079-0.242452-0.184706-0.99181-0.587396-1.065813-0.626984zm2.4927 0.381554c0.226099 0.02401 0.458449 0.04434 0.695806 0.05358 0.19611 0.0076 0.401005 0.0083 0.603684 0.01116 0.02045 0.0147 0.353973 0.254715 0.370442 0.288339 0.01697 0.03468 0.04472 0.07866-0.275926 0.322306-0.320651 0.243659-0.700657 0.514964-0.894856 0.615016-0.194193 0.10005-0.453876 0.166755-0.663354 0.02635-0.209484-0.140403-0.46428-0.395521-0.566663-0.585822-0.102379-0.190292-0.211548-0.189831-0.101487-0.28943 0.110064-0.09959 0.260258-0.263312 0.442096-0.327102 0.128014-0.04491 0.299175-0.09085 0.390258-0.114335zm4.045247 0.199927c-0.07929-0.0013-0.159781 0.0057-0.241297 0.01872-0.326051 0.05006-0.548834 0.254183-0.904657 0.436657-0.474437 0.24325-0.845418 1.018978-0.845418 1.018978s0.48502 0.479433 0.886581 0.707129c0.234293 0.132845 0.463946 0.309276 0.70212 0.382209-0.218622-0.127267-0.928126-0.675861-1.119605-0.807745-0.208906-0.143883-0.310118-0.307505-0.310118-0.307505s0.418238-0.737325 0.832572-0.988283c0.220112-0.133316 0.366545-0.265544 0.610213-0.301631 0.215011-0.032 0.411955-0.03396 0.542707-0.02002 0.278944 0.02982 1.236001 0.893429 1.262466 0.915976 0 0 0.05178 0.128932-0.04355 0.250445-0.09533 0.121507-0.797591 0.760807-1.167514 1.057973-0.165762 0.13317-0.268823 0.201588-0.344092 0.232375 0.08644-0.0076 0.174362-0.03468 0.264601-0.08755 0.440165-0.257928 1.164545-0.909382 1.345442-1.141164 0.180906-0.231768 0.06773-0.393963 0.06773-0.393963s-1.040514-0.941185-1.459339-0.969551c-0.02619-0.0016-0.0524-0.0029-0.07884-0.0029zm-0.139596 2.595274c-0.08918 0.0079-0.17673-0.0051-0.263075-0.03158 0.01989 0.01162 0.03628 0.01999 0.04725 0.02395 0.07275 0.02625 0.123109 0.04554 0.215821 0.0076zm-5.904643-1.547102c0.20163 0.109873 0.626362 0.343303 0.839973 0.475191 0.286071 0.17661 0.430628 0.450829 0.435558 0.569486 0.0049 0.118674-0.05341 0.270919-0.137201 0.364559-0.07422 0.08296-0.520876 0.624051-0.626767 0.752434l-0.03418-0.100182s0.123195-0.720223 0.03025-1.231974c-0.09292-0.511754-0.485212-0.755478-0.485212-0.755478zm8.700273 0.56273-0.197964 0.449933s-0.389654 0.64263-0.484991 0.901607c-0.09534 0.258986 0.04465 0.653563 0.04465 0.653563s-0.0059 0.01308-0.0061 0.01369c-0.05092-0.01681-0.114205-0.05384-0.185326-0.130236-0.183468-0.197071-0.475477-0.450595-0.558388-0.526805-0.08291-0.07622-0.142377-0.182815-0.05009-0.287904 0.09228-0.105099 0.665973-0.655747 0.931222-0.823641 0.150415-0.0952 0.356492-0.187848 0.506988-0.25023zm-5.220599 0.568406c-0.07826 0.0013-0.155107 0.0097-0.230847 0.02612-0.34622 0.07472-1.206499 0.980221-1.206499 0.980221s-0.09357 0.147854 0.05597 0.317309c0.149545 0.169451 0.748339 0.619215 1.1122 0.778554 0.07444 0.03262 0.147124 0.04426 0.218431 0.04008-0.06219-0.01629-0.147267-0.06047-0.283984-0.150048-0.305798-0.200374-0.886393-0.64275-0.965196-0.731529-0.07881-0.08878-0.03595-0.201663-0.03595-0.201663 0.02187-0.02187 0.813009-0.853019 1.043597-0.911838 0.108087-0.02755 0.270889-0.04999 0.448628-0.04988 0.20143 0 0.322417 0.0914 0.504372 0.174663 0.342511 0.156737 0.688186 0.714979 0.688186 0.714966 0 0-0.08342 0.14775-0.256111 0.292259-0.158181 0.132375-0.744182 0.672041-0.925345 0.804484 0.196779-0.08949 0.386587-0.263367 0.580167-0.401801 0.331947-0.237389 0.732823-0.692979 0.732823-0.692979s-0.306661-0.595672-0.698849-0.738707c-0.294148-0.107277-0.47832-0.248761-0.747853-0.250224zm0.167472 2.083711c-0.07162 0.03258-0.14423 0.05423-0.218217 0.05859 0.07691 0.02018 0.118553-0.0019 0.178794-0.03266 0.0092-0.0047 0.02278-0.01373 0.0394-0.02593zm2.594618-0.387649c0.1862 0 0.356735 0.02317 0.469969 0.05205 0.142153 0.03628 0.483622 0.350205 0.748508 0.60913-0.08733 0.06043-0.152667 0.08602-0.152667 0.08602s-0.61747 0.344312-0.946465 0.463426c-0.285466 0.103379-0.851227 0.102506-1.016596 0.101056-0.02616-0.02291-0.06626-0.05908-0.08363-0.07362-0.180916-0.151386-0.268523-0.306194-0.268523-0.306194s0.362258-0.584957 0.721069-0.749154c0.190617-0.08723 0.317309-0.182721 0.528331-0.182721zm-4.336416 0.608484c0.01168-0.0013 0.0221-0.0013 0.03115 0 0.09425 0.01035 0.230533 0.04113 0.371965 0.0943 0.160319 0.06016 0.22937 0.169026 0.349316 0.28964 0.136863 0.137629 0.230049 0.391845 0.282679 0.571677-0.01113-7e-3 -0.601792-0.377685-0.99242-0.496758-0.394317-0.120199-0.757221-0.13415-0.757221-0.13415l-0.05662-0.04857c0.261201-0.117059 0.61815-0.266906 0.771161-0.276577zm5.624798 0.811004c-0.0043 0.0034-0.0085 0.0068-0.01285 0.01025h0.01285z"/>
  <path id="path204-6" d="m15.002779 5.4409727s-0.197461 0.2334756-0.253703 0.3435494c-0.05625 0.1100868-0.222046 0.5406886-0.222046 0.5406886s-0.145262-0.2762603-0.157434-0.3314091c-0.01217-0.055149-0.102403-0.1486203-0.182818-0.076583-0.08042 0.072043-0.05419 0.1712035-0.05419 0.1712035s0.356595 0.9621714 0.642146 1.3824405c0.503362 0.7408327 1.124882 1.422366 1.848688 1.9499245 0.912331 0.6649759 1.951858 1.2176259 3.053164 1.4659749 0.758032 0.170937 1.899296-0.01921 2.33118-0.0095 0.431884 0.0098 0.675221-0.05095 0.675221-0.05095s0.09368-0.0158 0.08148-0.07404c-0.01217-0.05825-0.130035-0.0247-0.130035-0.0247l-0.333194 0.0069c0.210148-0.243803 0.359424-0.534267 0.509362-0.8242286l-0.01178-0.1813415s-0.181193 0.4203661-0.302878 0.6131151c-0.0905 0.143353-0.314803 0.399451-0.314803 0.399451s-1.420867 0.118946-2.106885-0.03174c-1.132476-0.248772-2.210008-0.7745745-3.179786-1.4101169-0.663678-0.4349503-1.272811-0.9787056-1.753347-1.6101623-0.25773-0.3386848-0.581711-1.1365844-0.581711-1.1365844s0.154183-0.4485704 0.240765-0.5940006c0.08659-0.1454367 0.263909-0.4491676 0.263909-0.4491676z" fill="#201c1d"/>
  <path id="path5545-7" d="m20.032608 5.1074088s-0.149567 0.3854871-0.278275 0.8043023c-0.128711 0.4188152-0.200842 1.0225482-0.200842 1.0225482s0.219787-0.4387959 0.361317-0.6380834c0.162302-0.2285396 0.554354-0.6323231 0.554354-0.6323231l0.217175 0.023885s-0.466396 0.3088648-0.643776 0.5201725c-0.187277 0.2230909-0.285077 0.4688204-0.423131 0.7645551-0.02648 0.056681-0.0373 0.1395532-0.121708 0.1428308-0.08445 0.00338-0.04147-0.2415789-0.03709-0.3860647 0.0044-0.1444956 0.198843-0.8747393 0.268589-1.0490647 0.06975-0.1743222 0.260336-0.6092953 0.260336-0.6092953z" fill="#201c1d"/>
  <path id="path13769-5" d="m7.4212193 17.455966s0.1061341 0.107475 0.2365261 0.192833c0.1303952 0.08537 0.2351566 0.08659 0.2351566 0.08659s-0.015739-0.408301-0.092628-0.658022c-0.076872-0.249734-0.3098286-0.870595-0.3098286-0.870595l0.094769-0.05034s0.2696725 0.788102 0.3040131 0.920402c0.034347 0.132307 0.1239633 0.533099 0.1049529 0.749245-0.019017 0.216159-0.015123 0.497141-0.08126 0.834596-0.06614 0.337452-0.5098819 1.251377-0.5098819 1.251377l0.013273-0.286123s0.235121-0.489719 0.3181915-0.734699c0.08307-0.24499 0.1496814-0.420542 0.1398225-0.701923-0.00987-0.281378-0.023885-0.326301-0.023885-0.326301s-0.1632691-0.115928-0.2403684-0.15365c-0.077099-0.03772-0.2424811-0.211042-0.2424811-0.211042z" fill="#201c1d"/>
  <path id="path208-3" d="m20.274856 13.963409c-0.04369-0.0013-0.09045 0.0016-0.140686 0.0087-0.769709 0.103603-1.307866 0.325974-1.972862 0.498712-0.660861 0.171681-1.39633 0.308015-2.507507 0.197753-1.095741-0.108753-1.190075-0.177493-1.609608-0.185551-0.170103-0.0034-0.596976-0.01785-0.932747 0.216903-0.510323 0.356698-0.539643 0.738285-0.69036 0.950397-0.120559 0.169653-0.244328 0.441263-0.372837 0.684036-0.128494 0.242773-0.240022 0.465211-0.270046 0.605862-0.02502 0.117255-0.185859 0.406048-0.137635 0.640708 0.0482 0.234654 0.318473 0.409317 0.761573 0.500893 0.863592 0.178482 1.306288 0.125037 1.574543 0.126744 1.258597 0.04037 2.67615-0.524936 3.770625-0.70212 0.292444-0.04734 1.57884-0.03064 1.934315-0.130227 0.18065-0.05061 0.688095-0.19709 1.0669-0.358682 0.322563-0.132378 0.509701-0.210986 0.796852-0.371974 0.185826-0.104174 0.08474-0.52307 0.05902-0.688173-0.04749-0.297-0.08805-0.602117-0.207111-0.878309-0.134744-0.312564-0.206959-0.552585-0.561649-0.852607-0.102325-0.08655-0.254992-0.257873-0.560783-0.263081zm0.076 0.175535c0.195832-0.0019 0.320304 0.04608 0.445144 0.142857 0.03158 0.0245 0.442583 0.62384 0.555116 0.841716 0.133586 0.350877 0.163221 0.486053 0.187073 0.834532 0.0087 0.152177 0.09871 0.43435 0.01869 0.479552-0.101162 0.05718-0.215935 0.106705-0.33407 0.152226-0.0034-0.107825-0.01846-0.56153-0.03333-0.666187-0.01678-0.118249-0.130242-0.582905-0.243694-0.779217-0.113459-0.196308-0.586871-0.714118-0.859357-0.866321-0.06708-0.03747-0.115049-0.06603-0.149396-0.08799 0.07405-0.01314 0.140961-0.02476 0.191427-0.03203 0.08378-0.01204 0.157078-0.0184 0.222355-0.01918zm-0.564047 0.07927c0.167932 0.08127 0.567701 0.295225 0.866545 0.616097l-0.201666 0.364786s-0.289991 0.343384-0.384816 0.354755c-0.09481 0.01136-0.718888-0.432945-0.718888-0.432945l-0.02681 0.04988c0.01464-0.138655 0.03861-0.733869 0.04378-0.866335 0.152001-0.03229 0.296873-0.06212 0.421836-0.08624zm-0.473886 0.09757c0.0034 0.0435 0.0088 0.102136 0.01678 0.141777 0.01366 0.06738-0.04843 0.649104-0.06402 0.748507-0.01561 0.09941-0.176137 0.377069-0.379591 0.4826-0.203451 0.10553-0.809043 0.198726-0.973688 0.211236-0.12348 0.0093-0.348054 0.01184-0.452546 0.01243 0.07695-0.04676 0.142071-0.0936 0.166381-0.135899 0.04989-0.08679 0.129418-0.285973 0.144392-0.411601 0.01496-0.125622-0.0087-0.448626-0.0087-0.448626l-0.01655-0.231726c0.153644-0.03312 0.301674-0.06885 0.44405-0.105836 0.341846-0.0888 0.754563-0.183821 1.123522-0.262857zm1.118077 0.0026s0.560555 0.491342 0.69232 0.834758c0.131761 0.343426 0.271353 1.135711 0.271353 1.135711s-0.06032-0.820414-0.238904-1.178843c-0.17859-0.35837-0.724769-0.791626-0.724769-0.791626zm-6.585856 0.321663c0.05471-0.0013 0.104557 0.0013 0.148744 0.0019 0.314268 6e-3 0.474025 0.03038 1.013108 0.0895l-0.08276 0.602821s-0.17477 0.478618-0.276364 0.573627c-0.101598 0.09501-0.747752 0.603587-0.824945 0.612395-0.07719 0.0088-0.06251-0.01785-0.06251-0.01785-0.412419-0.338993-0.71564-0.790692-1.013325-1.248307 0.104138-0.125163 0.245593-0.247202 0.495447-0.421843 0.230516-0.161098 0.438465-0.189587 0.602597-0.192297zm3.859917 0.05335c0.01087 0.14113 0.04225 0.592962 0.0085 0.753946-0.04016 0.191509-0.159524 0.316829-0.323838 0.421629-0.164304 0.104794-0.419246 0.282559-1.019202 0.328635-0.599952 0.04607-1.171165 0.01132-1.331069 0-0.132037-0.0093-0.36895-0.119388-0.448408-0.157902 0.04415-0.03321 0.09201-0.06846 0.130453-0.09843 0.291588-0.227323 0.246022-0.548662 0.264818-0.689056 0.01736-0.129525 0.06824-0.460149 0.07666-0.514818 0.160641 0.01749 0.337955 0.03658 0.577116 0.06032 0.863735 0.08571 1.510324 0.01227 2.064983-0.104323zm3.010578 0.211032c0.07161 0.08511 0.135373 0.17684 0.185544 0.275056 0.24459 0.478767 0.265421 1.070071 0.262209 1.334989-0.02291-0.09572-0.06822-0.285983-0.09168-0.389612-0.02259-0.09981-0.146897-0.117745-0.218434-0.119566 2.63e-4 -0.0043 0.0034-0.01691 0.0034-0.02002-0.0013-0.08001-0.126874-0.348391-0.163551-0.373051-0.03666-0.0247-0.08746-0.0637-0.25001-0.03203-0.137071 0.02671-0.444861 0.153361-0.538784 0.192745-0.02749-0.02184-0.06207-0.02158-0.06207-0.02158s-0.05615-0.01791-0.209286-0.01743c-0.05104 0-0.11291 0.0019-0.187072 0.0078-0.259557 0.0196-0.55893 0.180102-0.636133 0.22671 0.0079-0.05025 0.02369-0.146002 0.02635-0.163341 0.135185-0.06068 0.248426-0.132154 0.295524-0.176399 0.08018-0.07532 0.171576-0.318474 0.18751-0.43164 2.6e-4 -0.0019 6.49e-4 -0.01058 0.0013-0.01308 0.01412 0.0096 0.545888 0.372331 0.572544 0.387434 0.027 0.01532 0.17303 0.11179 0.263734 0.03527 0.08887-0.07498 0.540893-0.678116 0.559037-0.702335zm-8.026904 0.426632c0.04322 0.06009 0.48038 0.668582 0.512867 0.739577 0.0234 0.05111 0.210756 0.249543 0.35041 0.385461-0.09569 0.03245-0.288375 0.100202-0.375015 0.148527-0.117557 0.06558-0.245226 0.172203-0.27527 0.254368-0.01003 0.02749-0.0088 0.08159-0.0044 0.142422l-0.126965-0.0013c0.01574-0.180638-0.0597-0.278808-0.155932-0.36108-0.121351-0.103733-0.57648-0.08308-0.596934-0.0821 0.03164-0.06419 0.06546-0.130798 0.101704-0.199272 0.127387-0.240654 0.258415-0.479172 0.357812-0.665103 0.07935-0.148435 0.138667-0.259453 0.211681-0.361725zm7.888396 0.300308c0.02781 0.0026 0.05229 0.0085 0.07209 0.01827 0.181283 0.09011 0.09155 0.85815 0.01217 0.971949-0.07937 0.113796-0.179067 0.255066-0.297708 0.09321-0.118635-0.161854-0.471495-0.515476-0.471495-0.515476l-0.01457 0.05401s0.402027 0.433211 0.454285 0.491738c0.05226 0.05852 0.101766 0.113299 0.160504 0.0895 0.05874-0.02375 0.168922-0.09071 0.196873-0.171391 0.02304-0.06658 0.118729-0.418069 0.152229-0.588221 0.0459 0.01136 0.123843 0.03291 0.164424 0.05727 0.05975 0.03591 0.09038 0.29727 0.09038 0.29727l0.03788 0.193177c-0.204632 0.07473-0.413435 0.140163-0.57842 0.210587-0.377543 0.161056-0.790219 0.327839-0.950823 0.372844-0.212515 0.05952-0.811455 0.117949-1.290345 0.169217 0.06917-0.120669 0.321449-0.562925 0.357598-0.659664 0.01399-0.0375 0.03776-0.160806 0.0625-0.298571l0.05401 0.09823s0.346175 0.361648 0.435557 0.45298c0.08938 0.09132 0.25578 0.190198 0.329284 0.140248 0.0735-0.04995 0.148931-0.179489 0.165073-0.246748 0.01613-0.06725 0.227066-0.938618 0.218217-1.025301-0.0016-0.01626-0.0066-0.02856-0.01266-0.03919 0.09829-0.04084 0.458316-0.183655 0.652901-0.165949zm-0.839318 0.177057c0.07095 0 0.117119 0.0034 0.124787 0.0124 0.01752 0.02038-0.0092 0.181105-0.04377 0.381986-0.03464 0.200874-0.08363 0.341913-0.08363 0.341913s-0.02255 0.443895-0.14199 0.490012c-0.119417 0.04612-0.178541 0.09151-0.272447-0.02288-0.0939-0.11438-0.477518-0.461677-0.515698-0.542921-0.03818-0.08136-0.049-0.122827-0.049-0.122827l-0.0038-0.02833c0.02126-0.123145 0.03206-0.189957 0.04792-0.289426l0.06707 0.0042s0.24727-0.184438 0.50307-0.204931c0.143885-0.01155 0.276176-0.01876 0.367392-0.01918zm-0.975652 0.0281c-0.01191 0.07582-0.10886 0.690347-0.133939 0.756348-0.02586 0.06814-0.331928 0.745967-0.350186 0.786395-0.07313 0.0079-0.15169 0.01626-0.215818 0.02372-0.03751-0.03057-0.259201-0.212424-0.448626-0.39657-0.103554-0.100676-0.225817-0.328209-0.325143-0.534435 6.49e-4 0 0.0034 0.0013 0.0034 0.0013l-7e-3 -0.0087c-0.07979-0.166274-0.145557-0.319042-0.165297-0.36673 0.03333-0.01389 0.06434-0.02794 0.08973-0.04269 0.03359-0.01947 0.07333-0.04206 0.111502-0.06316 0.04164 0.0088 0.142584 0.0233 0.362819 0.02502 0.32082 0.0026 0.601725-0.06818 0.849992-0.11282 0.07642-0.01373 0.154332-0.03839 0.228672-0.0675zm-4.222302 0.241728c0.03953 0.01606 0.243218 0.09815 0.413127 0.161812 0.0019 0.02272 0.0059 0.05952 0.01548 0.114338 0.01045 0.05988 0.06411 0.22054 0.13219 0.392435-0.02807 0.0013-0.06444 0.0069-0.104313 0.022-0.04054 0.01535-0.07125 0.03206-0.09277 0.04595-0.06628-0.12124-0.159164-0.236286-0.246748-0.320573-0.138388-0.133157-0.413072-0.132777-0.512871-0.127838 0.120092-0.08598 0.262724-0.188932 0.395924-0.288125zm2.52558 0.04008c9e-3 0.01889 0.07845 0.164635 0.127621 0.267654-0.03654-0.0096-0.09306-0.01834-0.145476-0.0013-0.05198 0.01694-0.122571 0.03102-0.170736 0.03966-0.0095-0.09309-0.02333-0.190493-0.03073-0.239129 0.07954-0.02051 0.153777-0.04301 0.219301-0.06686zm-0.307716 0.08843c0.0079 0.08104 0.02924 0.306366 0.03025 0.36673 0.0013 0.07348-0.122435 0.533935-0.168562 0.699515-0.04294 0.154121-0.116811 0.427201-0.127618 0.46713-0.12357 0.02859-0.247592 0.05572-0.371532 0.08254-0.05715-0.03076-0.16115-0.0945-0.350845-0.224097-0.384234-0.262488-0.617992-1.120943-0.664444-1.30515 0.02197 7e-3 0.05253 0.01808 0.0649 0.02067 0.107825 0.02285 0.579131 0.0026 0.775945-0.0052 0.196815-0.0078 0.27788-0.0043 0.550545-0.04944 0.08739-0.01451 0.175292-0.03283 0.261339-0.0527zm0.265905 0.228446c0.05573-0.0013 0.144713 0.01369 0.204711 0.02483 0.07034 0.147393 0.12603 0.263792 0.168344 0.352795 0.07388 0.155409 0.440295 0.498786 0.554682 0.603911-0.09483 0.01197-0.177483 0.02359-0.224746 0.03418-0.390293 0.08738-0.773152 0.181537-1.156189 0.270919l0.03485-0.06295s0.267027-0.9421 0.279628-1.048607c0.0034-0.02765 0.0013-0.0729-0.0026-0.122386 0.02927-0.02106 0.07685-0.04887 0.128702-0.05227h0.01266zm-2.990542 0.01029c0.06272 0.0034 0.362541 0.0232 0.4826 0.07971 0.134315 0.0632 0.299749 0.309945 0.353015 0.498705 0.05327 0.188767-0.04632 0.500718-0.07687 0.607391-0.02213 0.07719-0.07078 0.304178-0.09626 0.425315-0.234861 0.02288-0.473451 0.03764-0.718019 0.04008-0.163807-0.0013-0.375819 0.01551-0.687092-0.0034-0.01587-0.0149-0.03464-0.03266-0.0588-0.05618-0.06648-0.06475-0.06816-0.165203-0.120649-0.253278-0.0525-0.08807-0.117386-0.583431-0.117386-0.583431l0.0076-0.314034s0.141714-0.127416 0.230412-0.205801c0.07514-0.06641 0.313271-0.141899 0.384815-0.163551 0.03203 0.02937 0.06455 0.05898 0.07774 0.06708 0.06881 0.04218 0.143519 0.0013 0.189906-0.03266 0.01191-0.0086 0.08883-0.06335 0.148964-0.106062zm-2.023168 0.127835-0.0305 0.121737s0.457858-0.05579 0.61305 0.09233c0.155211 0.148124 0.03654 0.343822-0.01003 0.541182-0.03713 0.157321-0.184499 0.491982-0.243474 0.622854-0.345727-0.09273-0.465802-0.264811-0.503288-0.447318-0.04054-0.197272-0.0026-0.439477 0.02502-0.568844 0.01564-0.07321 0.07365-0.207546 0.149181-0.361946zm3.114898 0.234546c0.0318 0.07719 0.06531 0.154342 0.100176 0.22497 0.122726 0.248586 0.469041 0.585145 0.591485 0.662705 0.08016 0.05064 0.178655 0.106786 0.239995 0.141121-0.423731 0.09031-0.851539 0.16725-1.293389 0.213637 0.05539-0.19145 0.204808-0.717009 0.228449-0.893327 0.01256-0.09355-0.01759-0.199145-0.06817-0.302284 0.01736-0.01266 0.0473-0.02499 0.09822-0.03287 0.04363-0.0068 0.07724-0.01103 0.10323-0.01395zm-2.362688 0.254807 0.142425 0.02048c0.0124 0.103986 0.03158 0.216847 0.04181 0.288988 0.01973 0.138774 0.09658 0.393171 0.09691 0.415083 2.6e-4 0.01684 0.09313 0.209354 0.136545 0.298581-0.203253-0.01694-0.445131-0.04935-0.741313-0.109983 0.05505-0.139583 0.213862-0.546124 0.294219-0.796423 0.0136-0.04236 0.02278-0.08068 0.0294-0.11672z" color="#000000" stroke-width=".421428" style="-inkscape-stroke:none"/>
  <path id="path94364" transform="scale(.26458333)" d="m65.875 16.791016c-0.106473 0.002311-0.210365 0.008761-0.310547 0.017578-2.220057 0.195375-5.539856 1.745785-5.380859 3.96875 0.128844 1.802166 2.98299 2.776005 4.777344 2.564453 2.185393-0.257658 5.223099-2.209743 4.929687-4.390625-0.201154-1.495053-2.418535-2.194824-4.015625-2.160156zm-20.876953 7.30664c-1.229658-0.01328-2.484501 0.267559-3.642578 0.658203-3.383362 1.141202-6.7221 2.92297-9.1875 5.50586-2.02894 2.125663-3.550374 4.894403-4.175781 7.765625-0.23904 1.097416-0.895666 3.206859 0.216796 3.361328 1.019763 0.141619 0.568358-1.992494 1.03125-2.91211 1.285221-2.553256 2.666708-5.196311 4.78711-7.113281 2.56849-2.32208 5.953538-3.593037 9.158203-4.904297 1.500941-0.614148 4.501934 0.244066 4.667969-1.36914 0.063413-0.616307-1.030229-0.758149-1.638672-0.875-0.400078-0.076827-0.806911-0.112761-1.216797-0.117188zm-21.496094 24.878906c-0.799839 0.024005-1.734199 1.303954-1.529297 2.09961 0.106832 0.415302 0.79971 0.591165 1.205078 0.451172 0.436756-0.150841 0.623835-0.732231 0.722657-1.183594 0.095546-0.436585 0.246628-1.196966-0.15625-1.332031-0.078475-0.026313-0.159446-0.037639-0.242188-0.035157zm62.212891 10.642579c-0.032921 7.51e-4 -0.06423 0.003466-0.09375 0.007812-0.314457 0.046262-0.7034 0.252086-0.771485 0.566406-0.152579 0.345147-0.01679 1.015291 0.351563 1.078125 0.33343 0.057033 0.432867-0.529434 0.617187-0.816406 0.129978-0.202507 0.42726-0.409354 0.341797-0.634766-0.057943-0.152146-0.267541-0.205228-0.445312-0.201171zm-52.326172 5.955078c-0.033636 7.6e-4 -0.065538 0.003424-0.095703 0.007812-0.321377 0.046602-0.719482 0.255027-0.789063 0.572266-0.155928 0.348359-0.015196 1.02444 0.361328 1.087891 0.340706 0.057523 0.440573-0.532607 0.628907-0.822266 0.132846-0.204397 0.438915-0.415043 0.351562-0.642578-0.059299-0.153581-0.2754-0.20723-0.457031-0.203125zm-3.595703 8.765625c-0.010626 3.58e-4 -0.020904 0.001338-0.03125 0.001953-0.551105 0.032882-1.254313 0.328104-1.417969 0.855469-0.314532 0.567579-0.175324 1.730761 0.453125 1.892578 0.568804 0.146532 0.826679-0.839293 1.1875-1.302735 0.254506-0.32708 0.800657-0.639064 0.685547-1.037109-0.090422-0.308218-0.547563-0.421263-0.876953-0.410156zm13.232422 1.419922c-0.04085-3.9e-5 -0.079036 0.0045-0.115235 0.009765-0.321373 0.046602-0.719492 0.253074-0.789062 0.570313-0.155944 0.348397-0.017066 1.024455 0.359375 1.08789 0.340686 0.057411 0.442525-0.532621 0.630859-0.822265 0.132851-0.204435 0.436957-0.415047 0.34961-0.642578-0.057119-0.147893-0.258531-0.202958-0.435547-0.203125z" fill="#f9f9f9"/>
  <path id="path99469" d="m14.664123 5.4760273s-0.237837-0.1484222-0.430676-0.063346c-0.192836 0.085079-0.326022 0.042519-0.423313 0.2170744-0.09729 0.1745591-0.237425 0.3903484-0.236345 0.486497 0.0013 0.096149-0.05118 0.075246 0.160086 0.1098175 0.211262 0.034561 0.179904-0.085186 0.221452-0.2134593 0.04155-0.1282631 0.186758-0.2866059 0.303117-0.2806088 0.116354 0.00604 0.237912 0.2142024 0.237912 0.2142024z" fill="#f5f1e8"/>
  <path id="path1546" d="m11.929238 18.085466c0.295553 0.160822 0.653637 0.187615 0.653637 0.187615l0.45155 0.03257s-0.09329 0.165138-0.385611 0.266281c-0.29232 0.101143-0.686485-0.225434-0.686485-0.225434z" fill="#f5f1e8"/>
 </g>
</svg>
