<?xml version="1.0" encoding="UTF-8"?>
<!-- Created with Inkscape (http://www.inkscape.org/) -->
<svg width="50mm" height="54.50399mm" version="1.1" viewBox="0 0 50 54.50399" xmlns="http://www.w3.org/2000/svg" xmlns:xlink="http://www.w3.org/1999/xlink">
 <defs>
  <linearGradient id="linearGradient4418" x1="169.7027" x2="169.0455" y1="49.58181" y2="88.4294" gradientTransform="translate(.1565474 .1903388)" gradientUnits="userSpaceOnUse">
   <stop stop-color="#808080" offset="0"/>
   <stop stop-color="#808080" stop-opacity="0" offset="1"/>
  </linearGradient>
 </defs>
 <g transform="translate(-143.2967 -43.98233)">
  <g transform="matrix(.9968788 0 0 .9968788 .44725 .1372753)">
   <path d="m170.7347 44.17267-3.58339 8.428051c-0.75588 0.101184-2.0244 0.249822-3.89212 0.657715-1.89755 0.414408-3.384 1.233887-4.38166 1.846142l-10.96503-8.558716 0.063 3.731445s0.21198 12.99498-0.14311 19.10247c-0.33219 5.713693-3.66593 12.6957-3.66593 12.6957l-0.71316 1.4525 1.3771 0.850052 2.82009 1.73945-3.54625 1.266385 4.46127 1.730667c3.46814 1.345311 4.68551 2.511646 6.32936 3.921768s3.69349 3.012208 7.84976 4.384401c7.9426 2.622246 14.6445 0.786463 20.75628-2.821366 6.64743-3.924036 9.2365-11.82688 9.7594-16.3005 0.49301-4.217988 0.14836-8.889319-2.29634-13.77871-1.94152-3.883059-5.55278-6.876739-7.27915-8.160865l0.63429-3.245388h-6.61228z" color="#000000" fill="url(#linearGradient4418)" stroke-width="3.56436"/>
   <path d="m170.5781 43.98233-3.58339 8.428051c-0.75588 0.101184-2.0244 0.249822-3.89212 0.657715-1.89755 0.414408-3.384 1.233887-4.38166 1.846142l-10.96503-8.558716 0.063 3.731445s0.21198 12.99498-0.14311 19.10247c-0.33219 5.713693-3.66593 12.6957-3.66593 12.6957l-0.71316 1.4525 1.3771 0.850052 2.82009 1.73945-3.54625 1.266385 4.46127 1.730667c3.46814 1.345311 4.68551 2.511646 6.32936 3.921768s3.69349 3.012208 7.84976 4.384401c7.9426 2.622244 14.6445 0.786463 20.75628-2.821366 6.64743-3.924036 9.2365-11.82688 9.7594-16.3005 0.49301-4.217988 0.14836-8.889319-2.29634-13.77871-1.94152-3.883059-5.55278-6.876739-7.27915-8.160865l0.63429-3.245388h-6.61228z" color="#000000" fill="#f9f9f9" stroke-width="3.56436"/>
   <path d="m168.003 96.53609c-2.44934-0.270087-5.49599-1.143484-7.50367-2.1511-1.79027-0.898508-2.9053-1.649998-4.61335-3.109231-2.26997-1.939307-3.73104-2.823451-5.93278-3.590136-0.49165-0.171203-0.9092-0.326561-0.92788-0.345245-0.0187-0.0187 0.5543-0.242543 1.27329-0.497463 0.71899-0.254916 1.30442-0.485333 1.30096-0.512034-4e-3 -0.0267-1.10115-0.702095-2.43928-1.500869-1.33814-0.798777-2.68452-1.611436-2.99196-1.805912l-0.55897-0.353592 0.37366-0.743181c1.72743-3.435696 2.83062-7.99255 3.41437-14.10348 0.34382-3.599216 0.38137-4.698606 0.38137-11.16453 0-4.295447 0.0316-6.460348 0.0937-6.422413 0.0515 0.03148 0.55095 0.417471 1.10981 0.857765 0.55885 0.440298 1.15581 0.905949 1.32657 1.034782 0.17076 0.128838 1.2525 0.989276 2.40387 1.912089 3.5692 2.860685 3.75664 3.007505 3.81818 2.990698 0.0329-9e-3 0.33459-0.183236 0.67033-0.38721 2.53759-1.541636 6.04221-2.638923 8.43527-2.641065l0.61733-7.09e-4 0.70901-1.709987c0.38995-0.940491 0.99211-2.395152 1.33812-3.232575 0.34602-0.837424 0.66163-1.522591 0.70137-1.522591 0.0397 0 0.48795 0.53319 0.99604 1.184871 1.6118 2.067351 2.88806 3.699815 3.79847 4.85864l0.88335 1.124378 0.79138 0.02674c0.43525 0.0147 1.61357-0.01112 2.61848-0.05736 1.0049-0.04625 1.85204-0.07046 1.88253-0.0538 0.0305 0.01668-0.0413 0.527362-0.15948 1.134886-0.1182 0.607527-0.21693 1.130246-0.2194 1.161601-2e-3 0.03134 0.23795 0.21736 0.53427 0.413348 1.10066 0.727986 2.06808 1.517828 3.14827 2.570398 3.33575 3.250448 5.24273 6.917198 6.11792 11.76351 0.24314 1.346413 0.24484 5.100131 3e-3 6.55885-0.58412 3.522784-1.85425 6.649569-3.84416 9.463487-1.50517 2.128443-3.58196 4.147738-5.68068 5.523385-1.50209 0.98458-2.48111 1.473224-4.45264 2.22238-0.75001 0.284996-2.82044 0.799599-3.88846 0.966474-1.17157 0.183058-4.38477 0.262136-5.52818 0.136054zm4.17937-0.745395c2.67308-0.211648 4.51273-0.708798 6.77216-1.830117 2.35165-1.167086 3.75051-2.178209 5.6887-4.111928 1.46333-1.459941 2.08672-2.211869 2.96932-3.58157 1.02213-1.586239 1.61928-2.791233 2.14197-4.322351 0.30323-0.888245 0.57438-1.992434 0.50606-2.060761-0.0254-0.02543-0.281 0.131055-0.56795 0.34771-0.72984 0.551032-1.74835 1.078451-2.57526 1.333561-0.98185 0.302912-2.34433 0.300263-3.12273-0.0061-0.73361-0.288708-1.56524-1.09915-1.78061-1.735263-0.35391-1.045261-0.12752-2.215297 0.64902-3.354308 0.23636-0.346686 0.41537-0.671753 0.3978-0.722373-0.0176-0.05062-0.51956-0.589165-1.11553-1.19677-1.12312-1.145031-1.96219-2.138362-2.5557-3.025541l-0.34476-0.515339 0.0712 0.609039c0.0392 0.334968 0.0674 1.49448 0.0628 2.576691-8e-3 1.805639-0.0284 2.042537-0.25122 2.877067-0.65842 2.466053-1.93908 4.157976-3.9228 5.182524-1.64732 0.850814-3.43578 1.080781-5.79632 0.745317-2.09217-0.297327-2.95192-0.567407-6.67548-2.097035-3.26585-1.3416-4.41886-1.638559-6.81709-1.755738-4.13681-0.202132-5.62345 1.541789-4.30906 5.054806 0.1099 0.293732 0.45582 0.92408 0.76872 1.400772 3.86079 5.881853 10.0712 9.667904 16.7049 10.1838 1.39316 0.108344 1.77637 0.108825 3.10184 0.0039zm-3.66403-0.896542c-2.08191-0.298326-3.34392-0.659744-4.87527-1.39619-1.52758-0.734637-2.66227-1.532875-3.79561-2.670151-1.99522-2.002166-3.21091-4.355044-3.69201-7.1456-0.0346-0.200822-0.1143-0.351368-0.18597-0.351368-0.23809 0-0.77504 0.720283-1.03956 1.394522-0.29208 0.744463-0.3227 0.784516-0.51078 0.668275-0.27468-0.169761 0.31026-1.830935 0.88411-2.51078 0.80158-0.949641 2.53901-1.44698 4.0327-1.154355 0.41906 0.0821 0.40236 0.09012-0.60051 0.288452-0.58465 0.115618-1.3203 0.420088-1.3203 0.546439 0 0.174234 1.77196 1.269389 3.13888 1.939969 5.77442 2.832815 13.91195 3.338982 20.0045 1.244317 1.17652-0.404499 2.39354-0.947475 3.10538-1.385474 0.25033-0.154027 0.45514-0.232726 0.45514-0.174889 0 0.137428-0.6802 0.789746-1.25639 1.20488-0.41411 0.298361-0.49068 0.41668-0.84893 1.311768-0.82325 2.056921-1.5779 3.243202-2.89464 4.550232-1.78857 1.775389-3.85279 2.875378-6.41254 3.417132-0.8779 0.185803-3.48031 0.324255-4.1882 0.222821zm1.88372-0.982399c-0.10125-0.633149-0.57208-1.547497-1.02207-1.984835-0.48076-0.467251-1.29031-0.921927-2.02646-1.138157-0.57474-0.168819-1.41188-0.199682-1.41188-0.05205 0 0.05359 0.0789 0.253865 0.17537 0.445065 0.72937 1.4458-0.0192 0.691343-0.81716-0.823591-0.47866-0.908732-1.39128-1.564014-2.68772-1.929848-0.6997-0.197444-3.51044-0.306871-3.51044-0.136668 0 0.359906 1.2358 2.067589 2.07541 2.867889 2.09913 2.000862 4.99814 3.083814 8.36046 3.123119l0.92553 0.01084zm3.39071-11.73988c2.90108-0.960109 4.6168-3.868294 4.76909-8.083732 0.0651-1.80264-0.0481-2.864573-0.48801-4.577731-0.78173-3.044197-2.12064-5.485538-4.25039-7.750053-3.27294-3.48004-7.25571-4.968634-10.5522-3.943973-1.03748 0.322485-1.93655 0.876966-2.77237 1.709797-0.89218 0.888981-1.4265 1.712215-1.90896 2.941151-2.06148 5.251077 0.3509 12.94407 5.33722 17.02019 1.78783 1.461485 3.53197 2.350279 5.52817 2.817098 0.59288 0.13865 1.04339 0.16997 2.15505 0.149837 1.24045-0.02245 1.49669-0.05565 2.1824-0.282581zm-7.05581-3.95533c-0.71987-0.255695-1.72387-1.249596-2.31108-2.287827-0.60114-1.062865-1.10397-2.853982-1.10654-3.941526-2e-3 -0.734006 0.16574-1.552916 0.41952-2.05137 1.2384-2.432395 4.39813-0.181238 5.35559 3.815611 0.18727 0.781736 0.21085 2.249514 0.0465 2.897642-0.34372 1.355904-1.28035 1.9666-2.40404 1.56747zm17.92964-3.18914c1.04719-0.495405 1.52625-0.618474 2.59132-0.665719 0.89008-0.03948 1.11375-0.01774 1.63971 0.159385 0.33497 0.112806 0.80521 0.325184 1.04497 0.471947 0.23976 0.146764 0.46113 0.241654 0.49191 0.210866 0.1193-0.119301 0.0524-3.351384-0.0894-4.322826-0.40994-2.806994-1.45938-5.477641-3.0244-7.696589-0.74922-1.062284-2.64435-3.039934-3.81066-3.976592-1.45953-1.172155-3.14074-2.249511-3.92858-2.517533-2.21182-0.752457-3.71429 1.270677-3.35039 4.511436 0.38926 3.466573 2.25627 7.513007 5.09521 11.04302 0.98071 1.219441 2.60746 3.028038 2.72358 3.028038 0.0539 0 0.33144-0.110444 0.61678-0.245429zm-1.53353-1.900243c-1.56425-0.897258-2.76195-3.164149-2.76195-5.22758 0-0.882317 0.14621-1.304193 0.57787-1.667414 1.36122-1.145385 4.09015 2.281464 4.14021 5.199051 0.017 0.990785-0.24116 1.626427-0.74629 1.83748-0.4512 0.188526-0.68136 0.161598-1.20984-0.141537z" stroke-width=".0936978"/>
  </g>
 </g>
</svg>
