<?xml version="1.0" encoding="UTF-8" standalone="no"?>
<!-- Created with Inkscape (http://www.inkscape.org/) -->

<svg
   width="48.968487mm"
   height="30mm"
   viewBox="0 0 48.968487 30"
   version="1.1"
   id="svg2441"
   inkscape:version="1.1.1 (1:1.1+202109281949+c3084ef5ed)"
   sodipodi:docname="guy_01.svg"
   xmlns:inkscape="http://www.inkscape.org/namespaces/inkscape"
   xmlns:sodipodi="http://sodipodi.sourceforge.net/DTD/sodipodi-0.dtd"
   xmlns="http://www.w3.org/2000/svg"
   xmlns:svg="http://www.w3.org/2000/svg">
  <sodipodi:namedview
     id="namedview2443"
     pagecolor="#ffffff"
     bordercolor="#666666"
     borderopacity="1.0"
     inkscape:pageshadow="2"
     inkscape:pageopacity="0.0"
     inkscape:pagecheckerboard="0"
     inkscape:document-units="mm"
     showgrid="false"
     width="30mm"
     fit-margin-top="0"
     fit-margin-left="0"
     fit-margin-right="0"
     fit-margin-bottom="0"
     inkscape:zoom="0.64052329"
     inkscape:cx="269.31105"
     inkscape:cy="560.47923"
     inkscape:window-width="1920"
     inkscape:window-height="1151"
     inkscape:window-x="0"
     inkscape:window-y="25"
     inkscape:window-maximized="1"
     inkscape:current-layer="layer1" />
  <defs
     id="defs2438" />
  <g
     inkscape:label="Layer 1"
     inkscape:groupmode="layer"
     id="layer1"
     transform="translate(9.484243)">
    <g
       id="g1131"
       transform="matrix(0.34752536,0,0,0.34752536,-81.488523,187.54833)"
       style="display:inline">
      <path
         style="fill:#333333;stroke:#000000;stroke-width:0.264583px;stroke-linecap:butt;stroke-linejoin:miter;stroke-opacity:1"
         d="m 276.22522,-539.53517 c -0.37502,0.002 -0.74916,0.0109 -1.12189,0.0258 -22.49236,0.90408 -48.54645,26.18357 -46.85709,48.63063 1.5385,20.44249 28.32087,37.27521 48.82079,37.40184 21.51145,0.13288 52.95878,-10.67093 51.71054,-38.61159 -0.99973,-22.37814 -28.9261,-47.57926 -52.55235,-47.44673 z m -0.61908,1.52342 c 23.80251,0.27562 53.73232,24.94865 51.82577,48.27614 -1.7394,21.28239 -32.78603,35.43394 -54.10884,34.29195 -18.3373,-0.98209 -41.56336,-15.9942 -43.11674,-34.29195 -1.82405,-21.48597 21.58811,-47.00458 43.11674,-48.2255 0.7538,-0.0427 1.51525,-0.0595 2.28307,-0.0506 z"
         id="path991"
         inkscape:connector-curvature="0" />
      <path
         style="fill:#333333;stroke:#000000;stroke-width:0.264583px;stroke-linecap:butt;stroke-linejoin:miter;stroke-opacity:1"
         d="m 256.51325,-511.00978 c -2.02807,-0.0209 -4.93199,0.29827 -8.4367,1.65883 -5.87278,2.27981 -12.4411,7.78555 -12.4411,7.78555 0,0 0.94759,3.08991 1.19476,2.84274 0.24717,-0.24717 3.70727,-3.13108 3.70727,-3.13108 0,0 1.48306,6.7976 7.00319,6.0973 5.52013,-0.70033 8.23887,-3.62538 9.72189,-5.89111 1.48302,-2.26573 2.43085,-8.98033 2.43085,-8.98033 0,0 -1.15209,-0.36102 -3.18016,-0.3819 z m 1.49086,2.52389 c -0.3309,1.3045 -1.80003,4.01307 -3.41891,5.39657 -2.02454,1.73017 -4.69891,3.56489 -7.33289,3.17188 -1.78246,-0.26593 -4.11964,-3.50157 -4.11964,-3.50157 0,0 2.76041,-1.6065 6.79752,-3.17191 4.03711,-1.5654 8.07392,-1.89497 8.07392,-1.89497 z"
         id="path993"
         inkscape:connector-curvature="0" />
      <path
         style="fill:#333333;stroke:#000000;stroke-width:0.264583px;stroke-linecap:butt;stroke-linejoin:miter;stroke-opacity:1"
         d="m 256.52128,-517.91956 c 0,0 2.01856,-2.76005 3.13082,-3.78994 1.11227,-1.02987 2.22453,-1.40063 2.76007,-0.86509 0.53553,0.53555 0.53553,1.6478 -1.02988,2.51288 -1.56541,0.86511 -4.86101,2.14215 -4.86101,2.14215 z"
         id="path995"
         inkscape:connector-curvature="0" />
      <path
         style="fill:#333333;stroke:#000000;stroke-width:0.264583px;stroke-linecap:butt;stroke-linejoin:miter;stroke-opacity:1"
         d="m 267.19079,-499.34062 c 0,0 0.14878,-2.52923 1.84969,-5.05625 1.64796,-2.44834 4.75292,-4.89461 10.5912,-5.03652 10.58687,-0.25732 13.51196,5.47894 13.67674,6.34404 0.16478,0.8651 -0.0412,4.73742 -0.0412,4.73742 0,0 0.37076,0.94747 0.74151,0.20598 0.37076,-0.74152 0.97149,-4.62704 0.70032,-5.72611 -0.27117,-1.09907 -3.95129,-7.88118 -14.85362,-7.65519 -6.5912,-0.12358 -10.42656,2.80367 -12.37628,6.37815 -0.98868,1.81258 -1.30782,4.95092 -1.40063,5.52011 -0.1324,0.81207 1.1885,0.95556 1.11227,0.28837 z"
         id="path997"
         inkscape:connector-curvature="0"
         sodipodi:nodetypes="csszcczcssc" />
      <path
         style="fill:#333333;stroke:#000000;stroke-width:0.264583px;stroke-linecap:butt;stroke-linejoin:miter;stroke-opacity:1"
         d="m 274.77067,-502.92456 c 0.95801,-0.15816 2.47014,0.43328 2.55409,1.40062 0.076,0.87596 -1.18682,1.54251 -2.05975,1.6478 -0.84172,0.10152 -2.14091,-0.23969 -2.30692,-1.07109 -0.17508,-0.87683 0.93039,-1.83168 1.81258,-1.97733 z"
         id="path999"
         inkscape:connector-curvature="0"
         sodipodi:nodetypes="aaaaa" />
      <path
         sodipodi:nodetypes="aaaaa"
         inkscape:connector-curvature="0"
         id="path1001"
         d="m 284.80679,-502.92456 c -0.95801,-0.15816 -2.47014,0.43328 -2.55409,1.40062 -0.076,0.87596 1.18682,1.54251 2.05975,1.6478 0.84172,0.10152 2.14091,-0.23969 2.30692,-1.07109 0.17508,-0.87683 -0.93039,-1.83168 -1.81258,-1.97733 z"
         style="fill:#333333;stroke:#000000;stroke-width:0.264583px;stroke-linecap:butt;stroke-linejoin:miter;stroke-opacity:1" />
      <path
         style="fill:#333333;stroke:#000000;stroke-width:0.264583px;stroke-linecap:butt;stroke-linejoin:miter;stroke-opacity:1"
         d="m 224.88676,-511.01081 c -2.7174,0.0312 -6.04234,0.77131 -9.72551,3.06028 -7.29152,4.53144 -8.08671,11.31644 -7.78557,16.02486 0.20318,3.17674 2.67773,9.35147 8.60981,13.01782 5.93208,3.66636 13.14126,3.91361 16.76642,3.66644 1.89058,-0.1289 2.30683,-0.0827 2.30683,-0.0827 l -0.70021,-0.78239 c 0,0 -4.03714,0.1236 -7.29155,-0.28835 -3.2544,-0.41195 -9.47483,-2.55413 -12.52326,-5.10822 -2.98096,-2.49756 -5.6441,-8.28024 -5.6441,-12.68812 0,-4.40785 3.70796,-10.21643 6.96236,-12.1114 5.91493,-3.6951 9.60818,-3.67623 15.77733,-1.11207 l 0.61805,-1.73014 c 0,0 -2.84161,-1.91797 -7.3706,-1.86603 z m -0.20206,13.99966 c -0.12793,0.002 -0.25417,0.008 -0.37776,0.0186 -1.97736,0.16478 -4.4494,1.31829 -4.61418,3.21326 -0.16478,1.89497 0.73963,3.27983 1.97765,4.24315 1.54552,1.20258 3.21324,1.2769 3.21324,1.2769 l 0.16485,-0.45317 c 0,0 -2.92515,-1.27704 -3.58428,-1.895 -0.65911,-0.61791 -0.78245,-1.19433 -0.94723,-2.389 -0.0732,-0.53049 0.45321,-1.35959 0.45321,-1.35959 0,0 2.43047,0.28826 3.04839,0.41185 0.61793,0.12358 2.80113,1.11239 3.46025,1.93632 0.65912,0.82389 0.98857,1.19476 0.98857,1.19476 l 0.12351,-1.40095 c 0,0 -1.93618,-1.73018 -3.50159,-2.18334 -1.56541,-0.45315 -3.58376,-0.4532 -3.58376,-0.4532 0,0 2.22454,-1.52408 3.78995,-1.56528 2.07911,-0.0547 3.54293,1.15343 3.54293,1.15343 l 0.0822,-0.98856 c 0,0 -2.31698,-0.79637 -4.23592,-0.76018 z"
         id="path1003"
         inkscape:connector-curvature="0" />
      <path
         id="path1005"
         d="m 330.40235,-511.01081 c 2.71739,0.0312 6.04233,0.77131 9.7255,3.06027 7.29152,4.53144 8.08672,11.31644 7.78557,16.02486 -0.20317,3.17675 -2.67773,9.35147 -8.60981,13.01782 -5.93208,3.66636 -11.56827,3.91361 -15.19343,3.66644 -1.89059,-0.1289 -2.30684,-0.0827 -2.30684,-0.0827 l 0.70021,-0.78238 c 0,0 2.46417,0.12359 5.71857,-0.28836 3.2544,-0.41194 9.47483,-2.55412 12.52327,-5.10821 2.98095,-2.49756 5.6441,-8.28024 5.6441,-12.68812 0,-4.40785 -3.70797,-10.21644 -6.96237,-12.11141 -5.91493,-3.69509 -9.60817,-3.67623 -15.77733,-1.11207 l -0.61805,-1.73014 c 0,0 2.84162,-1.91796 7.37061,-1.86602 z m 1.42548,13.99966 c 0.12793,0.002 0.25417,0.008 0.37776,0.0186 1.97736,0.16478 4.44941,1.31828 4.61419,3.21326 0.16478,1.89497 -0.73964,3.27982 -1.97766,4.24314 -1.54551,1.20259 -3.21324,1.27691 -3.21324,1.27691 l -0.16485,-0.45318 c 0,0 2.92516,-1.27704 3.58428,-1.895 0.65911,-0.6179 0.78245,-1.19433 0.94723,-2.389 0.0732,-0.53049 -0.4532,-1.35959 -0.4532,-1.35959 0,0 -2.43047,0.28827 -3.0484,0.41185 -0.61793,0.12359 -2.80113,1.11239 -3.46025,1.93633 -0.65912,0.82389 -0.98857,1.19475 -0.98857,1.19475 l -0.12351,-1.40094 c 0,0 1.93619,-1.73019 3.5016,-2.18334 1.56541,-0.45315 3.58376,-0.45321 3.58376,-0.45321 0,0 -2.22454,-1.52408 -3.78995,-1.56527 -2.07912,-0.0547 -3.54294,1.15342 -3.54294,1.15342 l -0.0822,-0.98856 c 0,0 2.31697,-0.79637 4.23591,-0.76017 z"
         style="fill:#333333;stroke:#000000;stroke-width:0.264583px;stroke-linecap:butt;stroke-linejoin:miter;stroke-opacity:1"
         inkscape:connector-curvature="0"
         sodipodi:nodetypes="cccccccccscccccccsccccccccccscccccc" />
      <path
         id="path1010"
         d="m 300.99228,-511.00978 c 2.02807,-0.0209 4.93199,0.29826 8.43669,1.65883 5.87278,2.27981 12.4411,7.78555 12.4411,7.78555 0,0 -0.94758,3.08991 -1.19475,2.84274 -0.24718,-0.24718 -3.70727,-3.13108 -3.70727,-3.13108 0,0 -1.48306,6.79759 -7.00319,6.09729 -5.52013,-0.70032 -8.23887,-3.62537 -9.72189,-5.8911 -1.48302,-2.26574 -2.43086,-8.98033 -2.43086,-8.98033 0,0 1.1521,-0.36103 3.18017,-0.3819 z m -1.49087,2.52389 c 0.3309,1.3045 1.80004,4.01306 3.41892,5.39657 2.02453,1.73016 4.69891,3.56489 7.33288,3.17188 1.78247,-0.26594 4.11965,-3.50158 4.11965,-3.50158 0,0 -2.76041,-1.60649 -6.79752,-3.1719 -4.03711,-1.56541 -8.07393,-1.89497 -8.07393,-1.89497 z"
         style="fill:#333333;stroke:#000000;stroke-width:0.264583px;stroke-linecap:butt;stroke-linejoin:miter;stroke-opacity:1"
         inkscape:connector-curvature="0" />
      <path
         inkscape:connector-curvature="0"
         id="path1012"
         d="m 300.98425,-517.91956 c 0,0 -2.01856,-2.76005 -3.13083,-3.78994 -1.11226,-1.02987 -2.22453,-1.40063 -2.76006,-0.86509 -0.53554,0.53555 -0.53554,1.6478 1.02987,2.51288 1.56541,0.86511 4.86102,2.14215 4.86102,2.14215 z"
         style="fill:#333333;stroke:#000000;stroke-width:0.264583px;stroke-linecap:butt;stroke-linejoin:miter;stroke-opacity:1" />
      <path
         style="fill:#333333;fill-opacity:1;stroke:#000000;stroke-width:0.264583px;stroke-linecap:butt;stroke-linejoin:miter;stroke-opacity:1"
         d="m 255.77977,-473.38774 c 1.71883,0.0712 4.0507,0.11772 6.38666,0.15363 3.44043,0.0529 6.88972,0.0828 8.40235,0.13473 1.48572,0.0479 7.11849,0.31192 11.96006,0.55682 3.48149,0.1761 6.55387,0.34234 7.38099,0.41126 1.97735,0.16478 2.20393,2.18334 -0.32956,2.10095 -1.1196,-0.0364 -3.70638,-0.12239 -6.65441,-0.22824 -3.86045,-0.13862 -8.34038,-0.31133 -10.95645,-0.45148 -2.18688,-0.11715 -5.41495,-0.15455 -8.5214,-0.34467 -3.44751,-0.21098 -6.81809,-0.31518 -8.16258,-0.14967 -2.63387,0.32424 -1.79352,-2.02827 0.49434,-2.18333 z"
         id="path1014"
         inkscape:connector-curvature="0"
         sodipodi:nodetypes="cscsssssssc" />
      <path
         style="fill:#333333;fill-opacity:1;stroke:#000000;stroke-width:0.264583px;stroke-linecap:butt;stroke-linejoin:miter;stroke-opacity:1"
         d="m 275.17619,-490.66424 c -4.69559,0.47209 -9.41307,1.35813 -15.52825,4.97025 -6.25415,3.69421 -10.63829,7.54891 -11.30262,10.6032 -0.33728,1.55069 -3.89764,7.62545 8.15656,13.63252 2.2391,1.11583 8.80328,3.68194 14.44825,3.78676 5.64498,0.10482 11.29859,-0.44116 18.17617,-3.20432 6.76016,-2.71599 9.32142,-7.45692 10.02052,-11.65154 0.6991,-4.19461 -0.22386,-12.64365 -10.13687,-16.48714 -5.16777,-2.00367 -9.50499,-2.08495 -13.83376,-1.64973 z m 4.32444,0.72781 c 5.92741,0.23858 10.73853,1.38917 14.75243,5.7572 3.26988,3.55837 5.10697,9.58571 3.37912,14.09888 -2.12624,5.55383 -8.99383,8.39928 -14.68127,10.13684 -6.57495,2.00871 -14.10414,1.94919 -20.62355,-0.23306 -5.03123,-1.68411 -10.80093,-4.52992 -12.81679,-9.43766 -0.85155,-2.07317 -0.48249,-4.70227 0.64123,-6.64146 2.6732,-4.61314 8.08254,-7.68351 12.87475,-10.02057 5.73596,-2.79731 11.6298,-3.85207 16.47408,-3.66017 z"
         id="path1016"
         inkscape:connector-curvature="0"
         sodipodi:nodetypes="ssssssssscsssssssc" />
    </g>
  </g>
</svg>
