<?xml version="1.0" encoding="UTF-8"?>
<!-- Created with Inkscape (http://www.inkscape.org/) -->
<svg id="svg1078" width="5.0000005mm" height="2.0425348mm" version="1.1" viewBox="0 0 5.0000005 2.0425348" xmlns="http://www.w3.org/2000/svg" xmlns:xlink="http://www.w3.org/1999/xlink">
 <defs id="defs1075">
  <linearGradient id="linearGradient1010" x1="247.24919" x2="247.59875" y1="-333.24078" y2="-313.19983" gradientUnits="userSpaceOnUse">
   <stop id="stop1004" stop-color="#fc0" offset="0"/>
   <stop id="stop1006" stop-color="#c9dd16" offset="1"/>
  </linearGradient>
 </defs>
 <g id="layer1" transform="translate(2.4462836 .53548259)">
  <g id="g1032" transform="matrix(.05462077 0 0 .05462077 -13.514465 18.123079)">
   <path id="path994" d="m283.2793-341.59961c-2.38503-0.038-4.97816 0.38323-7.47266 1.51367-0.6196-0.34875-1.36148-0.67589-2.61523-0.82617-1.75063-0.20988-3.20856 0.24535-4.49414 0.98633-0.44541-0.27662-1.024-0.6504-1.93946-0.97656-0.99205-0.35345-2.56019-0.67898-4.25781 0.0117-0.37205 0.15137-0.59116 0.31742-0.86914 0.47851-0.26174-0.066-0.45361-0.17452-0.75586-0.21094-1.0831-0.13044-1.92395 9e-3 -2.66016 0.19922-0.19799-0.12105-0.20021-0.22913-0.44922-0.35156-2.97009-1.46032-5.3544-0.43316-6.98437 0.39453-0.23638 0.12003-0.30295 0.23259-0.49609 0.35156-0.85777-0.47548-1.87592-0.86724-3.23438-0.91015-2.06604-0.0653-3.06306 0.5203-3.98633 0.98047-0.86586-0.28264-1.87256-0.5094-3.12304-0.43946-1.89365 0.10592-3.41309 0.72073-4.70899 1.5-0.32169-0.19348-0.48561-0.3838-0.89648-0.57031-1.8583-0.84356-4.74005-2.555-8.61328-1.76172-1.56876 0.32131-2.63462 1.0171-3.48243 1.77149-1.3995-1.04855-3.03808-1.9766-5.33203-2.05664-3.42958-0.11966-7.37452 0.83298-9.76172 4.58398-1.5125 2.37662-1.11983 3.95668-0.90429 5.27734-0.35819 0.31704-0.73908 0.70159-1.16797 1.33008-1.61166 2.36165-2.34571 5.05879-2.42969 7.70508-0.10776 3.3974 0.93672 6.40548 2.09375 8.93359 0.78605 1.71753 1.89605 3.37786 3.43164 4.76953 1.73311 1.57069 3.82441 2.84829 6.21875 3.55664 1.69223 0.50064 3.33254 0.51245 4.83594 0.28516 1.90857-0.28853 4.3231-0.83035 6.56836-2.49609 1.0406 0.87379 2.2877 1.74669 4.09375 2.15429 2.25428 0.50878 4.34907 0.16123 6.17187-0.54296 0.46727-0.18051 0.76476-0.43401 1.14649-0.65625 1.63095 1.19163 3.36111 1.73365 4.83789 1.89257 2.22154 0.23907 4.48024-0.10291 6.57226-1.1289 0.49094-0.24078 0.77941-0.49321 1.13282-0.74219 0.39334 0.31095 0.73342 0.62426 1.33007 0.92578 2.33349 1.17925 4.72172 1.29774 6.83985 1.01563 0.8465-0.11275 1.15652-0.35642 1.66211-0.5625 0.0232 0.0121 0.0231 0.019 0.0469 0.0312 1.9352 0.99126 3.96562 1.18824 5.96094 0.76953 1.90689-0.40015 3.54512-1.35734 4.82227-2.88672 0.11514-0.13789 0.12148-0.21788 0.21679-0.3457 0.52333 0.38077 1.02346 0.77266 1.97266 1.05273 2.16943 0.6401 3.7437 0.13392 5.05078-0.4707 0.56386 0.33255 1.14863 0.64917 1.93555 0.88867 0.8418 0.2562 2.06429 0.59612 3.73242-0.16211 0.14272-0.0649 0.77263-0.33183 1.46484-0.7207 0.69222-0.38888 1.59918-0.52302 2.65039-2.49414 0.56577-1.06088 2.18314-3.69658 2.55469-7.33789 0.23938-2.34595 0.37694-5.30938 0.11719-7.58204-0.0981-0.85789-0.24354-1.54766-0.44531-2.7539 1.7638-0.87493 3.66933-2.14706 4.33203-5.14453 0.71974-3.25557-0.77289-5.38003-2.55469-6.90235-2.92975-2.50309-6.17362-2.29454-8.1582-2.32617zm-30.19922 7.12891c0.0452 0.0951 0.0879 0.20898 0.0879 0.20898l0.01 0.0312c-0.16758-0.20126-0.12343-0.29444-0.0976-0.24023zm13.72851 0.10742c0.0404-0.0914 0.0993 0.0186-0.0879 0.23633 0.0232-0.0701 0.041-0.13009 0.0879-0.23633zm-50.18164 0.9082c0.0229 8e-4 0.98051 0.38064 1.80078 1.18946-0.49999-0.49302-0.0635-0.0317 0.11329 0.3457 0.17676 0.37741 0.29492 0.69336 0.29492 0.69336l4.1582 11.25781 3.48242-11.48633s0.10306-0.33185 0.25977-0.73828c0.1567-0.40642 0.52671-0.93692 0.18555-0.50976 0.24698-0.30923 0.46723-0.47655 0.58203-0.57032 0.34002-0.0136 1.61163 0.29212 3.49804 1.14844-0.11593-0.0526 0.66002 0.41265 1.19336 0.82031 0.53335 0.40767 0.94141 0.75391 0.94141 0.75391l5.95898 5.10156 0.59375-6.82617c-0.041 8e-3 -0.23558-0.0198 0.70313-0.0723-0.23667 0.0132 0.47461 0.1875 0.47461 0.1875l2.16797 1.51368 2.2539-1.38672s0.43644-0.2652 0.98828-0.52735c0.15892-0.0755 0.29991-0.1005 0.46094-0.14257 0.0853 0.134 0.15625 0.25781 0.15625 0.25781l3.26953 5.91406 3.64649-5.67773 1.02343 3.26757 4.53125-3.24804s0.1419-0.1006 0.33008-0.22071c0.0451-0.0288-0.0269 4e-3 0.0234-0.0215l4.93164 5.95117 1.26172-4.6875 3.22461 4.80664 3.19336-5.80078s0.33949-0.53162 0.13086-0.23633c0.0842-0.11915 0.0853-0.11001 0.15429-0.20117 8e-3 5e-3 0.0156 5e-3 0.0234 0.01 0.45706 0.2793 0.81055 0.54297 0.81055 0.54296l3.14062 2.37891 2.45118-3.08398s0.0143-0.016 0.0156-0.0176c0.41143-0.19135 0.8859-0.34658 1.40625-0.4668l0.67773 3.82813s0.84933 4.9434 0.95313 5.85156c0.0698 0.61099 0.0437 4.15649-0.12891 5.84766-0.0207 0.20275-0.43882 1.1923-0.84375 2.23437l-2.35937-4.87109-3.89258 5.64258c-0.31657-0.40385-0.58398-0.80469-0.58398-0.80469l-3.44532-5.56836-2.24414 3.66211-2.95117-2.3086-1.29492 6.40235s-0.0639 0.30947-0.17578 0.67969c-0.0319 0.10551-0.0793 0.17714-0.12891 0.26953-0.0535 0.0313-0.1 0.0616-0.11328 0.0644-0.0805 0.0169-0.17003-0.0114-0.29492-0.0254l-1.98828-3.00977-3.29883 1.93946s-0.3589 0.21023-0.82422 0.4375c-0.46532 0.22726-1.19508 0.38804-0.67187 0.31836-0.87714 0.11682-1.77526-0.0351-2.13868-0.21875 0.53756 0.27166-0.26047-0.26032-0.71093-0.78711-0.45047-0.52679-0.7793-0.98829-0.7793-0.98828l-3.04883-4.31836-3.35937 4.08007s-0.36328 0.4386-0.85352 0.94336c-0.49024 0.50477-1.29781 1.03767-0.89844 0.8418-0.55907 0.27419-1.44585 0.43039-2.16015 0.35352-0.53467-0.0575-0.73572-0.18698-0.8125-0.20508-0.0235-0.0437-0.0483-0.0607-0.0645-0.10547-0.13146-0.36479-0.21093-0.67969-0.21093-0.67969l-2.36329-9.62695-5.02734 8.54297s-0.82582 1.03379-0.2832 0.47461c-0.59449 0.61262-1.02025 0.86901-0.99024 0.85742-0.57084 0.22053-1.24146 0.25536-1.49023 0.19922-0.0451-0.0102-0.59861-0.27511-1.20899-0.85157 0.19478 0.18396-0.352-0.46196-0.67578-0.98437s-0.55664-0.95508-0.55664-0.95508l-3.99218-7.45117-3.2793 7.79297s-0.19388 0.4539-0.47852 0.98633c-0.28463 0.53242-0.89424 1.13238-0.37304 0.70703-0.41292 0.33699-1.5689 0.76207-3.07813 0.99023-0.5361 0.0811-1.05804 0.0416-1.34375-0.043-1.03872-0.3073-2.17015-0.96533-3.08984-1.79882-0.56507-0.51211-1.11994-1.29008-1.51367-2.1504-0.87762-1.91758-1.41443-3.83296-1.36719-5.32226 0.0392-1.23459 0.45422-2.57047 1.03125-3.41602-0.3931 0.57604-9e-3 0.0568 0.33789-0.18945 0.34732-0.24625 0.64453-0.42187 0.64453-0.42187l2.68359-1.58008-0.85156-2.9961s-0.17688-0.64197-0.27344-1.36523c-0.0256-0.19152 0.0195-0.29616 0.0469-0.45508 0.44962-0.24371 1.42625-0.69855 2.30273-0.66797z" color="#000000" color-rendering="auto" dominant-baseline="auto" fill="#f2f2f2" image-rendering="auto" shape-rendering="auto" solid-color="#000000" style="font-feature-settings:normal;font-variant-alternates:normal;font-variant-caps:normal;font-variant-ligatures:normal;font-variant-numeric:normal;font-variant-position:normal;isolation:auto;mix-blend-mode:normal;shape-padding:0;text-decoration-color:#000000;text-decoration-line:none;text-decoration-style:solid;text-indent:0;text-orientation:mixed;text-transform:none;white-space:normal"/>
   <path id="path992" d="m210.67124-329.86435s-1.72055 1.0137-2.26573 1.81259c-1.09434 1.6036-1.66861 3.62089-1.73019 5.56133-0.0775 2.44335 0.71287 4.90388 1.73019 7.12673 0.58989 1.28892 1.42137 2.50849 2.4717 3.46038 1.3264 1.20209 2.9385 2.16986 4.65503 2.67769 0.98897 0.29258 2.06988 0.31895 3.08963 0.16478 1.76553-0.26691 3.64242-0.72478 5.02579-1.85377 0.98898-0.80712 2.01856-3.2544 2.01856-3.2544s1.1491 2.14489 2.01855 2.96603c0.87317 0.82465 1.91807 1.58936 3.08963 1.85377 1.25153 0.28246 2.63431 0.0916 3.83113-0.37076 0.94276-0.36418 1.72669-1.08728 2.43051-1.81258 0.35018-0.36087 0.86509-1.23584 0.86509-1.23584s0.49087 1.99948 1.19465 2.67766c0.87401 0.84221 2.17121 1.22956 3.378 1.35943 1.46792 0.15797 3.04112-0.0914 4.36667-0.74149 1.25644-0.61622 3.08962-2.84247 3.08962-2.84247s1.70068 2.40899 2.96604 3.04845c1.34845 0.68145 2.99262 0.81737 4.49025 0.6179 1.07952-0.14378 3.00724-1.27703 3.00724-1.27703s0.60409 0.91425 1.07107 1.15345c0.98534 0.50472 2.21212 0.63932 3.29561 0.41195 0.9703-0.20361 1.9186-0.76322 2.55408-1.52421 0.60161-0.72042 0.98869-2.63647 0.98869-2.63647s0.94747 0.7415 1.35943 0.57672c0.41195-0.16479 1.19465-1.44182 1.19465-1.44182s1.5705 2.53738 2.88364 2.92483c1.09282 0.32244 2.34831-0.17481 3.33679-0.74149 0.4552-0.26096 1.07109-1.15348 1.07109-1.15348s0.61792 1.27705 1.44182 1.77139 1.60659 0.78271 2.05975 0.57673 1.89499-0.82388 2.22454-1.44182 1.89496-3.83114 2.10093-5.8497 0.28837-5.27296 0.12358-6.71478-0.98867-6.09684-0.98867-6.09684 1.08136 0.15415 1.56541-0.0412c1.41506-0.57107 3.04858-1.59967 3.37799-3.08964 0.23121-1.04582-0.42151-2.2703-1.23584-2.96604-1.46106-1.24829-3.68107-1.3288-5.60253-1.35942-2.14613-0.0342-4.40454 0.31645-6.30282 1.31823-0.42087 0.22211-1.02989 0.98869-1.02989 0.98869s-1.98899-1.50599-3.17201-1.64779c-0.74403-0.0892-1.54876 0.13698-2.18335 0.53551-0.60301 0.3787-0.94852 1.06626-1.35942 1.6478-0.13861 0.19618-0.37076 0.61793-0.37076 0.61793s-1.18311-1.76449-2.05974-2.30691c-0.79884-0.49429-1.84875-1.09553-2.71887-0.74151-0.75259 0.3062-1.23586 2.10093-1.23586 2.10093s-0.57763-0.69707-0.94748-0.94747c-0.43299-0.29315-0.9227-0.5554-1.44183-0.61794-0.66342-0.0799-1.3493 0.10142-1.97735 0.32956-0.50912 0.18495-1.40064 0.82392-1.40064 0.82392s-0.43812-1.39805-1.02987-1.689c-1.01653-0.4998-2.36799-0.14213-3.37799 0.37074-0.96196 0.48848-2.18334 2.38932-2.18334 2.38932s-0.55518-1.00443-0.98868-1.35943c-0.71307-0.58394-1.5917-1.12435-2.5129-1.15345-1.33815-0.0423-3.74874 1.44182-3.74874 1.44182s-1.42582-0.99476-3.00723-0.90631c-4.18761 0.23422-4.40787 2.76008-4.40787 2.76008s-1.94132-1.66208-3.08962-2.18334c-1.91666-0.87005-4.07597-1.90536-6.13806-1.48302-1.12462 0.23034-2.04364 1.16276-2.76007 2.05973-0.59081 0.73971-1.15346 2.5953-1.15346 2.5953s-0.6813-1.84425-1.35943-2.51291c-1.20271-1.18591-2.80223-2.28919-4.49025-2.34809-2.26152-0.0789-5.00549 0.80978-6.22045 2.71885-0.87762 1.37901 0.12359 4.9022 0.12359 4.9022z" fill="url(#linearGradient1010)"/>
   <g id="g971" transform="matrix(1.461269,0,0,1.461269,425.35055,-7.8609977)" fill="#333" stroke="#000">
    <path id="path959" d="m-102.36958-224.26095 0.41195 0.35016c1.00173-1.36892 5.464393-1.47544 6.797177-1.17406 0.844569 0.2176 1.95473 0.60017 2.183336 1.44183 0.232602 0.85637-0.454392 1.87013-1.174057 2.38931-0.781164 0.56355-2.131454 0.34805-2.863053 0.39135-0.553301 0.0327-0.359567 0.68588 0.16478 0.67972 0.311439-4e-3 0.464371-8e-3 0.679717-0.0206 0.304063 1.94571 0.784854 3.95655 0.700315 5.95267-0.07829 1.84845-0.170542 3.84524-1.112263 5.43774-0.458668 0.77563-1.159451 1.71284-2.059753 1.75079-0.708117 0.0298-1.730189-1.23585-1.730189-1.23585l-0.26777 0.32956s0.649773 1.02474 1.17406 1.25645c0.483592 0.21372 1.098671 0.22564 1.586008 0.0206 0.743055-0.31263 1.265686-1.05244 1.668396-1.75079 0.646867-1.12175 0.890245-2.44901 1.091668-3.72815 0.232909-1.47909 0.207988-2.99531 0.123585-4.49025-0.06918-1.22536-0.42773-2.58459-0.514938-3.64576 0.48377-0.0806 1.376982-0.2518 1.915568-0.65912 0.633459-0.47907 1.380107-1.16282 1.359437-1.95676-0.02421-0.92995-0.902674-1.7428-1.709416-2.20601-1.303831-0.74863-3.25658-0.7328-4.471834-0.58862-1.268109 0.20096-2.945934 0.23869-3.952724 1.45579z" stroke-width=".264583px"/>
    <g id="g943" transform="translate(.05825853 .05825853)">
     <path id="path927" d="m-144.99092-213.89819c-0.0534 0.73037 0.11801 1.63708 0.6991 2.08275 0.56351 0.43218 1.54737 0.54218 2.12644 0.13108 0.71561-0.50804 0.69111-1.65694 0.71367-2.53426 0.0429-1.66715-0.27136-3.43585-1.10692-4.87914-0.50265-0.86825-1.21766-1.9199-2.21382-2.03905-1.62047-0.19383-3.44964 0.97022-4.282 2.37403-1.27272 2.1465-0.95381 5.16266-0.0437 7.48623 0.8368 2.1364 2.57509 4.17007 4.70437 5.0248 1.6888 0.67791 3.8228 0.51313 5.45113-0.29937 1.17823-0.58791 1.97984-1.83196 2.54486-3.02134 0.49627-1.04466 0.62332-2.25282 0.64498-3.40916 0.03-1.59967-0.054-3.2893-0.71501-4.7463-0.43411-0.95682-1.10228-1.77248-2.03624-2.4061 0.0438-0.93101-2e-3 -2.43082-0.60276-3.42049-0.47616-0.78441-1.33147-1.33723-2.18469-1.67493-0.99807-0.39503-2.1649-0.58877-3.20422-0.32042-1.14876 0.29661-2.31822 1.00643-2.92749 2.02448-0.50934 0.85108-0.63912 1.93161-0.33496 2.95662l1.06322-0.43694c-0.20237-0.5074-0.40967-1.6256-0.10193-2.3449 0.32479-0.75917 1.08371-1.3619 1.86427-1.63124 1.26853-0.43772 2.86236-0.4605 4.01984 0.21847 0.97123 0.56972 1.47106 1.77965 1.80601 2.85467 0.14453 0.46388 0.20715 0.99395 0.0583 1.45646-0.15471 0.48072-0.45156 1.03913-0.93213 1.1943-0.49564 0.16004-1.17212-0.0324-1.50016-0.43694-0.48758-0.60128-0.5172-1.62151-0.17478-2.31578 0.13342-0.27052 0.84691-0.20717 0.75736-0.4952-0.12111-0.38953-0.8947-0.21241-1.22342 0.0291-0.45035 0.3309-0.58062 1.03027-0.5389 1.58755 0.0498 0.66475 0.38026 1.38236 0.91758 1.77689 0.43298 0.31791 1.05486 0.34592 1.58754 0.27672 0.461-0.0599 0.80379-0.54472 1.26712-0.58258 0.25591-0.0209 0.55172 0.0324 0.7428 0.2039 1.12243 1.00749 1.45707 2.71467 1.66037 4.20918 0.23031 1.69308 0.23022 3.57183-0.53889 5.09762-0.71765 1.42371-1.97626 2.85324-3.52464 3.23335-2.00492 0.49219-4.42649-0.24211-5.98382-1.59736-1.84424-1.60494-2.72227-4.31579-2.8521-6.75713-0.0809-1.52117 0.19444-3.34917 1.32057-4.375 1.08396-0.98741 2.98811-1.506 4.31112-0.87388 0.99728 0.47649 1.24827 1.87312 1.52929 2.94206 0.3903 1.48462 0.7229 3.1742 0.16022 4.60243-0.11577 0.29384-0.36618 0.58365-0.66998 0.66997-0.42705 0.12134-0.98568 0.0114-1.29625-0.30587-0.3577-0.36539-0.22559-0.99769-0.32046-1.50014-0.0612-0.32393 0.16552-0.92549-0.16026-0.97589-0.34976-0.0541-0.45483 0.59377-0.48063 0.94675z" stroke-width=".264583px"/>
     <path id="path929" transform="scale(.26458333)" d="m-510.5332-853.12695c-4.23939-0.0155-10.45059 1.96397-11.13086 6.14843-0.14147 0.87009 0.90839 1.98658 1.78906 1.94727 1.83035-0.0815 1.72261-3.51321 3.34766-4.35937 4.17002-2.17134 9.72342-2.36114 14.09179-0.62305 6.34311 2.52382 11.04854 8.68129 14.2461 14.71289 3.74967 7.07304 4.81925 15.50668 4.90429 23.51172 0.0874 8.20902 0.49717 17.70962-4.51562 24.21094-3.04071 3.94363-8.56379 6.99434-13.50586 6.38281-5.88265-0.7279-10.84255-6.80628-13.74024-11.28907l-1.32421 2.95899c2.86945 5.43001 8.96966 10.40955 15.17968 10.89844 6.10855 0.4809 12.90922-3.23539 16.42774-8.25196 5.56694-7.93712 4.30672-19.22635 3.42383-28.88086-0.80655-8.81949-2.29534-18.49026-7.86133-25.3789-5.12602-6.34417-13.17581-11.95805-21.33203-11.98828zm4.37109 16.96289c-0.59546 0.0249-0.99738 0.75729-0.63281 1.64258l6.30469 19.15039-3.58008 24.28906c-0.3885 2.45291 2.14138 3.50711 2.49023 1.71289l3.34766-24.13281 3.1914 5.13672c1.24748 1.78144 3.23066-0.19357 1.40235-2.41211l-4.51563-6.38477s2.95783-12.76669 3.19141-13.07812c1.11205-4.19883-2.35395-5.11775-2.64649-2.41407l-2.49218 10.50977-4.5918-12.5332c-0.42529-1.09774-1.00561-1.50572-1.46875-1.48633z" stroke-width="1px"/>
     <path id="path935" d="m-127.91048-208.64805c0.41309 1.27137 1.68736 2.20449 2.92484 2.30691 1.80373 0.14929 3.69964-1.1477 4.75803-2.61588 1.15921-1.60804 1.0124-3.86824 1.07107-5.84969 0.0819-2.76565-0.27111-5.57242-1.00928-8.239-0.16236-0.58653-0.21601-1.36144-0.74151-1.66839-0.93502-0.54616-2.50545-0.49231-3.23381 0.30896-0.88208 0.97038-0.0666 2.62444 0 3.93412 0.14781 2.90863 0.79062 6.37002 0.88569 8.69214 0.0331 0.80925-0.78387 1.09388-0.8033 0.24717-0.0703-3.06508 0.0267-8.0024-1.05047-11.80236-0.11723-0.41358-0.20167-0.94341-0.57673-1.15346-0.83576-0.46806-2.02857-0.22317-2.86305 0.24717-0.27396 0.15441-0.26273 0.64891-0.55614 0.7621-0.1897 0.0732-0.48662 0.047-0.59732-0.12358-0.12244-0.18865 3e-3 -0.48421 0.14418-0.65912 0.31289-0.38712 0.87557-0.5011 1.35943-0.61793 0.84855-0.20489 1.75879-0.28912 2.61589-0.12358 0.25943 0.0501 0.4569 0.34023 0.72091 0.32956 0.2672-0.0108 0.44588-0.30904 0.70031-0.39135 0.78922-0.25531 1.65934-0.45606 2.4717-0.28837 0.60551 0.12499 1.23429 0.43329 1.60661 0.92689 0.69894 0.9266 0.67252 2.23015 0.84449 3.37799 0.42685 2.84895 0.78172 5.7684 0.45316 8.63035-0.1948 1.69681-0.37004 3.57667-1.42123 4.92281-0.69869 0.89473-1.83778 1.46105-2.94545 1.70959-1.27069 0.28511-2.75656 0.30653-3.89293-0.32956-0.67702-0.37897-1.12035-1.12021-1.38003-1.87438z" stroke-width=".264583px"/>
     <path id="path937" d="m-119.60476-208.48014c0.63675 0.98051 1.2922 1.76445 2.27208 2.03904 1.47433 0.41315 3.33874 0.1354 4.51504-0.84474 0.68713-0.57254 1.02884-1.61327 0.96126-2.50512-0.0608-0.80221-0.47462-1.73775-1.1943-2.09731-0.7776-0.38849-1.63565 0.20995-2.5869 0.32895-0.32229 0.0403-0.60393-0.2034-0.58819-0.47459 0.17838-3.07379 0.6158-5.74562 0.84183-8.7929 0.0977-1.31653 0.46628-2.97106-0.43402-3.93659-0.44945-0.48201-1.31317-0.53984-1.94529-0.35339-0.52201 0.15396-0.68727 0.58816-1.19092 1.11691-0.15183 0.15939-0.58607-0.15287-0.31527-0.51711 0.28588-0.38452 0.73038-0.91251 1.25255-1.10692 0.64325-0.23949 1.45489-0.30327 2.05905 0.0225 0.58211 0.31389 1.00915 1.04903 1.10822 1.64568 0.47269 2.84686-0.39605 5.07337-0.58613 7.61066-0.10109 1.34945-0.18494 2.97473-0.29482 4.04896 0.83144-0.26766 2.07801-0.6372 2.97118-0.2039 0.66635 0.32327 1.10373 1.10963 1.25256 1.83514 0.24262 1.18266 5e-3 2.5733-0.6991 3.55377-0.58253 0.81079-1.61731 1.31322-2.60068 1.48559-1.17378 0.20575-2.46751-0.0572-3.52232-0.61171-0.68554-0.36039-1.34917-1.06805-1.62538-1.66037z" stroke-width=".264583px"/>
    </g>
    <path id="path10360" d="m-113.05968-206.31023 0.67972-0.52523c0.48819 0.61644 0.87753 0.89558 1.45212 0.93718 0.97022 0.0702 2.03161-0.46547 2.65436-1.21277 0.33017-0.3962 0.3372-0.98609 0.37868-1.50016 0.1995-2.47232-0.612-7.04556-0.64084-7.4134-0.0346-0.44087 0.45831-0.39969 0.52433 0.2039 0.25369 2.31942 0.27282 5.10514 0.88844 7.02016 0.0599 0.18631 0.45869 0.25013 0.66997 0.16021 0.50258-0.21392 0.67418-0.88931 0.83019-1.41277 0.28876-0.96887 0.18976-2.01943 0.14564-3.02945-0.10049-2.30065-0.31096-4.62788-0.93213-6.84537-0.39997-1.42784-0.82068-2.94481-1.77689-4.0781-0.43417-0.51458-1.02652-1.2242-1.6895-1.10691-0.65591 0.11604-1.14144 0.93812-1.1943 1.60211-0.20738 2.60521 0.5124 5.66112 0.69911 7.8649 0.0549 0.64793-0.65946 0.95061-0.72824-0.0291-0.16895-2.40643 0.14976-4.91363-0.55345-7.22406-0.14939-0.49083-0.31314-1.08324-0.75736-1.33995-0.50443-0.29151-1.30642-0.0848-1.74776 0.0146-0.44134 0.0993-0.49792-0.33211-0.20391-0.46607 0.29402-0.13396 1.07278-0.39293 1.60212-0.27673 0.51824 0.11377 1.02133 0.28149 1.31081 0.90301-0.11797-0.69021 0.47441-1.37352 1.07779-1.51472 0.9496-0.22223 1.91738 0.66614 2.57794 1.38364 1.01467 1.10213 1.39593 2.67685 1.79144 4.12178 0.68202 2.49167 1.05752 5.1086 0.96127 7.69013-0.0476 1.27686-0.026 2.70995-0.75736 3.75768-0.35026 0.50178-0.83493 1.10934-1.55298 0.55334-0.59659 0.6767 0.19812 1.08526-1.50559 2.30133-0.65409 0.46688-1.56513 0.61699-2.35947 0.4952-0.69667-0.10682-1.28273-0.54991-1.84415-1.03435z" stroke-width=".264583px"/>
    <path id="path10362" d="m-105.5004-209.08059-0.17508 0.36046c0.3334 0.74884 1.25633 1.76599 2.22453 1.93617 0.9205 0.16179 1.98837-0.31667 2.61589-1.00929 1.652426-1.82386 1.888825-4.65658 1.967058-7.11643 0.06399-2.01208-0.447032-4.05938-1.235848-5.91149-0.53428-1.25448-1.24332-2.5248-2.30692-3.37799-0.86523-0.69406-2.01082-1.49376-3.08963-1.23585-0.58672 0.14027-0.97338 0.79823-1.19465 1.35944-0.0674 0.17086 0.093 0.80665 0.24215 0.41909 0.23452-0.60925 0.79281-1.25555 1.4419-1.32538 1.15738-0.12451 2.19655 0.93445 3.01488 1.76232 0.96604 0.97729 1.59978 2.28084 2.039049 3.5829 0.513588 1.52237 0.632792 3.17056 0.640844 4.7772 0.0069 1.36891-0.08411 2.77304-0.505195 4.0756-0.286488 0.88621-0.658368 1.81954-1.344518 2.44935-0.61009 0.56-1.45248 1.12361-2.27208 1.00497-0.89253-0.12919-1.46288-0.82792-2.06238-1.75107z" stroke-width=".264583px"/>
    <path id="path957" d="m-104.25364-221.64656c0.46884 1.41017 0.91876 3.11358 1.4856 4.39852 0.17043-1.06597 0.54661-2.44268 0.78649-3.5829 0.0694-0.33003 0.42016-0.40905 0.32042 0.0291-0.36341 1.59642-0.5443 2.89331-0.90301 4.51504 0.26068 1.87821 0.39887 3.00905 0.75736 5.09762 0.0871 0.50718-0.27545 0.53366-0.34955 0.37868-0.2611-0.54609-0.45398-0.95613-0.48697-1.3606-0.0808 0.34587-0.1487 0.79892-0.24126 1.21495-0.0624 0.28047-0.59168 0.27797-0.52433-0.26216 0.15487-2.10593 0.17326-2.3762 0.32042-5.06849-0.34819-1.69472-0.90404-3.51557-1.48559-5.18501-0.12252-0.35172 0.19677-0.54667 0.32042-0.17475z" stroke-width=".264583px"/>
   </g>
  </g>
 </g>
</svg>
